Seventy-Regular.ufo
<glyph name="exclam" format="2">
  <advance height="1000" width="165"/>
  <unicode hex="0021"/>
  <outline>
    <contour>
      <point x="150.67699" y="81.14835000000005" type="curve" smooth="yes"/>
      <point x="150.67698801696733" y="34.42246551915707"/>
      <point x="116.6750857820762" y="-3.4563475389741143"/>
      <point x="74.731613" y="-3.4563499999998157" type="curve" smooth="yes"/>
      <point x="32.788138655826664" y="-3.4563499999998157"/>
      <point x="-1.2137660169672" y="34.42246377894901"/>
      <point x="-1.2137679999999993" y="81.14835000000005" type="curve" smooth="yes"/>
      <point x="-1.2137709745493035" y="127.87424012629413"/>
      <point x="32.78813515028673" y="165.75306000000012"/>
      <point x="74.73161299999998" y="165.75306" type="curve" smooth="yes"/>
      <point x="116.67508928761606" y="165.7530575389742"/>
      <point x="150.67699297454925" y="127.87423838608606"/>
    </contour>
    <contour>
      <point x="19.163153" y="667.34876" type="curve" smooth="yes"/>
      <point x="137.51921" y="693.70415" type="line" smooth="yes"/>
      <point x="153.13409" y="697.18125"/>
      <point x="161.84851999999998" y="687.64264"/>
      <point x="157.46267" y="672.2588" type="curve" smooth="yes"/>
      <point x="121.57114" y="546.36536"/>
      <point x="109.50376" y="413.7046"/>
      <point x="122.21569" y="283.40793999999994" type="curve" smooth="yes"/>
      <point x="122.87778" y="276.62150999999994"/>
      <point x="123.60620999999999" y="269.8415399999999"/>
      <point x="124.40082" y="263.0693399999999" type="curve" smooth="yes"/>
      <point x="125.51917999999999" y="253.53789999999992"/>
      <point x="118.84734999999999" y="244.87858999999992"/>
      <point x="109.32222999999999" y="243.70675999999992" type="curve" smooth="yes"/>
      <point x="96.19065599999999" y="242.09124999999995"/>
      <point x="83.059086" y="240.47573999999997"/>
      <point x="69.927516" y="238.8602199999999" type="curve" smooth="yes"/>
      <point x="60.792342" y="237.73635999999988"/>
      <point x="51.657168" y="236.61249999999995"/>
      <point x="42.52199399999999" y="235.4886499999999" type="curve" smooth="yes"/>
      <point x="27.682753999999992" y="233.6630399999999"/>
      <point x="18.691675999999994" y="243.92077999999992"/>
      <point x="21.88125399999999" y="258.5269599999999" type="curve" smooth="yes"/>
      <point x="43.48763" y="357.47001"/>
      <point x="46.077824" y="460.54856"/>
      <point x="29.346251" y="560.43703" type="curve" smooth="yes"/>
      <point x="24.286076" y="590.64657"/>
      <point x="17.481352" y="620.56375"/>
      <point x="8.9790677" y="649.99046" type="curve" smooth="yes"/>
      <point x="6.7152021" y="657.82578"/>
      <point x="11.202207" y="665.57602"/>
    </contour>
  </outline>
</glyph>
<glyph name="numbersign" format="2">
  <advance height="1000" width="1000.0"/>
  <unicode hex="0023"/>
  <outline>
    <contour>
      <point x="36.823579" y="325.84354" type="line"/>
      <point x="465.09064" y="327.89587" type="line" smooth="yes"/>
      <point x="473.22025813111384" y="327.93482964731817"/>
      <point x="480.96868757077533" y="324.4525811401374"/>
      <point x="486.3370644540955" y="318.3474408100149" type="curve" smooth="yes"/>
      <point x="491.7054413374157" y="312.2423004798923"/>
      <point x="494.16805700162666" y="304.1121259714602"/>
      <point x="493.08963000000006" y="296.05425999999994" type="curve" smooth="yes"/>
      <point x="484.52967" y="232.09547999999995" type="line" smooth="yes"/>
      <point x="483.0114639937176" y="220.7516881958827"/>
      <point x="473.01634542351854" y="212.4886785386119"/>
      <point x="461.5894299999999" y="213.13067999999998" type="curve" smooth="yes"/>
      <point x="255.25577" y="224.72313999999994" type="line"/>
      <point x="24.486058" y="208.93140000000005" type="line" smooth="yes"/>
      <point x="18.26432602656979" y="208.50564239338667"/>
      <point x="12.186976727275919" y="210.93442307047405"/>
      <point x="7.972393922108722" y="215.53099897729658" type="curve" smooth="yes"/>
      <point x="3.7578111169414683" y="220.1275748841192"/>
      <point x="1.8641013117505167" y="226.3923185545932"/>
      <point x="2.8267151000000013" y="232.55386" type="curve" smooth="yes"/>
      <point x="14.386486" y="306.54628" type="line" smooth="yes"/>
      <point x="16.11555213158556" y="317.613756215914"/>
      <point x="25.621980096803156" y="325.78986049627133"/>
      <point x="36.82357899999997" y="325.84353999999996" type="curve"/>
    </contour>
    <contour>
      <point x="33.938232" y="508.97918" type="curve" smooth="yes"/>
      <point x="116.59155" y="494.02456"/>
      <point x="200.86065" y="488.00961"/>
      <point x="284.79989" y="491.08883" type="curve" smooth="yes"/>
      <point x="351.00082" y="493.51734"/>
      <point x="416.99314000000004" y="501.59493"/>
      <point x="481.82756" y="515.19386" type="curve" smooth="yes"/>
      <point x="497.00424" y="518.37715"/>
      <point x="507.47699" y="508.84065"/>
      <point x="505.30717" y="493.48589999999996" type="curve" smooth="yes"/>
      <point x="491.58567" y="396.38568" type="line"/>
      <point x="18.03337399999998" y="398.15502" type="line" smooth="yes"/>
      <point x="13.473886091353478" y="398.17205572927594"/>
      <point x="9.143031818245419" y="400.153731283272"/>
      <point x="6.149369602044288" y="403.592801904887" type="curve" smooth="yes"/>
      <point x="3.155707385843158" y="407.03187252650196"/>
      <point x="1.7898258033557113" y="411.5945147696353"/>
      <point x="2.4013463000000286" y="416.11283999999995" type="curve" smooth="yes"/>
      <point x="12.919392" y="493.82713" type="line" smooth="yes"/>
      <point x="14.31365" y="504.12883"/>
      <point x="23.70881" y="510.83001"/>
    </contour>
    <contour>
      <point x="373.84027" y="700.0" type="curve" smooth="yes"/>
      <point x="454.46437" y="700.0" type="line" smooth="yes"/>
      <point x="468.23908" y="700.0"/>
      <point x="475.26996999999994" y="689.62645"/>
      <point x="470.4108" y="676.73744" type="curve" smooth="yes"/>
      <point x="432.38979" y="575.88626"/>
      <point x="405.39369" y="470.88099"/>
      <point x="390.08011" y="364.19374" type="curve" smooth="yes"/>
      <point x="373.58395" y="249.26766999999995"/>
      <point x="370.6522" y="132.40143"/>
      <point x="381.34703" y="16.791639999999916" type="curve" smooth="yes"/>
      <point x="382.2054" y="7.512820000000033"/>
      <point x="375.44305" y="0.0"/>
      <point x="366.12456" y="0.0" type="curve" smooth="yes"/>
      <point x="287.84762" y="0.0" type="line" smooth="yes"/>
      <point x="279.83699769797033" y="-4.4595810777536826e-07"/>
      <point x="272.2170701027201" y="3.461275298665896"/>
      <point x="266.94675631272355" y="9.494007865318167" type="curve" smooth="yes"/>
      <point x="261.67644252272703" y="15.526740431970552"/>
      <point x="259.26983111655693" y="23.54247170721112"/>
      <point x="260.3456100000001" y="31.48052999999993" type="curve" smooth="yes"/>
      <point x="347.86984" y="677.31173" type="line" smooth="yes"/>
      <point x="349.6309759615052" y="690.3069422048922"/>
      <point x="360.72626450491634" y="700.0000008951341"/>
    </contour>
    <contour>
      <point x="145.58550999999997" y="700.0" type="line"/>
      <point x="227.70938999999998" y="700.0" type="line" smooth="yes"/>
      <point x="240.75268999999997" y="700.0"/>
      <point x="249.28307999999998" y="689.62557"/>
      <point x="246.81716999999998" y="676.81749" type="curve" smooth="yes"/>
      <point x="226.42896999999996" y="570.92028"/>
      <point x="208.81091999999998" y="464.48974999999996"/>
      <point x="193.98737999999997" y="357.67139999999995" type="curve" smooth="yes"/>
      <point x="178.35967999999997" y="245.0582599999999"/>
      <point x="165.83798999999996" y="132.01411999999993"/>
      <point x="156.44106999999997" y="18.71079999999995" type="curve" smooth="yes"/>
      <point x="155.58415" y="8.378400000000056"/>
      <point x="146.51304" y="0.0"/>
      <point x="136.14516" y="0.0" type="curve" smooth="yes"/>
      <point x="58.404188" y="0.0" type="line" smooth="yes"/>
      <point x="41.612419" y="0.0"/>
      <point x="31.79956" y="13.072070000000053"/>
      <point x="36.258956" y="29.260760000000005" type="curve" smooth="yes"/>
      <point x="66.440484" y="138.827"/>
      <point x="88.883702" y="250.52449000000001"/>
      <point x="103.35894" y="363.24618" type="curve" smooth="yes"/>
      <point x="116.72736" y="467.34886"/>
      <point x="123.30185" y="572.32336"/>
      <point x="123.03089" y="677.28047" type="curve" smooth="yes"/>
      <point x="122.99849" y="689.82841"/>
      <point x="133.03748" y="700.0"/>
      <point x="145.58551" y="700.0" type="curve"/>
    </contour>
  </outline>
</glyph>
<glyph name="dollar" format="2">
	<unicode hex="0024"/>
	<advance height="1000" width="509"/>
	<outline>
		<contour>
			<point x="222.89959" y="365.06789" type="curve" smooth="yes"/>
			<point x="228.2557" y="228.91956"/>
			<point x="219.18025" y="92.20876"/>
			<point x="195.89144" y="-42.03939" type="curve" smooth="yes"/>
			<point x="193.78777" y="-54.16598"/>
			<point x="201.82496" y="-62.50907"/>
			<point x="213.99932" y="-60.7018" type="curve" smooth="yes"/>
			<point x="319.95445" y="-44.97283" type="line" smooth="yes"/>
			<point x="332.08942" y="-43.1714"/>
			<point x="339.75894" y="-32.00473"/>
			<point x="337.22211" y="-20.00198" type="curve" smooth="yes"/>
			<point x="309.44646" y="111.41576"/>
			<point x="293.88535" y="245.41331"/>
			<point x="290.8167" y="379.69944" type="curve" smooth="yes"/>
			<point x="287.98552" y="503.59362"/>
			<point x="295.78316" y="627.72863"/>
			<point x="314.08762" y="750.295699" type="curve" smooth="yes"/>
			<point x="315.73578" y="761.331819"/>
			<point x="308.20688" y="769.007565"/>
			<point x="297.15653" y="767.457379" type="curve" smooth="yes"/>
			<point x="189.43961" y="752.346427" type="line" smooth="yes"/>
			<point x="178.05994" y="750.750043"/>
			<point x="171.06198" y="740.410346"/>
			<point x="173.67466" y="729.220265" type="curve" smooth="yes"/>
			<point x="201.56625" y="609.7607"/>
			<point x="218.07734" y="487.64579"/>
		</contour>
		<contour>
			<point x="363.69604" y="680.88729" type="line"/>
			<point x="315.34629" y="703.543439"/>
			<point x="259.44386" y="703.510107"/>
			<point x="206.48094" y="696.73302" type="curve" smooth="yes"/>
			<point x="158.08493" y="690.54031"/>
			<point x="109.0412" y="678.50101"/>
			<point x="69.255044" y="650.25946" type="curve" smooth="yes"/>
			<point x="49.361968" y="636.13869"/>
			<point x="32.09718" y="618.03367"/>
			<point x="20.326915" y="596.66567" type="curve" smooth="yes"/>
			<point x="8.556651" y="575.29766"/>
			<point x="2.4440749" y="550.6007"/>
			<point x="4.4714178" y="526.28978" type="curve" smooth="yes"/>
			<point x="6.310347" y="504.23823"/>
			<point x="14.710071" y="483.09785"/>
			<point x="26.238016" y="464.20979" type="curve" smooth="yes"/>
			<point x="43.369779" y="436.1401"/>
			<point x="67.707018" y="412.39444"/>
			<point x="96.571895" y="396.63932" type="curve" smooth="yes"/>
			<point x="145.16009" y="370.11876"/>
			<point x="202.96207" y="367.32332"/>
			<point x="255.16373" y="348.90759" type="curve" smooth="yes"/>
			<point x="291.46195" y="336.10229"/>
			<point x="325.52554" y="315.16424"/>
			<point x="349.75387" y="285.25564" type="curve" smooth="yes"/>
			<point x="373.9822" y="255.34704"/>
			<point x="387.60814" y="215.96187"/>
			<point x="382.41792" y="177.82268" type="curve" smooth="yes"/>
			<point x="378.26956" y="147.33941"/>
			<point x="362.21425" y="118.83358"/>
			<point x="339.05131" y="98.58716" type="curve" smooth="yes"/>
			<point x="315.88838" y="78.34075"/>
			<point x="285.90916" y="66.31738"/>
			<point x="255.2515" y="63.75868" type="curve" smooth="yes"/>
			<point x="235.18914" y="62.08427"/>
			<point x="214.70166" y="64.38372"/>
			<point x="195.82433" y="71.38004" type="curve" smooth="yes"/>
			<point x="176.94701" y="78.37636"/>
			<point x="159.73178" y="90.14902"/>
			<point x="147.09386" y="105.82017" type="curve" smooth="yes"/>
			<point x="134.45594" y="121.49132"/>
			<point x="126.5378" y="141.09468"/>
			<point x="125.68393" y="161.20867" type="curve" smooth="yes"/>
			<point x="124.83005" y="181.32267"/>
			<point x="131.22338" y="201.82325"/>
			<point x="144.08204" y="217.31379" type="curve"/>
			<point x="147.96317" y="223.23062"/>
			<point x="152.85877" y="228.2069"/>
			<point x="158.52817" y="232.23612" type="curve" smooth="yes"/>
			<point x="184.15315" y="250.44768"/>
			<point x="188.93473" y="250.93296"/>
			<point x="157.83476" y="259.05261" type="curve" smooth="yes"/>
			<point x="29.249851" y="292.62382" type="line"/>
			<point x="5.7971294" y="253.25102"/>
			<point x="-2.8510884" y="205.28988"/>
			<point x="5.372514" y="160.2053" type="curve" smooth="yes"/>
			<point x="13.596116" y="115.12071"/>
			<point x="38.620597" y="73.3016"/>
			<point x="74.46397" y="44.74464" type="curve" smooth="yes"/>
			<point x="104.12423" y="21.11386"/>
			<point x="140.52045" y="6.68484"/>
			<point x="177.92338" y="0.42664" type="curve" smooth="yes"/>
			<point x="215.32631" y="-5.83157"/>
			<point x="253.75805" y="-4.15787"/>
			<point x="291.15093" y="2.16015" type="curve" smooth="yes"/>
			<point x="347.24191" y="11.63746"/>
			<point x="402.8037" y="32.34394"/>
			<point x="445.05928" y="70.42915" type="curve" smooth="yes"/>
			<point x="466.18707" y="89.47176"/>
			<point x="483.70437" y="112.71324"/>
			<point x="494.95408" y="138.83695" type="curve" smooth="yes"/>
			<point x="506.2038" y="164.96066"/>
			<point x="511.05978" y="193.99193"/>
			<point x="507.58805" y="222.22226" type="curve" smooth="yes"/>
			<point x="501.88634" y="268.58564"/>
			<point x="473.60995" y="310.67478"/>
			<point x="435.51986" y="337.71582" type="curve" smooth="yes"/>
			<point x="398.99725" y="363.64407"/>
			<point x="354.90907" y="376.29506"/>
			<point x="311.49546" y="387.31479" type="curve" smooth="yes"/>
			<point x="268.08186" y="398.33451"/>
			<point x="223.72119" y="408.42332"/>
			<point x="184.60445" y="430.24203" type="curve" smooth="yes"/>
			<point x="162.03733" y="442.82962"/>
			<point x="140.94903" y="459.96637"/>
			<point x="129.70622" y="483.23269" type="curve" smooth="yes"/>
			<point x="122.55047" y="498.04109"/>
			<point x="119.72145" y="514.82387"/>
			<point x="121.02129" y="531.21912" type="curve" smooth="yes"/>
			<point x="122.32113" y="547.61436"/>
			<point x="127.68866" y="563.60357"/>
			<point x="136.02008" y="577.78388" type="curve" smooth="yes"/>
			<point x="152.68291" y="606.14449"/>
			<point x="180.76557" y="626.66514"/>
			<point x="211.4695" y="638.46526" type="curve" smooth="yes"/>
			<point x="245.1744" y="651.41871"/>
			<point x="283.82583" y="654.31019"/>
			<point x="317.17343" y="640.46281" type="curve" smooth="yes"/>
			<point x="333.84723" y="633.53912"/>
			<point x="348.90648" y="622.50095"/>
			<point x="359.88082" y="608.16508" type="curve" smooth="yes"/>
			<point x="370.85515" y="593.82921"/>
			<point x="377.62734" y="576.16952"/>
			<point x="378.23664" y="558.12563" type="curve" smooth="yes"/>
			<point x="378.96811" y="536.46374"/>
			<point x="370.81209" y="515.00054"/>
			<point x="357.60488" y="497.81502" type="curve" smooth="yes"/>
			<point x="351.14168" y="489.40495"/>
			<point x="343.47039" y="481.93176"/>
			<point x="334.92289" y="475.65217" type="curve" smooth="yes"/>
			<point x="323.30535" y="467.11713"/>
			<point x="323.63799" y="460.00346"/>
			<point x="337.69043" y="456.64506" type="curve" smooth="yes"/>
			<point x="420.89073" y="436.76103" type="line" smooth="yes"/>
			<point x="433.71739" y="433.69558"/>
			<point x="449.4938" y="440.51929"/>
			<point x="454.28336" y="452.79556" type="curve" smooth="yes"/>
			<point x="469.19984" y="491.02841"/>
			<point x="470.83233" y="534.44737"/>
			<point x="458.23792" y="573.549" type="curve" smooth="yes"/>
			<point x="443.20156" y="620.23213"/>
			<point x="408.10698" y="660.07682"/>
			<point x="363.69604" y="680.88729" type="curve"/>
		</contour>
	</outline>
</glyph>
<glyph name="percent" format="2">
	<unicode hex="0025"/>
	<advance height="1000" width="443"/>
	<outline>
		<contour>
			<point x="334.72689" y="623.74426" type="curve" smooth="yes"/>
			<point x="426.5032" y="595.07136" type="line" smooth="yes"/>
			<point x="437.10738" y="591.75839"/>
			<point x="440.02311" y="582.08368"/>
			<point x="433.11782" y="573.38078" type="curve" smooth="yes"/>
			<point x="381.14201" y="507.87441"/>
			<point x="333.46836" y="438.95476"/>
			<point x="290.50933" y="367.21146" type="curve" smooth="yes"/>
			<point x="218.40194" y="246.78924"/>
			<point x="159.61794" y="118.39651"/>
			<point x="115.55654" y="-14.86805" type="curve" smooth="yes"/>
			<point x="112.06904" y="-25.41607"/>
			<point x="101.19274" y="-30.16756"/>
			<point x="91.139155" y="-25.44001" type="curve" smooth="yes"/>
			<point x="9.6405903" y="12.8835" type="line" smooth="yes"/>
			<point x="-0.41299986" y="17.61105"/>
			<point x="-3.1010084" y="28.60459"/>
			<point x="3.5437529" y="37.50799" type="curve" smooth="yes"/>
			<point x="64.398684" y="119.04836"/>
			<point x="119.45801" y="204.91358"/>
			<point x="168.16455" y="294.24355" type="curve" smooth="yes"/>
			<point x="223.49774" y="395.7271"/>
			<point x="270.62645" y="501.68232"/>
			<point x="308.94653" y="610.73374" type="curve" smooth="yes"/>
			<point x="312.62961" y="621.21508"/>
			<point x="324.12271" y="627.05723"/>
		</contour>
		<contour>
			<point x="393.57388" y="192.36603" type="curve" smooth="yes"/>
			<point x="393.57388" y="169.64526"/>
			<point x="384.22058" y="147.06441"/>
			<point x="368.15457" y="130.9984" type="curve" smooth="yes"/>
			<point x="352.08856" y="114.93239"/>
			<point x="329.50771" y="105.57909"/>
			<point x="306.78694" y="105.57909" type="curve" smooth="yes"/>
			<point x="284.06617" y="105.57909"/>
			<point x="261.48532" y="114.93239"/>
			<point x="245.41931" y="130.9984" type="curve" smooth="yes"/>
			<point x="229.3533" y="147.06441"/>
			<point x="220" y="169.64526"/>
			<point x="220" y="192.36603" type="curve" smooth="yes"/>
			<point x="220" y="215.0868"/>
			<point x="229.3533" y="237.66765"/>
			<point x="245.41931" y="253.73366" type="curve" smooth="yes"/>
			<point x="261.48532" y="269.79967"/>
			<point x="284.06617" y="279.15297"/>
			<point x="306.78694" y="279.15297" type="curve" smooth="yes"/>
			<point x="329.50771" y="279.15297"/>
			<point x="352.08856" y="269.79967"/>
			<point x="368.15457" y="253.73366" type="curve" smooth="yes"/>
			<point x="384.22058" y="237.66765"/>
			<point x="393.57388" y="215.0868"/>
		</contour>
		<contour>
			<point x="213.57388" y="446.98895" type="curve" smooth="yes"/>
			<point x="213.57388" y="424.26818"/>
			<point x="204.22058" y="401.68733"/>
			<point x="188.15457" y="385.62132" type="curve" smooth="yes"/>
			<point x="172.08856" y="369.55531"/>
			<point x="149.50771" y="360.20201"/>
			<point x="126.78694" y="360.20201" type="curve" smooth="yes"/>
			<point x="104.06617" y="360.20201"/>
			<point x="81.485313" y="369.55531"/>
			<point x="65.419303" y="385.62131" type="curve" smooth="yes"/>
			<point x="49.353292" y="401.68732"/>
			<point x="39.999994" y="424.26818"/>
			<point x="39.999994" y="446.98895" type="curve" smooth="yes"/>
			<point x="39.999994" y="469.70972"/>
			<point x="49.353292" y="492.29058"/>
			<point x="65.419303" y="508.35659" type="curve" smooth="yes"/>
			<point x="81.485313" y="524.42259"/>
			<point x="104.06617" y="533.77589"/>
			<point x="126.78694" y="533.77589" type="curve" smooth="yes"/>
			<point x="149.50771" y="533.77589"/>
			<point x="172.08856" y="524.42259"/>
			<point x="188.15457" y="508.35658" type="curve" smooth="yes"/>
			<point x="204.22058" y="492.29057"/>
			<point x="213.57388" y="469.70972"/>
		</contour>
	</outline>
</glyph>
<glyph name="ampersand" format="2">
	<unicode hex="0026"/>
	<advance height="1000" width="525"/>
	<outline>
		<contour>
			<point x="291.02815" y="574.30494" type="line"/>
			<point x="321.52788" y="600.80937" type="line" smooth="yes"/>
			<point x="332.37792" y="610.23812"/>
			<point x="343.68127" y="629.38844"/>
			<point x="343.75645" y="643.7411" type="curve" smooth="yes"/>
			<point x="343.87843" y="667.02833"/>
			<point x="338.17909" y="690.35995"/>
			<point x="327.09533" y="710.850785" type="curve" smooth="yes"/>
			<point x="311.8823" y="738.975524"/>
			<point x="286.63865" y="761.539464"/>
			<point x="256.98998" y="773.514177" type="curve" smooth="yes"/>
			<point x="227.34131" y="785.48889"/>
			<point x="193.508" y="786.78537"/>
			<point x="163.02989" y="777.114691" type="curve" smooth="yes"/>
			<point x="132.55178" y="767.444013"/>
			<point x="105.6554" y="746.878059"/>
			<point x="88.334681" y="720" type="curve" smooth="yes"/>
			<point x="66.168991" y="685.60358"/>
			<point x="60.251839" y="642.23421"/>
			<point x="67.320603" y="601.92956" type="curve" smooth="yes"/>
			<point x="74.389367" y="561.62492"/>
			<point x="93.648569" y="524.19456"/>
			<point x="118.18257" y="491.4453" type="curve" smooth="yes"/>
			<point x="127.46467" y="479.05507"/>
			<point x="137.52349" y="467.2468"/>
			<point x="148.28037" y="456.11286" type="curve"/>
			<point x="88.497016" y="425.59122"/>
			<point x="42.977496" y="368.3899"/>
			<point x="26.659226" y="303.27973" type="curve" smooth="yes"/>
			<point x="17.054649" y="264.95731"/>
			<point x="17.273309" y="224.2535"/>
			<point x="26.987166" y="185.95863" type="curve" smooth="yes"/>
			<point x="36.701023" y="147.66376"/>
			<point x="55.863707" y="111.83999"/>
			<point x="82.093589" y="82.29596" type="curve" smooth="yes"/>
			<point x="134.55335" y="23.20792"/>
			<point x="215.38297" y="-8.80459"/>
			<point x="294.2493" y="-3.95419" type="curve" smooth="yes"/>
			<point x="348.07502" y="-0.64382"/>
			<point x="401.16002" y="19.40221"/>
			<point x="442.03449" y="54.57954" type="curve" smooth="yes"/>
			<point x="482.90896" y="89.75686"/>
			<point x="510.93193" y="140.21739"/>
			<point x="516.57398" y="193.84885" type="curve" smooth="yes"/>
			<point x="520.25521" y="228.84139"/>
			<point x="514.49489" y="264.78213"/>
			<point x="500.06228" y="296.87152" type="curve" smooth="yes"/>
			<point x="485.62966" y="328.96091"/>
			<point x="462.56149" y="357.11722"/>
			<point x="433.93832" y="377.58044" type="curve"/>
			<point x="452.52753" y="386.50619"/>
			<point x="469.29782" y="399.19986"/>
			<point x="482.93562" y="414.66719" type="curve" smooth="yes"/>
			<point x="500.24756" y="434.30155"/>
			<point x="512.30437" y="458.45843"/>
			<point x="517.93341" y="484.01169" type="curve" smooth="yes"/>
			<point x="521.94368" y="502.21647"/>
			<point x="509.28174" y="526.46782"/>
			<point x="494.16554" y="537.44152" type="curve" smooth="yes"/>
			<point x="445.65963" y="572.65471" type="line" smooth="yes"/>
			<point x="428.98505" y="584.75973"/>
			<point x="423.39929" y="579.3581"/>
			<point x="426.39672" y="559.05408" type="curve" smooth="yes"/>
			<point x="429.63144" y="537.14271"/>
			<point x="427.05853" y="514.34977"/>
			<point x="418.57911" y="493.87568" type="curve" smooth="yes"/>
			<point x="405.02737" y="461.15416"/>
			<point x="378.15327" y="436.00889"/>
			<point x="350.9931" y="413.27845" type="curve" smooth="yes"/>
			<point x="323.83293" y="390.54801"/>
			<point x="295.09172" y="368.58657"/>
			<point x="275.56147" y="339.0414" type="curve" smooth="yes"/>
			<point x="251.6541" y="302.87456"/>
			<point x="244.07616" y="256.55488"/>
			<point x="254.19614" y="214.48527" type="curve" smooth="yes"/>
			<point x="257.27487" y="201.68675"/>
			<point x="272.2056" y="190.78832"/>
			<point x="285.32132" y="189.51468" type="curve" smooth="yes"/>
			<point x="347.08186" y="183.51728" type="line" smooth="yes"/>
			<point x="369.81415" y="181.3098"/>
			<point x="370.70882" y="188.15011"/>
			<point x="357.20555" y="206.34033" type="curve" smooth="yes"/>
			<point x="353.27436" y="211.63603"/>
			<point x="349.90088" y="217.34391"/>
			<point x="347.18594" y="223.35628" type="curve" smooth="yes"/>
			<point x="338.79671" y="241.93472"/>
			<point x="336.74657" y="263.30757"/>
			<point x="341.45114" y="283.142" type="curve" smooth="yes"/>
			<point x="346.787" y="305.63795"/>
			<point x="360.84489" y="325.94617"/>
			<point x="380.02145" y="338.86122" type="curve"/>
			<point x="411.13003" y="325.62423"/>
			<point x="436.07478" y="298.61292"/>
			<point x="446.79917" y="266.55128" type="curve" smooth="yes"/>
			<point x="457.52356" y="234.48964"/>
			<point x="453.85086" y="197.906"/>
			<point x="436.96726" y="168.61597" type="curve" smooth="yes"/>
			<point x="421.57399" y="141.91139"/>
			<point x="395.96209" y="121.80632"/>
			<point x="367.29099" y="110.49017" type="curve" smooth="yes"/>
			<point x="338.61988" y="99.17402"/>
			<point x="307.04725" y="96.28962"/>
			<point x="276.37133" y="99.30217" type="curve" smooth="yes"/>
			<point x="232.40116" y="103.62029"/>
			<point x="189.02635" y="120.43487"/>
			<point x="156.62" y="150.4657" type="curve" smooth="yes"/>
			<point x="124.21365" y="180.49653"/>
			<point x="103.76619" y="224.30174"/>
			<point x="106.0073" y="268.42656" type="curve" smooth="yes"/>
			<point x="107.90331" y="305.75688"/>
			<point x="126.20525" y="341.96117"/>
			<point x="155.14148" y="365.62217" type="curve" smooth="yes"/>
			<point x="178.5949" y="384.7999"/>
			<point x="208.73704" y="395.49419"/>
			<point x="238.99936" y="395.90036" type="curve" smooth="yes"/>
			<point x="250.71083" y="396.05755"/>
			<point x="259.8976" y="403.97716"/>
			<point x="259.57536" y="415.69815" type="curve" smooth="yes"/>
			<point x="258.19182" y="466.02185" type="line" smooth="yes"/>
			<point x="257.74765" y="482.17794"/>
			<point x="244.30314" y="492.42346"/>
			<point x="228.25181" y="493.81407" type="curve" smooth="yes"/>
			<point x="217.41848" y="494.75262"/>
			<point x="206.72635" y="497.32693"/>
			<point x="196.67834" y="501.48555" type="curve" smooth="yes"/>
			<point x="177.61559" y="509.37515"/>
			<point x="160.94241" y="522.93761"/>
			<point x="149.3367" y="539.99463" type="curve" smooth="yes"/>
			<point x="135.4072" y="560.46695"/>
			<point x="128.94598" y="586.46533"/>
			<point x="134.24244" y="610.65405" type="curve" smooth="yes"/>
			<point x="136.89067" y="622.74841"/>
			<point x="142.41902" y="634.24375"/>
			<point x="150.47894" y="643.64186" type="curve" smooth="yes"/>
			<point x="158.53885" y="653.03997"/>
			<point x="169.14154" y="660.29572"/>
			<point x="180.9297" y="664.08069" type="curve" smooth="yes"/>
			<point x="194.31029" y="668.37696"/>
			<point x="209.04198" y="668.11668"/>
			<point x="222.40453" y="663.76465" type="curve" smooth="yes"/>
			<point x="235.76709" y="659.41263"/>
			<point x="247.73026" y="651.04443"/>
			<point x="256.74481" y="640.26316" type="curve" smooth="yes"/>
			<point x="266.61791" y="628.45507"/>
			<point x="272.97688" y="613.74511"/>
			<point x="274.81447" y="598.46334" type="curve" smooth="yes"/>
			<point x="275.39398" y="593.64396"/>
			<point x="275.52315" y="588.77322"/>
			<point x="275.21534" y="583.92962" type="curve" smooth="yes"/>
			<point x="274.11526" y="566.61926"/>
			<point x="277.85122" y="562.85411"/>
			<point x="291.02815" y="574.30494" type="curve"/>
		</contour>
	</outline>
</glyph>
<glyph name="quotesingle" format="2">
	<unicode hex="0027"/>
	<advance height="1000" width="180"/>
	<outline>
		<contour>
			<point x="46.237698" y="928.87968" type="line"/>
			<point x="105.48551" y="929.33108" type="line" smooth="yes"/>
			<point x="130.425843706" y="929.5211013361"/>
			<point x="151.4544651328" y="910.7860026031"/>
			<point x="154.13322" y="885.989216" type="curve" smooth="yes"/>
			<point x="173.14835" y="709.969274" type="line" smooth="yes"/>
			<point x="174.3640190106" y="698.7160423981"/>
			<point x="170.8221612499" y="687.4667355231"/>
			<point x="163.3786963191" y="678.9398426275" type="curve" smooth="yes"/>
			<point x="155.9352313882" y="670.4129497319"/>
			<point x="145.2673517885" y="665.3842315642"/>
			<point x="133.95304" y="665.06892" type="curve" smooth="yes"/>
			<point x="113.1251" y="664.48849" type="line" smooth="yes"/>
			<point x="87.4639465141" y="663.7733563358"/>
			<point x="64.7462675596" y="680.9698644044"/>
			<point x="58.468624" y="705.861578" type="curve" smooth="yes"/>
			<point x="13.051155" y="885.948102" type="line" smooth="yes"/>
			<point x="10.4616748413" y="896.2157490329"/>
			<point x="12.7313262912" y="907.1038435571"/>
			<point x="19.2075157528" y="915.4817283224" type="curve" smooth="yes"/>
			<point x="25.6837052144" y="923.8596130878"/>
			<point x="35.6488607324" y="928.7990053149"/>
			<point x="46.237698" y="928.87968" type="curve"/>
		</contour>
	</outline>
</glyph>
<glyph name="parenleft" format="2">
	<unicode hex="0028"/>
	<advance height="1000" width="258"/>
	<outline>
		<contour>
			<point x="259.83608" y="700" type="curve"/>
			<point x="180.96157" y="800.6678909" type="line"/>
			<point x="150.33938" y="769.646163"/>
			<point x="122.98102" y="735.404613"/>
			<point x="99.483466" y="698.69043" type="curve" smooth="yes"/>
			<point x="42.356764" y="609.43175"/>
			<point x="8.5045988" y="505.35074"/>
			<point x="2.6482887" y="399.53829" type="curve" smooth="yes"/>
			<point x="-5.0445277" y="260.54364"/>
			<point x="35.229567" y="121.71547"/>
			<point x="101.03589" y="-0.95571" type="curve" smooth="yes"/>
			<point x="124.02624" y="-43.81259"/>
			<point x="150.12287" y="-85.00271"/>
			<point x="179.05338" y="-124.09611" type="curve"/>
			<point x="258.82232" y="-23.99335" type="line"/>
			<point x="228.66479" y="-3.18268"/>
			<point x="201.29055" y="21.65602"/>
			<point x="177.65569" y="49.6552" type="curve" smooth="yes"/>
			<point x="97.062998" y="145.12985"/>
			<point x="63.387955" y="275.02206"/>
			<point x="71.972548" y="399.66914" type="curve" smooth="yes"/>
			<point x="75.167622" y="446.06117"/>
			<point x="83.929934" y="492.3155"/>
			<point x="101.11803" y="535.52428" type="curve" smooth="yes"/>
			<point x="118.30612" y="578.73306"/>
			<point x="144.12952" y="618.87513"/>
			<point x="178.64559" y="650.03712" type="curve" smooth="yes"/>
			<point x="202.36409" y="671.45078"/>
			<point x="230.03132" y="688.47661"/>
		</contour>
	</outline>
</glyph>
<glyph name="asterisk" format="2">
	<unicode hex="002A"/>
	<advance height="1000" width="644"/>
	<outline>
		<contour>
			<point x="229.59548" y="679.71197" type="line"/>
			<point x="420.67308" y="678.65488" type="line"/>
			<point x="371.53904" y="430.05637" type="line"/>
			<point x="644.75995" y="482.69938" type="line"/>
			<point x="644.39716" y="313.89201" type="line"/>
			<point x="399.28497" y="324.19622" type="line"/>
			<point x="641.98776" y="116.36507" type="line"/>
			<point x="512.0786" y="0" type="line"/>
			<point x="325.18003" y="282.50224" type="line"/>
			<point x="157.74823" y="0" type="line"/>
			<point x="17.900904" y="135.7142" type="line"/>
			<point x="246.25019" y="331.27044" type="line"/>
			<point x="5.1665499" y="320.0297" type="line"/>
			<point x="21.682167" y="514.33623" type="line"/>
			<point x="282.7304" y="430.75852" type="line"/>
		</contour>
	</outline>
</glyph>
<glyph name="plus" format="2">
  <advance height="1000" width="527"/>
  <unicode hex="002B"/>
  <outline>
    <contour>
      <point x="18.568487" y="346.00403" type="line"/>
      <point x="529.174" y="348.48623" type="line"/>
      <point x="512.65048" y="247.24422000000004" type="line"/>
      <point x="-1.137741" y="242.04814999999996" type="line"/>
    </contour>
    <contour>
      <point x="213.19121" y="600.0" type="line"/>
      <point x="325.84741" y="600.0" type="line"/>
      <point x="324.17361000000005" y="0.0" type="line"/>
      <point x="213.15909" y="0.0" type="line"/>
    </contour>
  </outline>
</glyph>
<glyph name="comma" format="2">
	<unicode hex="002C"/>
	<advance height="1024" width="205"/>
	<outline>
		<contour>
			<point x="40.568018" y="103.73106" type="curve" smooth="yes"/>
			<point x="170.15084" y="137.084" type="line" smooth="yes"/>
			<point x="178.40018" y="139.20728"/>
			<point x="185.63994" y="134.04068"/>
			<point x="185.87585" y="125.52652" type="curve" smooth="yes"/>
			<point x="187.52407" y="66.0417"/>
			<point x="173.09485" y="6.14958"/>
			<point x="144.36838" y="-45.97846" type="curve" smooth="yes"/>
			<point x="131.16507" y="-69.93764"/>
			<point x="115.01182" y="-92.26814"/>
			<point x="96.401756" y="-112.31838" type="curve" smooth="yes"/>
			<point x="90.897063" y="-118.24906"/>
			<point x="79.643974" y="-122.66102"/>
			<point x="71.554559" y="-122.44533" type="curve" smooth="yes"/>
			<point x="19.038587" y="-121.04509" type="line" smooth="yes"/>
			<point x="-0.23520904" y="-120.53119"/>
			<point x="-3.2532021" y="-110.52712"/>
			<point x="8.9461018" y="-95.64371" type="curve" smooth="yes"/>
			<point x="29.980928" y="-69.98079"/>
			<point x="43.439962" y="-38.06248"/>
			<point x="46.550943" y="-5.00206" type="curve" smooth="yes"/>
			<point x="49.347751" y="24.71964"/>
			<point x="43.895665" y="55.145"/>
			<point x="31.171106" y="82.13747" type="curve" smooth="yes"/>
			<point x="26.661355" y="91.70396"/>
			<point x="30.31983" y="101.09331"/>
		</contour>
	</outline>
</glyph>
<glyph name="slash" format="2">
	<unicode hex="002F"/>
	<advance height="1000" width="297"/>
	<outline>
		<contour>
			<point x="166.86529" y="700" type="line"/>
			<point x="295.32638" y="700" type="line"/>
			<point x="130.91787" y="0" type="line"/>
			<point x="4" y="0" type="line"/>
		</contour>
	</outline>
</glyph>
<glyph name="zero" format="2">
  <advance height="1000" width="517"/>
  <unicode hex="0030"/>
  <outline>
    <contour>
      <point x="275.42555" y="137.54456000000005" type="curve" smooth="yes"/>
      <point x="298.83838" y="140.71289000000002"/>
      <point x="321.20279" y="150.4081000000001"/>
      <point x="340.1693" y="164.49605000000008" type="curve" smooth="yes"/>
      <point x="359.13581" y="178.58400000000006"/>
      <point x="374.74462" y="196.98224000000005"/>
      <point x="386.49387" y="217.47991000000013" type="curve" smooth="yes"/>
      <point x="409.99236" y="258.4752300000001"/>
      <point x="417.79245000000003" y="306.9507800000001"/>
      <point x="416.67231000000004" y="354.18997000000013" type="curve" smooth="yes"/>
      <point x="415.58590000000004" y="400.00645000000014"/>
      <point x="406.05498000000006" y="446.6376100000001"/>
      <point x="381.60811" y="485.40204000000017" type="curve" smooth="yes"/>
      <point x="369.38467" y="504.78425000000016"/>
      <point x="353.50278000000003" y="521.9755000000002"/>
      <point x="334.52793" y="534.8221900000001" type="curve" smooth="yes"/>
      <point x="315.55307000000005" y="547.6688800000002"/>
      <point x="293.44757000000004" y="556.0863900000002"/>
      <point x="270.61851" y="558.0654100000002" type="curve" smooth="yes"/>
      <point x="247.13421000000002" y="560.1012300000002"/>
      <point x="223.22921000000002" y="555.2840700000002"/>
      <point x="201.9006" y="545.2467800000002" type="curve" smooth="yes"/>
      <point x="180.57199" y="535.2094800000002"/>
      <point x="161.80018" y="520.0511500000001"/>
      <point x="146.66968" y="501.97563000000014" type="curve" smooth="yes"/>
      <point x="116.40867" y="465.82458000000014"/>
      <point x="101.19355999999999" y="418.93997000000013"/>
      <point x="96.209738" y="372.0593900000001" type="curve" smooth="yes"/>
      <point x="90.21383" y="315.6585500000001"/>
      <point x="98.968706" y="256.0197800000001"/>
      <point x="130.58812" y="208.93243000000007" type="curve" smooth="yes"/>
      <point x="146.39783" y="185.38876000000005"/>
      <point x="167.76656" y="165.39822000000004"/>
      <point x="192.99202" y="152.43951000000004" type="curve" smooth="yes"/>
      <point x="218.21747" y="139.48081000000002"/>
      <point x="247.32238" y="133.74151000000006"/>
    </contour>
    <contour>
      <point x="12.868168" y="380.38119" type="curve" smooth="yes"/>
      <point x="19.635627" y="458.66748"/>
      <point x="40.401195" y="538.04157"/>
      <point x="88.300659" y="600.33268" type="curve" smooth="yes"/>
      <point x="112.25039" y="631.47824"/>
      <point x="142.81534" y="657.8334"/>
      <point x="178.20382999999998" y="674.90062" type="curve" smooth="yes"/>
      <point x="213.59232999999998" y="691.96783"/>
      <point x="253.86786999999998" y="699.49369"/>
      <point x="292.78693999999996" y="694.11397" type="curve" smooth="yes"/>
      <point x="329.56654999999995" y="689.02998"/>
      <point x="364.39748" y="672.55544"/>
      <point x="393.09601" y="648.99741" type="curve" smooth="yes"/>
      <point x="421.79454" y="625.43937"/>
      <point x="444.47857" y="594.97723"/>
      <point x="460.85020999999995" y="561.6522199999999" type="curve" smooth="yes"/>
      <point x="493.59349" y="495.00221"/>
      <point x="500.93805999999995" y="418.61942999999997"/>
      <point x="498.89888999999994" y="344.38878" type="curve" smooth="yes"/>
      <point x="496.8943299999999" y="271.41783999999996"/>
      <point x="485.7710399999999" y="196.96810000000005"/>
      <point x="451.0067399999999" y="132.77916000000005" type="curve" smooth="yes"/>
      <point x="433.6245899999999" y="100.68469000000005"/>
      <point x="410.38668999999993" y="71.54036000000008"/>
      <point x="381.63321999999994" y="49.058539999999994" type="curve" smooth="yes"/>
      <point x="352.8797399999999" y="26.576729999999998"/>
      <point x="318.50886999999994" y="10.913469999999961"/>
      <point x="282.3425699999999" y="5.994860000000017" type="curve" smooth="yes"/>
      <point x="238.5117699999999" y="0.03388000000006741"/>
      <point x="193.09521999999993" y="10.128810000000044"/>
      <point x="154.5027599999999" y="31.745779999999968" type="curve" smooth="yes"/>
      <point x="115.91029" y="53.36275999999998"/>
      <point x="84.048593" y="86.12017000000003"/>
      <point x="61.069386" y="123.91737999999998" type="curve" smooth="yes"/>
      <point x="15.110974" y="199.51178000000004"/>
      <point x="5.2489162" y="292.24132"/>
    </contour>
  </outline>
</glyph>
<glyph name="one" format="2">
	<unicode hex="0031"/>
	<advance height="1024" width="290"/>
	<outline>
		<contour>
			<point x="205.42035" y="669.62229" type="line"/>
			<point x="190.5151" y="632.54137"/>
			<point x="176.54989" y="595.08259"/>
			<point x="163.54267" y="557.29406" type="curve" smooth="yes"/>
			<point x="150.74304" y="520.10861"/>
			<point x="138.87113" y="482.60384"/>
			<point x="127.94149" y="444.82645" type="curve" smooth="yes"/>
			<point x="124.66419" y="433.49871"/>
			<point x="114.95177" y="430.63643"/>
			<point x="106.13392" y="438.46617" type="curve" smooth="yes"/>
			<point x="48.97656" y="489.21853" type="line" smooth="yes"/>
			<point x="40.158703" y="497.04827"/>
			<point x="39.437631" y="510.48453"/>
			<point x="46.78947" y="519.70258" type="curve" smooth="yes"/>
			<point x="67.088584" y="545.15449"/>
			<point x="84.097292" y="573.23102"/>
			<point x="97.22854" y="603.02145" type="curve" smooth="yes"/>
			<point x="114.55888" y="642.33822"/>
			<point x="125.1191" y="684.62867"/>
			<point x="128.306" y="727.477154" type="curve"/>
		</contour>
		<contour>
			<point x="241.78746" y="788.661124" type="line"/>
			<point x="244.3178" y="715.050512"/>
			<point x="246.39015" y="641.42416"/>
			<point x="248.00437" y="567.78776" type="curve" smooth="yes"/>
			<point x="249.75677" y="487.84754"/>
			<point x="250.96914" y="407.86794"/>
			<point x="248.92965" y="327.93453" type="curve" smooth="yes"/>
			<point x="247.04003" y="253.87468"/>
			<point x="242.36013" y="179.91086"/>
			<point x="236.6548" y="106.04693" type="curve" smooth="yes"/>
			<point x="234.47104" y="77.77491"/>
			<point x="232.13692" y="49.5145"/>
			<point x="229.65257" y="21.2673" type="curve" smooth="yes"/>
			<point x="228.61942" y="9.5203"/>
			<point x="218.19392" y="0"/>
			<point x="206.40157" y="0" type="curve" smooth="yes"/>
			<point x="105.29185" y="0" type="line" smooth="yes"/>
			<point x="93.499503" y="0"/>
			<point x="86.813674" y="9.11773"/>
			<point x="90.230196" y="20.40425" type="curve" smooth="yes"/>
			<point x="101.29166" y="56.94591"/>
			<point x="111.35377" y="93.79008"/>
			<point x="120.40121" y="130.88177" type="curve" smooth="yes"/>
			<point x="141.16968" y="216.02602"/>
			<point x="156.61527" y="302.73174"/>
			<point x="160.78973" y="390.27286" type="curve" smooth="yes"/>
			<point x="166.86434" y="517.6614"/>
			<point x="148.74865" y="646.15435"/>
			<point x="107.77943" y="766.923509" type="curve" smooth="yes"/>
			<point x="103.99117" y="778.090569"/>
			<point x="110.14131" y="788.611207"/>
			<point x="121.77931" y="790.5128364" type="curve" smooth="yes"/>
			<point x="219.96863" y="806.5567956" type="line" smooth="yes"/>
			<point x="231.60663" y="808.4584249"/>
			<point x="241.38234" y="800.44650541"/>
			<point x="241.78746" y="788.661124" type="curve"/>
		</contour>
	</outline>
</glyph>
<glyph name="two" format="2">
  <advance height="1000" width="479"/>
  <unicode hex="0032"/>
  <outline>
    <contour>
      <point x="88.932471" y="449.64693" type="line"/>
      <point x="11.641489" y="503.97238" type="line" smooth="yes"/>
      <point x="3.9714715" y="509.3634"/>
      <point x="-0.62693367" y="521.17152"/>
      <point x="2.1007809" y="530.13885" type="curve" smooth="yes"/>
      <point x="17.29591" y="580.09268"/>
      <point x="49.081206" y="624.94047"/>
      <point x="91.420306" y="655.54328" type="curve" smooth="yes"/>
      <point x="138.3467" y="689.4618"/>
      <point x="197.8222" y="705.580976"/>
      <point x="255.45383" y="700.0" type="curve" smooth="yes"/>
      <point x="305.92199" y="695.11273"/>
      <point x="354.8085" y="673.66144"/>
      <point x="391.87761" y="639.06661" type="curve" smooth="yes"/>
      <point x="428.94671" y="604.47178"/>
      <point x="453.82042" y="556.8251399999999"/>
      <point x="459.99544000000003" y="506.49831" type="curve" smooth="yes"/>
      <point x="467.9678" y="441.52301"/>
      <point x="443.88884" y="373.67724"/>
      <point x="397.76812" y="327.22051999999996" type="curve" smooth="yes"/>
      <point x="355.51892" y="284.66351999999995"/>
      <point x="298.28282" y="260.9459499999999"/>
      <point x="249.46855000000002" y="226.11406" type="curve" smooth="yes"/>
      <point x="210.71287" y="198.45956999999999"/>
      <point x="177.14751" y="163.55677000000003"/>
      <point x="151.02762" y="123.75067999999999" type="curve"/>
      <point x="221.06404000000003" y="98.48473000000001"/>
      <point x="299.38137" y="96.81190000000004"/>
      <point x="370.43276000000003" y="119.06425999999999" type="curve" smooth="yes"/>
      <point x="399.46927000000005" y="128.15810999999997"/>
      <point x="427.27962" y="141.14620000000002"/>
      <point x="452.91723" y="157.53143" type="curve" smooth="yes"/>
      <point x="468.04109" y="167.19722000000002"/>
      <point x="479.442" y="161.75406999999996"/>
      <point x="479.442" y="143.79854999999998" type="curve" smooth="yes"/>
      <point x="479.442" y="48.48542999999995" type="line" smooth="yes"/>
      <point x="479.442" y="36.42865999999992"/>
      <point x="470.75093" y="22.132019999999898"/>
      <point x="459.55952" y="17.657479999999964" type="curve" smooth="yes"/>
      <point x="434.14423" y="7.4959499999999935"/>
      <point x="407.03003" y="1.5792500000000018"/>
      <point x="379.68692" y="0.2958099999999604" type="curve" smooth="yes"/>
      <point x="336.74258" y="-1.7199300000000903"/>
      <point x="294.15837" y="7.522839999999974"/>
      <point x="252.14394" y="16.636969999999906" type="curve" smooth="yes"/>
      <point x="210.12951999999999" y="25.75109999999995"/>
      <point x="167.49196" y="34.84158999999988"/>
      <point x="124.56324999999998" y="32.51667999999995" type="curve" smooth="yes"/>
      <point x="90.65359499999998" y="30.680219999999963"/>
      <point x="57.17797899999998" y="21.54903999999999"/>
      <point x="26.95114599999998" y="6.083889999999997" type="curve" smooth="yes"/>
      <point x="11.51982699999998" y="-1.8113399999999729"/>
      <point x="0.24195655999998067" y="4.059750000000008"/>
      <point x="0.5404251099999797" y="21.403320000000008" type="curve" smooth="yes"/>
      <point x="2.1422125" y="114.48087999999996" type="line" smooth="yes"/>
      <point x="2.3302089" y="125.40508"/>
      <point x="8.6272429" y="140.64156000000003"/>
      <point x="16.387893" y="148.33191" type="curve" smooth="yes"/>
      <point x="65.931302" y="197.42650000000003"/>
      <point x="120.9089" y="241.03548999999998"/>
      <point x="180.00103" y="278.08965" type="curve" smooth="yes"/>
      <point x="221.92291999999998" y="304.37708"/>
      <point x="266.48715" y="327.82787"/>
      <point x="301.27641" y="363.01568" type="curve" smooth="yes"/>
      <point x="318.67104" y="380.60958"/>
      <point x="333.43012" y="401.11627999999996"/>
      <point x="342.45582" y="424.15223" type="curve" smooth="yes"/>
      <point x="351.48153" y="447.18818"/>
      <point x="354.5599" y="472.86323"/>
      <point x="348.99909" y="496.97123999999997" type="curve" smooth="yes"/>
      <point x="343.29759" y="521.6892"/>
      <point x="328.50452" y="544.10921"/>
      <point x="308.35931000000005" y="559.52528" type="curve" smooth="yes"/>
      <point x="288.21410000000003" y="574.9413599999999"/>
      <point x="262.90569000000005" y="583.3371"/>
      <point x="237.53991000000005" y="583.5862199999999" type="curve" smooth="yes"/>
      <point x="199.92196000000004" y="583.95566"/>
      <point x="162.55262000000005" y="565.9218999999999"/>
      <point x="139.43553000000003" y="536.2428399999999" type="curve" smooth="yes"/>
      <point x="123.49133000000003" y="515.77275"/>
      <point x="114.57802000000002" y="490.08516"/>
      <point x="113.72067000000003" y="464.17767999999995" type="curve" smooth="yes"/>
      <point x="113.08399000000003" y="444.93852999999996"/>
      <point x="104.73649000000003" y="438.53878"/>
      <point x="88.93247100000002" y="449.64692999999994" type="curve"/>
    </contour>
  </outline>
</glyph>
<glyph name="three" format="2">
	<unicode hex="0033"/>
	<advance height="1000" width="653"/>
	<outline>
		<contour>
			<point x="45.072957" y="655.15938" type="line"/>
			<point x="72.530351" y="661.34392"/>
			<point x="99.991817" y="667.51039"/>
			<point x="127.45733" y="673.65877" type="curve" smooth="yes"/>
			<point x="244.19474" y="699.79141"/>
			<point x="364.76174" y="725.706781"/>
			<point x="482.47676" y="704.406273" type="curve" smooth="yes"/>
			<point x="508.65171" y="699.66992"/>
			<point x="534.60524" y="692.54429"/>
			<point x="558.28311" y="680.42325" type="curve" smooth="yes"/>
			<point x="581.96098" y="668.30221"/>
			<point x="603.3578" y="650.94594"/>
			<point x="617.66518" y="628.5214" type="curve" smooth="yes"/>
			<point x="638.45313" y="595.93959"/>
			<point x="642.71092" y="553.88656"/>
			<point x="631.0637" y="517.03476" type="curve" smooth="yes"/>
			<point x="622.88363" y="491.15301"/>
			<point x="607.43296" y="467.9689"/>
			<point x="588.74941" y="448.27871" type="curve" smooth="yes"/>
			<point x="570.06585" y="428.58853"/>
			<point x="548.17571" y="412.20584"/>
			<point x="525.56457" y="397.18868" type="curve" smooth="yes"/>
			<point x="503.18205" y="382.32336"/>
			<point x="479.97822" y="368.6948"/>
			<point x="456.0942" y="356.38592" type="curve"/>
			<point x="510.57994" y="365.74911"/>
			<point x="569.22491" y="345.80032"/>
			<point x="606.69986" y="305.15561" type="curve" smooth="yes"/>
			<point x="644.17481" y="264.51089"/>
			<point x="659.30671" y="204.4425"/>
			<point x="645.55997" y="150.89446" type="curve" smooth="yes"/>
			<point x="636.63575" y="116.13172"/>
			<point x="616.37293" y="84.72351"/>
			<point x="589.94948" y="60.43585" type="curve" smooth="yes"/>
			<point x="563.52602" y="36.14819"/>
			<point x="531.12695" y="18.80747"/>
			<point x="496.92665" y="7.92495" type="curve" smooth="yes"/>
			<point x="428.52605" y="-13.84008"/>
			<point x="354.65636" y="-9.9824"/>
			<point x="283.57394" y="0" type="curve" smooth="yes"/>
			<point x="186.69959" y="13.60447"/>
			<point x="91.371715" y="38.1907"/>
			<point x="0.00162687" y="73.13679" type="curve"/>
			<point x="77.516897" y="274.19679" type="line"/>
			<point x="145.4952" y="193.38316"/>
			<point x="237.13928" y="132.72144"/>
			<point x="338.08806" y="101.71761" type="curve" smooth="yes"/>
			<point x="370.07057" y="91.895"/>
			<point x="404.04374" y="84.9626"/>
			<point x="436.88932" y="91.32911" type="curve" smooth="yes"/>
			<point x="453.31211" y="94.51237"/>
			<point x="469.21205" y="101.08578"/>
			<point x="482.35538" y="111.4344" type="curve" smooth="yes"/>
			<point x="495.49872" y="121.78302"/>
			<point x="505.77528" y="136.01444"/>
			<point x="510.30815" y="152.11706" type="curve" smooth="yes"/>
			<point x="516.58937" y="174.43051"/>
			<point x="511.38554" y="199.07263"/>
			<point x="499.07981" y="218.71729" type="curve" smooth="yes"/>
			<point x="486.77408" y="238.36195"/>
			<point x="467.90617" y="253.30062"/>
			<point x="447.20455" y="263.7307" type="curve" smooth="yes"/>
			<point x="401.513" y="286.75144"/>
			<point x="345.50293" y="288.18591"/>
			<point x="298.69289" y="267.53423" type="curve"/>
			<point x="297.55164" y="418.99871" type="line"/>
			<point x="339.7477" y="412.21307"/>
			<point x="384.12287" y="419.79972"/>
			<point x="421.66791" y="440.21839" type="curve" smooth="yes"/>
			<point x="439.45558" y="449.89212"/>
			<point x="456.02283" y="462.68187"/>
			<point x="466.97677" y="479.71107" type="curve" smooth="yes"/>
			<point x="472.45375" y="488.22567"/>
			<point x="476.45746" y="497.7373"/>
			<point x="478.25909" y="507.69972" type="curve" smooth="yes"/>
			<point x="480.06072" y="517.66213"/>
			<point x="479.62351" y="528.07722"/>
			<point x="476.54888" y="537.72306" type="curve" smooth="yes"/>
			<point x="473.61784" y="546.91842"/>
			<point x="468.33327" y="555.29652"/>
			<point x="461.63196" y="562.24189" type="curve" smooth="yes"/>
			<point x="454.93066" y="569.18726"/>
			<point x="446.83588" y="574.72234"/>
			<point x="438.12968" y="578.8874" type="curve" smooth="yes"/>
			<point x="420.71728" y="587.21752"/>
			<point x="401.15795" y="590.02858"/>
			<point x="381.8693" y="590.75706" type="curve" smooth="yes"/>
			<point x="312.04952" y="593.39396"/>
			<point x="242.99275" y="569.82496"/>
			<point x="183.42762" y="533.30442" type="curve" smooth="yes"/>
			<point x="147.78633" y="511.45205"/>
			<point x="115.00464" y="484.94174"/>
			<point x="86.179596" y="454.66066" type="curve"/>
		</contour>
	</outline>
</glyph>
<glyph name="four" format="2">
	<unicode hex="0034"/>
	<advance height="1024" width="516"/>
	<outline>
		<contour>
			<point x="250.99823" y="435.83085" type="line"/>
			<point x="254.45896" y="384.9179"/>
			<point x="255.78865" y="333.86009"/>
			<point x="254.98108" y="282.83604" type="curve" smooth="yes"/>
			<point x="253.65154" y="198.83291"/>
			<point x="246.52241" y="114.9223"/>
			<point x="233.66815" y="31.89794" type="curve" smooth="yes"/>
			<point x="230.93679" y="14.25634"/>
			<point x="242.82351" y="1.59886"/>
			<point x="260.56625" y="3.57114" type="curve" smooth="yes"/>
			<point x="334.27635" y="11.76479" type="line" smooth="yes"/>
			<point x="352.01909" y="13.73707"/>
			<point x="362.4017" y="29.25272"/>
			<point x="358.31957" y="46.63026" type="curve" smooth="yes"/>
			<point x="344.07355" y="107.27517"/>
			<point x="337.54098" y="169.73175"/>
			<point x="338.9735" y="232.01206" type="curve" smooth="yes"/>
			<point x="340.73893" y="308.76598"/>
			<point x="354.6389" y="385.2227"/>
			<point x="379.92378" y="457.71097" type="curve" smooth="yes"/>
			<point x="385.8029" y="474.5656"/>
			<point x="376.90738" y="485.98521"/>
			<point x="359.22687" y="483.51658" type="curve" smooth="yes"/>
			<point x="280.53457" y="472.52918" type="line" smooth="yes"/>
			<point x="262.85406" y="470.06055"/>
			<point x="249.78758" y="453.64154"/>
			<point x="250.99823" y="435.83085" type="curve"/>
		</contour>
		<contour>
			<point x="256.83897" y="763.537953" type="line"/>
			<point x="150.93313" y="791.6946881" type="line" smooth="yes"/>
			<point x="133.68045" y="796.2815852"/>
			<point x="124.68754" y="786.388457"/>
			<point x="129.35597" y="769.162359" type="curve" smooth="yes"/>
			<point x="142.70797" y="719.89461"/>
			<point x="147.00298" y="668.17089"/>
			<point x="141.8297" y="617.38439" type="curve" smooth="yes"/>
			<point x="132.7691" y="528.4358"/>
			<point x="95.412865" y="444.7152"/>
			<point x="50.978101" y="367.12978" type="curve" smooth="yes"/>
			<point x="41.135552" y="349.94417"/>
			<point x="30.922254" y="332.97091"/>
			<point x="20.347887" y="316.22565" type="curve" smooth="yes"/>
			<point x="10.816273" y="301.13167"/>
			<point x="8.4843554" y="275.80401"/>
			<point x="15.53347" y="259.40265" type="curve" smooth="yes"/>
			<point x="32.07887" y="220.90603" type="line" smooth="yes"/>
			<point x="39.127984" y="204.50467"/>
			<point x="58.176229" y="196.9349"/>
			<point x="75.226026" y="202.20357" type="curve" smooth="yes"/>
			<point x="94.195282" y="208.06538"/>
			<point x="113.6768" y="212.2703"/>
			<point x="133.37698" y="214.7403" type="curve" smooth="yes"/>
			<point x="225.57688" y="226.30028"/>
			<point x="319.84327" y="199.90405"/>
			<point x="411.55992" y="214.8208" type="curve" smooth="yes"/>
			<point x="434.29223" y="218.51797"/>
			<point x="456.60922" y="224.75068"/>
			<point x="477.97813" y="233.34027" type="curve" smooth="yes"/>
			<point x="494.53464" y="239.99543"/>
			<point x="506.15532" y="261.35239"/>
			<point x="504.75216" y="279.14918" type="curve" smooth="yes"/>
			<point x="498.64028" y="356.66873" type="line" smooth="yes"/>
			<point x="497.23712" y="374.46552"/>
			<point x="484.20775" y="380.61933"/>
			<point x="468.92502" y="371.39748" type="curve" smooth="yes"/>
			<point x="412.6656" y="337.44966"/>
			<point x="350.40524" y="313.45016"/>
			<point x="285.88973" y="300.96579" type="curve" smooth="yes"/>
			<point x="212.74937" y="286.81243"/>
			<point x="136.77662" y="287.46103"/>
			<point x="63.888574" y="302.8611" type="curve"/>
			<point x="75.826538" y="221.11556" type="line"/>
			<point x="116.79417" y="275.3828"/>
			<point x="151.1711" y="334.6207"/>
			<point x="177.96239" y="397.11476" type="curve" smooth="yes"/>
			<point x="205.05368" y="460.30862"/>
			<point x="224.31205" y="526.53262"/>
			<point x="243.04362" y="592.68797" type="curve" smooth="yes"/>
			<point x="255.42532" y="636.41712"/>
			<point x="267.60745" y="680.20277"/>
			<point x="279.58951" y="724.043103" type="curve" smooth="yes"/>
			<point x="284.29605" y="741.263527"/>
			<point x="274.09165" y="758.951056"/>
			<point x="256.83897" y="763.537953" type="curve"/>
		</contour>
	</outline>
</glyph>
<glyph name="five" format="2">
  <advance height="1000" width="548"/>
  <unicode hex="0035"/>
  <outline>
    <contour>
      <point x="527.0213" y="673.12517" type="line"/>
      <point x="528.96248" y="584.82754" type="line" smooth="yes"/>
      <point x="529.40422" y="564.73468"/>
      <point x="514.56554" y="554.34671"/>
      <point x="495.49544000000003" y="560.68574" type="curve" smooth="yes"/>
      <point x="443.32860000000005" y="578.02634"/>
      <point x="389.42366000000004" y="590.13871"/>
      <point x="334.84977000000003" y="596.7578599999999" type="curve" smooth="yes"/>
      <point x="269.08951" y="604.73377"/>
      <point x="202.36563000000004" y="604.73377"/>
      <point x="136.60537000000002" y="596.7578599999999" type="curve"/>
      <point x="134.93945000000002" y="446.1749" type="line"/>
      <point x="174.95865000000003" y="499.87721999999997"/>
      <point x="241.22167000000002" y="533.00873"/>
      <point x="308.19505000000004" y="532.8027" type="curve" smooth="yes"/>
      <point x="373.16902000000005" y="532.60282"/>
      <point x="436.57789" y="501.78588999999994"/>
      <point x="480.20113000000003" y="453.63334" type="curve" smooth="yes"/>
      <point x="523.82438" y="405.48078"/>
      <point x="548.01963" y="341.13640999999996"/>
      <point x="551.41926" y="276.25113999999996" type="curve" smooth="yes"/>
      <point x="554.20252" y="223.12992999999994"/>
      <point x="543.29953" y="168.95390999999995"/>
      <point x="517.5096" y="122.42984999999999" type="curve" smooth="yes"/>
      <point x="491.71966" y="75.90579000000002"/>
      <point x="450.73539" y="37.43106999999998"/>
      <point x="401.48652999999996" y="17.327350000000024" type="curve" smooth="yes"/>
      <point x="361.02524999999997" y="0.8107800000000225"/>
      <point x="316.12159999999994" y="-3.107529999999997"/>
      <point x="272.6768599999999" y="1.6324600000000373" type="curve" smooth="yes"/>
      <point x="229.23211999999992" y="6.372439999999983"/>
      <point x="187.06385999999992" y="19.498800000000074"/>
      <point x="146.60088999999994" y="36.01124000000004" type="curve" smooth="yes"/>
      <point x="102.81436" y="53.87999000000002"/>
      <point x="60.679886" y="75.79306999999994"/>
      <point x="20.900746" y="101.36942999999997" type="curve" smooth="yes"/>
      <point x="8.6778371" y="109.22826999999995"/>
      <point x="3.8612801" y="126.71325000000002"/>
      <point x="9.8386106" y="139.95911" type="curve" smooth="yes"/>
      <point x="50.448745" y="229.95182999999997" type="line" smooth="yes"/>
      <point x="57.005404" y="244.48149999999998"/>
      <point x="68.806457" y="245.05446999999992"/>
      <point x="77.985967" y="232.02751" type="curve" smooth="yes"/>
      <point x="101.90901" y="198.07749"/>
      <point x="131.66671" y="168.23692000000005"/>
      <point x="165.60762" y="144.29598" type="curve" smooth="yes"/>
      <point x="196.64162" y="122.40548999999999"/>
      <point x="231.56029999999998" y="105.28721999999993"/>
      <point x="268.89728" y="98.34078999999997" type="curve" smooth="yes"/>
      <point x="306.23425000000003" y="91.39436999999998"/>
      <point x="346.13537" y="95.12203999999997"/>
      <point x="379.82959000000005" y="112.64351999999997" type="curve" smooth="yes"/>
      <point x="408.0644300000001" y="127.32603999999992"/>
      <point x="431.20043000000004" y="151.42613999999992"/>
      <point x="445.23577000000006" y="179.98820999999998" type="curve" smooth="yes"/>
      <point x="459.2711100000001" y="208.55027999999993"/>
      <point x="464.22046000000006" y="241.40445"/>
      <point x="459.79371000000003" y="272.91931" type="curve" smooth="yes"/>
      <point x="454.10231000000005" y="313.43749"/>
      <point x="432.71461000000005" y="351.59487"/>
      <point x="400.94333000000006" y="377.37666" type="curve" smooth="yes"/>
      <point x="369.17205000000007" y="403.15845"/>
      <point x="327.31396000000007" y="416.23961"/>
      <point x="286.5381100000001" y="412.85652000000005" type="curve" smooth="yes"/>
      <point x="259.1586200000001" y="410.58490000000006"/>
      <point x="232.41322000000008" y="401.06544"/>
      <point x="209.75562000000008" y="385.52742000000006" type="curve" smooth="yes"/>
      <point x="191.24274000000008" y="372.83175000000006"/>
      <point x="175.4948300000001" y="356.1426900000001"/>
      <point x="163.81617000000008" y="336.97609000000006" type="curve" smooth="yes"/>
      <point x="159.48556000000008" y="329.86886000000004"/>
      <point x="149.85064000000008" y="323.61323000000004"/>
      <point x="141.5264300000001" y="323.44779000000005" type="curve" smooth="yes"/>
      <point x="60.962394" y="321.8466" type="line" smooth="yes"/>
      <point x="43.854905" y="321.50659"/>
      <point x="32.289293" y="334.91363"/>
      <point x="34.546381" y="351.87429" type="curve" smooth="yes"/>
      <point x="40.716419" y="398.23842"/>
      <point x="43.650741" y="445.03319"/>
      <point x="43.3139" y="491.80494" type="curve" smooth="yes"/>
      <point x="42.861996" y="554.55371"/>
      <point x="36.515351" y="617.25825"/>
      <point x="24.396248" y="678.82698" type="curve" smooth="yes"/>
      <point x="22.089481" y="690.54606"/>
      <point x="29.673703" y="700.0"/>
      <point x="41.617884" y="700.0" type="curve" smooth="yes"/>
      <point x="499.54915" y="700.0" type="line" smooth="yes"/>
      <point x="514.4899189710525" y="699.9999984136014"/>
      <point x="526.6929143090676" y="688.0623297127552"/>
      <point x="527.0213000000001" y="673.1251699999999" type="curve"/>
    </contour>
  </outline>
</glyph>
<glyph name="six" format="2">
	<unicode hex="0036"/>
	<advance height="1000" width="572"/>
	<outline>
		<contour>
			<point x="485.30464" y="548.23825" type="line"/>
			<point x="527.1934" y="589.48075" type="line" smooth="yes"/>
			<point x="542.48587" y="604.53729"/>
			<point x="541.81" y="628.33937"/>
			<point x="523.98819" y="640.27112" type="curve" smooth="yes"/>
			<point x="464.67269" y="679.98297"/>
			<point x="392.17974" y="700.000599"/>
			<point x="320.88482" y="695.48647" type="curve" smooth="yes"/>
			<point x="252.02864" y="691.12675"/>
			<point x="184.35822" y="663.96338"/>
			<point x="133.48282" y="617.36001" type="curve" smooth="yes"/>
			<point x="72.549225" y="561.54304"/>
			<point x="38.363287" y="481.37746"/>
			<point x="23.250382" y="400.13684" type="curve" smooth="yes"/>
			<point x="14.251238" y="351.76123"/>
			<point x="11.421224" y="301.95023"/>
			<point x="18.550958" y="253.26398" type="curve" smooth="yes"/>
			<point x="25.680692" y="204.57773"/>
			<point x="43.021585" y="156.99539"/>
			<point x="71.899389" y="117.155" type="curve" smooth="yes"/>
			<point x="118.21105" y="53.26252"/>
			<point x="193.08201" y="12.36878"/>
			<point x="271.30135" y="1.94025" type="curve" smooth="yes"/>
			<point x="336.58419" y="-6.76353"/>
			<point x="405.62177" y="5.44153"/>
			<point x="460.47197" y="41.89783" type="curve" smooth="yes"/>
			<point x="487.89706" y="60.12597"/>
			<point x="511.52682" y="84.20677"/>
			<point x="528.47014" y="112.44372" type="curve" smooth="yes"/>
			<point x="545.41346" y="140.68067"/>
			<point x="555.57839" y="173.07639"/>
			<point x="556.91496" y="205.97951" type="curve" smooth="yes"/>
			<point x="559.05774" y="258.72978"/>
			<point x="537.95348" y="311.53384"/>
			<point x="501.92304" y="350.12128" type="curve" smooth="yes"/>
			<point x="465.89259" y="388.70872"/>
			<point x="415.68413" y="413.13978"/>
			<point x="363.38576" y="420.35527" type="curve" smooth="yes"/>
			<point x="297.68407" y="429.41998"/>
			<point x="229.87289" y="411.84835"/>
			<point x="172.71654" y="378.20264" type="curve" smooth="yes"/>
			<point x="133.364" y="355.03734"/>
			<point x="98.457563" y="324.34962"/>
			<point x="70.442018" y="288.28879" type="curve"/>
			<point x="139.91209" y="175.51765" type="line"/>
			<point x="169.57504" y="242.39149"/>
			<point x="232.62906" y="293.4322"/>
			<point x="304.21444" y="308.51645" type="curve" smooth="yes"/>
			<point x="338.43106" y="315.72647"/>
			<point x="375.25238" y="314.84429"/>
			<point x="406.97486" y="300.13218" type="curve" smooth="yes"/>
			<point x="422.8361" y="292.77613"/>
			<point x="437.20449" y="282.01199"/>
			<point x="448.10466" y="268.3417" type="curve" smooth="yes"/>
			<point x="459.00482" y="254.6714"/>
			<point x="466.35442" y="238.06297"/>
			<point x="468.35625" y="220.69394" type="curve" smooth="yes"/>
			<point x="470.73185" y="200.08186"/>
			<point x="465.47416" y="178.8619"/>
			<point x="454.75348" y="161.09765" type="curve" smooth="yes"/>
			<point x="444.0328" y="143.33341"/>
			<point x="428.03048" y="128.98855"/>
			<point x="409.74873" y="119.17637" type="curve" smooth="yes"/>
			<point x="373.18522" y="99.55202"/>
			<point x="329.01609" y="98.34584"/>
			<point x="288.43331" y="107.00859" type="curve" smooth="yes"/>
			<point x="253.56578" y="114.45137"/>
			<point x="220.1024" y="128.89113"/>
			<point x="191.34895" y="149.97143" type="curve" smooth="yes"/>
			<point x="162.5955" y="171.05173"/>
			<point x="138.63167" y="198.81604"/>
			<point x="122.86826" y="230.79501" type="curve" smooth="yes"/>
			<point x="105.04712" y="266.94846"/>
			<point x="97.947628" y="307.96237"/>
			<point x="100.07817" y="348.21316" type="curve" smooth="yes"/>
			<point x="103.24494" y="408.04073"/>
			<point x="127.29687" y="467.11835"/>
			<point x="169.27698" y="509.86219" type="curve" smooth="yes"/>
			<point x="211.2571" y="552.60604"/>
			<point x="271.27868" y="577.95026"/>
			<point x="331.11544" y="574.96213" type="curve" smooth="yes"/>
			<point x="364.92989" y="573.2735"/>
			<point x="398.19618" y="562.60352"/>
			<point x="426.89516" y="544.66743" type="curve" smooth="yes"/>
			<point x="445.06421" y="533.31226"/>
			<point x="470.01217" y="533.18171"/>
			<point x="485.30464" y="548.23825" type="curve"/>
		</contour>
	</outline>
</glyph>
<glyph name="seven" format="2">
	<unicode hex="0037"/>
	<advance height="1024" width="416"/>
	<outline>
		<contour>
			<point x="26.773389" y="682.69498" type="line"/>
			<point x="58.352063" y="701.716538"/>
			<point x="91.204901" y="718.622722"/>
			<point x="125.0398" y="733.259493" type="curve" smooth="yes"/>
			<point x="209.75433" y="769.906481"/>
			<point x="300.6541" y="792.1974812"/>
			<point x="392.70605" y="798.9508644" type="curve" smooth="yes"/>
			<point x="401.87352" y="799.62343502"/>
			<point x="407.00658" y="792.9152668"/>
			<point x="404.20683" y="784.159758" type="curve" smooth="yes"/>
			<point x="390.40093" y="740.985348"/>
			<point x="377.4966" y="697.52264"/>
			<point x="365.5052" y="653.8095" type="curve" smooth="yes"/>
			<point x="336.01683" y="546.31339"/>
			<point x="312.00088" y="436.96931"/>
			<point x="301.92198" y="325.95853" type="curve" smooth="yes"/>
			<point x="293.17865" y="229.65799"/>
			<point x="294.99498" y="132.40306"/>
			<point x="307.31369" y="36.49469" type="curve" smooth="yes"/>
			<point x="308.48474" y="27.37738"/>
			<point x="302.1523" y="19.00799"/>
			<point x="293.04185" y="17.78429" type="curve" smooth="yes"/>
			<point x="177.13413" y="2.21571" type="line" smooth="yes"/>
			<point x="168.02368" y="0.99201"/>
			<point x="162.15359" y="7.2961"/>
			<point x="164.01124" y="16.2987" type="curve" smooth="yes"/>
			<point x="185.22138" y="119.08807"/>
			<point x="205.30211" y="222.11049"/>
			<point x="224.24858" y="325.34109" type="curve" smooth="yes"/>
			<point x="243.50056" y="430.23626"/>
			<point x="261.58101" y="535.34398"/>
			<point x="280.89828" y="640.22714" type="curve" smooth="yes"/>
			<point x="288.77629" y="683.00079"/>
			<point x="296.85991" y="725.736579"/>
			<point x="305.14877" y="768.432519" type="curve"/>
			<point x="336.81319" y="696.25783" type="line"/>
			<point x="286.55226" y="691.5181"/>
			<point x="237.23556" y="676.96303"/>
			<point x="192.45541" y="653.65285" type="curve" smooth="yes"/>
			<point x="144.65504" y="628.7705"/>
			<point x="102.09673" y="593.89232"/>
			<point x="68.238795" y="551.97365" type="curve" smooth="yes"/>
			<point x="62.46334" y="544.8232"/>
			<point x="55.685901" y="545.86841"/>
			<point x="52.755567" y="554.58109" type="curve" smooth="yes"/>
			<point x="17.909465" y="658.1881" type="line" smooth="yes"/>
			<point x="14.979131" y="666.90078"/>
			<point x="18.899411" y="677.95206"/>
			<point x="26.773389" y="682.69498" type="curve"/>
		</contour>
		<contour>
			<point x="381.07582" y="443.26353" type="line"/>
			<point x="393.97784" y="395.45524" type="line" smooth="yes"/>
			<point x="394.7150398331" y="392.7235554222"/>
			<point x="394.236648233" y="389.8065896798"/>
			<point x="392.6655256257" y="387.4534772772" type="curve" smooth="yes"/>
			<point x="391.0944030184" y="385.1003648746"/>
			<point x="388.5836289982" y="383.5403772193"/>
			<point x="385.77802" y="383.17415" type="curve" smooth="yes"/>
			<point x="138.28878" y="350.86818" type="line" smooth="yes"/>
			<point x="135.4006549635" y="350.4911783996"/>
			<point x="132.4849131091" y="351.3221406407"/>
			<point x="130.2294373814" y="353.1650257904" type="curve" smooth="yes"/>
			<point x="127.9739616537" y="355.0079109401"/>
			<point x="126.5784962836" y="357.6995136612"/>
			<point x="126.37226" y="360.60483" type="curve" smooth="yes"/>
			<point x="120.98101" y="436.55331" type="line" smooth="yes"/>
			<point x="120.7738102632" y="439.4722231669"/>
			<point x="121.7700350721" y="442.3487956641"/>
			<point x="123.7381092124" y="444.5143602522" type="curve" smooth="yes"/>
			<point x="125.7061833527" y="446.6799248403"/>
			<point x="128.4746783938" y="447.9458507502"/>
			<point x="131.40005" y="448.01787" type="curve" smooth="yes"/>
			<point x="366.94008" y="453.81671" type="line" smooth="yes"/>
			<point x="373.5215270129" y="453.9787400547"/>
			<point x="379.3605149996" y="449.6195843797"/>
			<point x="381.07582" y="443.26353" type="curve"/>
		</contour>
	</outline>
</glyph>
<glyph name="eight" format="2">
	<unicode hex="0038"/>
	<advance height="1024" width="471"/>
	<outline>
		<contour>
			<point x="110.63294" y="35.7045" type="line"/>
			<point x="147.9103" y="13.41468"/>
			<point x="191.31457" y="1.58813"/>
			<point x="234.74765" y="1.51127" type="curve" smooth="yes"/>
			<point x="278.18073" y="1.43437"/>
			<point x="321.53254" y="13.06518"/>
			<point x="359.28207" y="34.54565" type="curve" smooth="yes"/>
			<point x="391.54004" y="52.90128"/>
			<point x="419.9322" y="78.65449"/>
			<point x="439.09004" y="110.44258" type="curve" smooth="yes"/>
			<point x="458.24789" y="142.23067"/>
			<point x="467.81277" y="180.1766"/>
			<point x="463.40306" y="217.02847" type="curve" smooth="yes"/>
			<point x="457.74014" y="264.3534"/>
			<point x="429.69779" y="306.80082"/>
			<point x="394.18203" y="338.5868" type="curve" smooth="yes"/>
			<point x="358.66628" y="370.37278"/>
			<point x="315.90464" y="392.78978"/>
			<point x="273.13546" y="413.82581" type="curve" smooth="yes"/>
			<point x="236.39467" y="431.89677"/>
			<point x="198.77496" y="449.52499"/>
			<point x="167.80507" y="476.30766" type="curve" smooth="yes"/>
			<point x="152.32013" y="489.699"/>
			<point x="138.62858" y="505.35048"/>
			<point x="128.69546" y="523.25145" type="curve" smooth="yes"/>
			<point x="118.76234" y="541.15241"/>
			<point x="112.67494" y="561.37113"/>
			<point x="112.53995" y="581.8429" type="curve" smooth="yes"/>
			<point x="112.32656" y="614.20547"/>
			<point x="127.51291" y="646.05365"/>
			<point x="151.85936" y="667.37575" type="curve" smooth="yes"/>
			<point x="176.20582" y="688.69785"/>
			<point x="209.13304" y="699.50577"/>
			<point x="241.47171" y="698.24398" type="curve" smooth="yes"/>
			<point x="270.4267" y="697.11421"/>
			<point x="299.07432" y="686.42285"/>
			<point x="321.09398" y="667.58665" type="curve" smooth="yes"/>
			<point x="343.11364" y="648.75045"/>
			<point x="358.21625" y="621.77203"/>
			<point x="361.84917" y="593.02365" type="curve" smooth="yes"/>
			<point x="364.44426" y="572.48795"/>
			<point x="361.2646" y="551.34538"/>
			<point x="353.42022" y="532.19035" type="curve" smooth="yes"/>
			<point x="345.57583" y="513.03532"/>
			<point x="333.13954" y="495.86605"/>
			<point x="317.87725" y="481.8835" type="curve" smooth="yes"/>
			<point x="284.60932" y="451.40508"/>
			<point x="240.09405" y="437.17203"/>
			<point x="199.76237" y="416.94718" type="curve" smooth="yes"/>
			<point x="164.64468" y="399.33696"/>
			<point x="132.10311" y="376.76217"/>
			<point x="102.54487" y="350.88395" type="curve" smooth="yes"/>
			<point x="80.968442" y="331.9938"/>
			<point x="60.830454" y="311.18442"/>
			<point x="45.039213" y="287.24666" type="curve" smooth="yes"/>
			<point x="29.247973" y="263.30889"/>
			<point x="17.893029" y="236.07092"/>
			<point x="14.860452" y="207.55455" type="curve" smooth="yes"/>
			<point x="11.197968" y="173.11495"/>
			<point x="19.960666" y="137.81358"/>
			<point x="37.459545" y="107.92563" type="curve" smooth="yes"/>
			<point x="54.958424" y="78.03769"/>
			<point x="80.90779" y="53.47851"/>
			<point x="110.63294" y="35.7045" type="curve"/>
		</contour>
		<contour>
			<point x="331.48593" y="394.71803" type="line"/>
			<point x="363.28007" y="416.41784"/>
			<point x="389.88397" y="445.75012"/>
			<point x="408.02839" y="479.69904" type="curve" smooth="yes"/>
			<point x="426.1728" y="513.64796"/>
			<point x="435.78845" y="552.16801"/>
			<point x="435.32165" y="590.65867" type="curve" smooth="yes"/>
			<point x="434.6646" y="644.83681"/>
			<point x="413.38491" y="698.8444"/>
			<point x="375.52542" y="737.604714" type="curve" smooth="yes"/>
			<point x="337.66593" y="776.365023"/>
			<point x="283.36416" y="799.03617774"/>
			<point x="229.22683" y="796.8333815" type="curve" smooth="yes"/>
			<point x="177.41832" y="794.7253425"/>
			<point x="127.31936" y="770.039457"/>
			<point x="92.430994" y="731.681045" type="curve" smooth="yes"/>
			<point x="57.54263" y="693.32263"/>
			<point x="37.827281" y="641.9926"/>
			<point x="35.835028" y="590.17951" type="curve" smooth="yes"/>
			<point x="33.620707" y="532.59102"/>
			<point x="53.66577" y="473.69937"/>
			<point x="93.5557" y="432.10453" type="curve" smooth="yes"/>
			<point x="134.86995" y="389.02449"/>
			<point x="192.89547" y="367.23572"/>
			<point x="247.68974" y="343.56411" type="curve" smooth="yes"/>
			<point x="275.83325" y="331.40586"/>
			<point x="303.99681" y="318.18816"/>
			<point x="327.41584" y="298.4036" type="curve" smooth="yes"/>
			<point x="350.83488" y="278.61904"/>
			<point x="369.31869" y="251.32441"/>
			<point x="372.54183" y="220.83685" type="curve" smooth="yes"/>
			<point x="374.18261" y="205.31674"/>
			<point x="371.80823" y="189.44307"/>
			<point x="366.12687" y="174.90733" type="curve" smooth="yes"/>
			<point x="360.4455" y="160.37158"/>
			<point x="351.49775" y="147.17458"/>
			<point x="340.42133" y="136.18009" type="curve" smooth="yes"/>
			<point x="318.2685" y="114.1911"/>
			<point x="287.9905" y="101.40559"/>
			<point x="257.05257" y="97.26944" type="curve" smooth="yes"/>
			<point x="221.93797" y="92.5749"/>
			<point x="184.70295" y="98.98464"/>
			<point x="155.38184" y="118.86795" type="curve" smooth="yes"/>
			<point x="140.72128" y="128.80961"/>
			<point x="128.20192" y="142.0019"/>
			<point x="119.52941" y="157.44716" type="curve" smooth="yes"/>
			<point x="110.8569" y="172.89241"/>
			<point x="106.09422" y="190.59272"/>
			<point x="106.40533" y="208.3035" type="curve" smooth="yes"/>
			<point x="106.69803" y="224.96641"/>
			<point x="111.44685" y="241.41699"/>
			<point x="119.21716" y="256.16014" type="curve" smooth="yes"/>
			<point x="126.98747" y="270.9033"/>
			<point x="137.7235" y="283.9766"/>
			<point x="150.01831" y="295.22719" type="curve" smooth="yes"/>
			<point x="174.60794" y="317.72838"/>
			<point x="204.98902" y="332.77935"/>
			<point x="235.42062" y="346.37608" type="curve" smooth="yes"/>
			<point x="268.19972" y="361.02166"/>
			<point x="301.83217" y="374.47904"/>
			<point x="331.48593" y="394.71803" type="curve"/>
		</contour>
	</outline>
</glyph>
<glyph name="nine" format="2">
  <advance height="1000" width="572"/>
  <unicode hex="0039"/>
  <outline>
    <contour>
      <point x="80.106607" y="165.64660000000003" type="line"/>
      <point x="38.341184999999996" y="79.17174" type="line" smooth="yes"/>
      <point x="31.996597999999995" y="66.03535"/>
      <point x="36.825306999999995" y="48.99239"/>
      <point x="49.710981999999994" y="42.16008999999997" type="curve" smooth="yes"/>
      <point x="110.99269" y="9.667029999999954"/>
      <point x="181.66498" y="-5.043300000000045"/>
      <point x="250.81501" y="0.6940599999999222" type="curve" smooth="yes"/>
      <point x="319.47616" y="6.390859999999975"/>
      <point x="387.14034000000004" y="32.58220999999992"/>
      <point x="438.21700999999996" y="78.82051999999987" type="curve" smooth="yes"/>
      <point x="499.50407999999993" y="134.30202999999983"/>
      <point x="533.46974" y="214.7423299999998"/>
      <point x="548.44945" y="296.04368999999986" type="curve" smooth="yes"/>
      <point x="557.36419" y="344.42784999999986"/>
      <point x="560.18192" y="394.22484999999983"/>
      <point x="553.06837" y="442.90643999999986" type="curve" smooth="yes"/>
      <point x="545.9548299999999" y="491.58801999999986"/>
      <point x="528.65635" y="539.1778699999999"/>
      <point x="499.80044" y="579.0255299999999" type="curve" smooth="yes"/>
      <point x="453.51543" y="642.9413699999999"/>
      <point x="378.62269" y="683.8234799999999"/>
      <point x="300.39847999999995" y="694.2402799999999" type="curve" smooth="yes"/>
      <point x="235.11613999999994" y="702.9336619999999"/>
      <point x="166.08280999999994" y="690.7274799999999"/>
      <point x="111.23325999999994" y="654.2735999999999" type="curve" smooth="yes"/>
      <point x="83.80848999999995" y="636.0466599999999"/>
      <point x="60.178284999999946" y="611.9677999999999"/>
      <point x="43.233884999999944" y="583.7325899999998" type="curve" smooth="yes"/>
      <point x="26.289483999999945" y="555.4973799999999"/>
      <point x="16.122891999999943" y="523.1031399999999"/>
      <point x="14.784872999999944" y="490.20101999999986" type="curve" smooth="yes"/>
      <point x="12.639684999999943" y="437.45045999999985"/>
      <point x="33.743902999999946" y="384.64535999999987"/>
      <point x="69.77489699999994" y="346.05791999999985" type="curve" smooth="yes"/>
      <point x="105.80588999999995" y="307.47047999999984"/>
      <point x="156.01524999999992" y="283.0402599999999"/>
      <point x="208.31406999999996" y="275.82525999999984" type="curve" smooth="yes"/>
      <point x="274.01581" y="266.76122999999984"/>
      <point x="341.82688999999993" y="284.33237999999983"/>
      <point x="398.98328999999995" y="317.97788999999983" type="curve" smooth="yes"/>
      <point x="438.33590999999996" y="341.1430799999998"/>
      <point x="473.24236999999994" y="371.83081999999985"/>
      <point x="501.25780999999995" y="407.8917399999998" type="curve"/>
      <point x="431.78774" y="520.66288" type="line"/>
      <point x="400.66334" y="454.75485"/>
      <point x="338.43053" y="404.37888999999996"/>
      <point x="267.48539" y="387.66408" type="curve" smooth="yes"/>
      <point x="234.4195" y="379.87369"/>
      <point x="198.71864" y="379.29412"/>
      <point x="167.33941" y="392.309" type="curve" smooth="yes"/>
      <point x="151.64979" y="398.81644"/>
      <point x="137.26483" y="408.69149000000004"/>
      <point x="126.18113999999998" y="421.56249" type="curve" smooth="yes"/>
      <point x="115.09744999999998" y="434.43349"/>
      <point x="107.40097999999999" y="450.34058000000005"/>
      <point x="105.00949999999999" y="467.15699" type="curve" smooth="yes"/>
      <point x="102.13693999999998" y="487.35632"/>
      <point x="107.05089999999998" y="508.37056"/>
      <point x="117.56899999999999" y="525.85295" type="curve" smooth="yes"/>
      <point x="128.08709" y="543.3353500000001"/>
      <point x="144.00816999999998" y="557.31999"/>
      <point x="162.17352" y="566.6089400000001" type="curve" smooth="yes"/>
      <point x="198.50422" y="585.18685"/>
      <point x="242.17802" y="584.71046"/>
      <point x="281.6006" y="574.17867" type="curve" smooth="yes"/>
      <point x="321.71251" y="563.46272"/>
      <point x="359.2137" y="542.67352"/>
      <point x="388.88946" y="513.6365499999999" type="curve" smooth="yes"/>
      <point x="418.56523" y="484.59959"/>
      <point x="440.26133" y="447.30919"/>
      <point x="449.91141" y="406.92761" type="curve" smooth="yes"/>
      <point x="458.56895" y="370.69939"/>
      <point x="457.49701999999996" y="332.27200000000005"/>
      <point x="447.43334" y="296.40895" type="curve" smooth="yes"/>
      <point x="437.36965" y="260.54589"/>
      <point x="418.39092999999997" y="227.29566"/>
      <point x="393.08594" y="199.96263999999996" type="curve" smooth="yes"/>
      <point x="351.37385" y="154.9076"/>
      <point x="291.26346" y="126.27189999999996"/>
      <point x="229.86490999999998" y="126.54269999999997" type="curve" smooth="yes"/>
      <point x="184.69915999999998" y="126.74189999999999"/>
      <point x="139.82210999999998" y="142.67025999999998"/>
      <point x="104.36803999999998" y="170.59901000000002" type="curve" smooth="yes"/>
      <point x="95.50619299999998" y="177.57988999999998"/>
      <point x="85.01508499999997" y="175.80955000000006"/>
      <point x="80.10660699999998" y="165.64660000000003" type="curve"/>
    </contour>
  </outline>
</glyph>
<glyph name="colon" format="2">
	<unicode hex="003A"/>
	<advance height="1024" width="175"/>
	<outline>
		<contour>
			<point x="173.57388" y="192.36603" type="curve" smooth="yes"/>
			<point x="173.57388" y="169.64526"/>
			<point x="164.22058" y="147.06441"/>
			<point x="148.15457" y="130.9984" type="curve" smooth="yes"/>
			<point x="132.08857" y="114.93239"/>
			<point x="109.50771" y="105.57909"/>
			<point x="86.786942" y="105.57909" type="curve" smooth="yes"/>
			<point x="64.066174" y="105.57909"/>
			<point x="41.485316" y="114.93239"/>
			<point x="25.419307" y="130.9984" type="curve" smooth="yes"/>
			<point x="9.3532975" y="147.0644"/>
			<point x="0" y="169.64526"/>
			<point x="0" y="192.36603" type="curve" smooth="yes"/>
			<point x="0" y="215.0868"/>
			<point x="9.3532975" y="237.66766"/>
			<point x="25.419307" y="253.73366" type="curve" smooth="yes"/>
			<point x="41.485316" y="269.79967"/>
			<point x="64.066174" y="279.15297"/>
			<point x="86.786942" y="279.15297" type="curve" smooth="yes"/>
			<point x="109.50771" y="279.15297"/>
			<point x="132.08857" y="269.79967"/>
			<point x="148.15457" y="253.73366" type="curve" smooth="yes"/>
			<point x="164.22058" y="237.66765"/>
			<point x="173.57388" y="215.0868"/>
		</contour>
		<contour>
			<point x="173.57388" y="446.98895" type="line"/>
			<point x="173.57388" y="424.26818"/>
			<point x="164.22058" y="401.68732"/>
			<point x="148.15457" y="385.62132" type="curve" smooth="yes"/>
			<point x="132.08856" y="369.55531"/>
			<point x="109.50771" y="360.20201"/>
			<point x="86.786938" y="360.20201" type="curve" smooth="yes"/>
			<point x="64.06617" y="360.20201"/>
			<point x="41.485312" y="369.55531"/>
			<point x="25.419302" y="385.62132" type="curve" smooth="yes"/>
			<point x="9.3532925" y="401.68732"/>
			<point x="-0.0000055242" y="424.26818"/>
			<point x="-0.0000055241" y="446.98895" type="curve" smooth="yes"/>
			<point x="-0.000005524" y="469.70972"/>
			<point x="9.3532925" y="492.29058"/>
			<point x="25.419302" y="508.35658" type="curve" smooth="yes"/>
			<point x="41.485312" y="524.42259"/>
			<point x="64.06617" y="533.77589"/>
			<point x="86.786938" y="533.77589" type="curve" smooth="yes"/>
			<point x="109.50771" y="533.77589"/>
			<point x="132.08856" y="524.42259"/>
			<point x="148.15457" y="508.35658" type="curve" smooth="yes"/>
			<point x="164.22058" y="492.29058"/>
			<point x="173.57388" y="469.70972"/>
			<point x="173.57388" y="446.98895" type="curve"/>
		</contour>
	</outline>
</glyph>
<glyph name="semicolon" format="2">
  <advance height="1024" width="202"/>
  <unicode hex="003B"/>
  <outline>
    <contour>
      <point x="42.614512" y="250.80893000000003" type="line"/>
      <point x="185.34881" y="287.54688999999996" type="line" smooth="yes"/>
      <point x="190.96588999999997" y="288.99265999999994"/>
      <point x="195.88753999999997" y="285.47569"/>
      <point x="196.13469999999998" y="279.6810499999999" type="curve" smooth="yes"/>
      <point x="198.74059999999997" y="218.58584999999994"/>
      <point x="184.31859999999998" y="156.82274999999993"/>
      <point x="154.80022999999997" y="103.25768999999991" type="curve" smooth="yes"/>
      <point x="140.92920999999998" y="78.08686999999986"/>
      <point x="123.80234999999998" y="54.71361999999988"/>
      <point x="103.99141999999998" y="33.89345999999989" type="curve" smooth="yes"/>
      <point x="99.99335799999997" y="29.69171999999992"/>
      <point x="91.93330099999997" y="26.52559999999994"/>
      <point x="86.13520099999998" y="26.6801999999999" type="curve" smooth="yes"/>
      <point x="5.0705259" y="28.841639999999984" type="line" smooth="yes"/>
      <point x="-0.7275741900000003" y="28.996239999999943"/>
      <point x="-1.7191152" y="32.02165000000002"/>
      <point x="2.5772215" y="35.91669000000002" type="curve" smooth="yes"/>
      <point x="33.189467" y="63.669629999999984"/>
      <point x="53.108916" y="103.06637999999998"/>
      <point x="56.982792" y="144.23409000000004" type="curve" smooth="yes"/>
      <point x="60.050102" y="176.83041000000003"/>
      <point x="53.195724000000006" y="210.27308000000005"/>
      <point x="37.707677000000004" y="239.1055" type="curve" smooth="yes"/>
      <point x="34.963396" y="244.21424000000002"/>
      <point x="36.997428000000006" y="249.36316"/>
      <point x="42.614512000000005" y="250.80893000000003" type="curve"/>
    </contour>
    <contour>
      <point x="193.84658" y="442.98895" type="curve" smooth="yes"/>
      <point x="193.84658" y="420.26818"/>
      <point x="184.49328" y="397.68733"/>
      <point x="168.42727" y="381.62131999999997" type="curve" smooth="yes"/>
      <point x="152.36126" y="365.55530999999996"/>
      <point x="129.78041" y="356.20201"/>
      <point x="107.05964" y="356.20201" type="curve" smooth="yes"/>
      <point x="84.338871" y="356.20201"/>
      <point x="61.758013" y="365.55530999999996"/>
      <point x="45.692003" y="381.62131" type="curve" smooth="yes"/>
      <point x="29.625992" y="397.68732"/>
      <point x="20.272694" y="420.26818"/>
      <point x="20.272694" y="442.98895" type="curve" smooth="yes"/>
      <point x="20.272694" y="465.70972"/>
      <point x="29.625992000000004" y="488.29058"/>
      <point x="45.692003" y="504.35659" type="curve" smooth="yes"/>
      <point x="61.758013" y="520.4225899999999"/>
      <point x="84.338871" y="529.77589"/>
      <point x="107.05964" y="529.77589" type="curve" smooth="yes"/>
      <point x="129.78041000000002" y="529.77589"/>
      <point x="152.36126000000002" y="520.42259"/>
      <point x="168.42727" y="504.35658" type="curve" smooth="yes"/>
      <point x="184.49328" y="488.29057"/>
      <point x="193.84658" y="465.70972"/>
    </contour>
  </outline>
</glyph>
<glyph name="less" format="2">
	<unicode hex="003C"/>
	<advance height="2048" width="1236"/>
	<outline>
		<contour>
			<point x="1035" y="80" type="curve" smooth="yes"/>
			<point x="1062" y="80"/>
			<point x="1089" y="86"/>
			<point x="1109" y="98" type="curve" smooth="yes"/>
			<point x="1127" y="109"/>
			<point x="1136" y="122"/>
			<point x="1136" y="135" type="curve" smooth="yes"/>
			<point x="1136" y="151"/>
			<point x="1124" y="165"/>
			<point x="1103" y="176" type="curve" smooth="yes"/>
			<point x="351" y="553" type="line"/>
			<point x="1103" y="929" type="line" smooth="yes"/>
			<point x="1124" y="940"/>
			<point x="1136" y="954"/>
			<point x="1136" y="970" type="curve" smooth="yes"/>
			<point x="1136" y="983"/>
			<point x="1127" y="996"/>
			<point x="1109" y="1007" type="curve" smooth="yes"/>
			<point x="1089" y="1019"/>
			<point x="1062" y="1025"/>
			<point x="1035" y="1025" type="curve" smooth="yes"/>
			<point x="1011" y="1025"/>
			<point x="986" y="1020"/>
			<point x="967" y="1010" type="curve" smooth="yes"/>
			<point x="133" y="593" type="line" smooth="yes"/>
			<point x="117" y="585"/>
			<point x="100" y="572"/>
			<point x="100" y="553" type="curve" smooth="yes"/>
			<point x="100" y="534"/>
			<point x="117" y="520"/>
			<point x="133" y="512" type="curve" smooth="yes"/>
			<point x="967" y="95" type="line" smooth="yes"/>
			<point x="986" y="85"/>
			<point x="1011" y="80"/>
		</contour>
	</outline>
</glyph>
<glyph name="equal" format="2">
  <advance height="1000" width="1000.0"/>
  <unicode hex="003D"/>
  <outline>
    <contour>
      <point x="34.919479" y="325.83442" type="line"/>
      <point x="479.83912000000004" y="327.96655000000004" type="line" smooth="yes"/>
      <point x="484.25452074517847" y="327.98771054015697"/>
      <point x="488.4628885357451" y="326.0964140276899"/>
      <point x="491.3785898811652" y="322.7805586066414" type="curve" smooth="yes"/>
      <point x="494.2942912265853" y="319.4647031855928"/>
      <point x="495.63180044037665" y="315.0490004032747"/>
      <point x="495.04607999999996" y="310.67257000000006" type="curve" smooth="yes"/>
      <point x="484.16503" y="229.37098000000003" type="line" smooth="yes"/>
      <point x="482.83013090134796" y="219.3968073373527"/>
      <point x="474.36976461151374" y="211.91851118532134"/>
      <point x="464.30716" y="211.81819000000007" type="curve" smooth="yes"/>
      <point x="16.394339" y="207.35274000000004" type="line" smooth="yes"/>
      <point x="12.028216819855913" y="207.30921219895833"/>
      <point x="7.864027909658489" y="209.18866983805594"/>
      <point x="5.008327293642026" y="212.49168233471607" type="curve" smooth="yes"/>
      <point x="2.1526266776256193" y="215.79469483137632"/>
      <point x="0.8946161168864251" y="220.18676037346938"/>
      <point x="1.5685882999999308" y="224.5007700000001" type="curve" smooth="yes"/>
      <point x="14.6804" y="308.42758" type="line" smooth="yes"/>
      <point x="16.240078287076017" y="318.41085084379904"/>
      <point x="24.81522501906582" y="325.7859990479376"/>
      <point x="34.91947900000005" y="325.83442" type="curve"/>
    </contour>
    <contour>
      <point x="32.975226" y="512.72009" type="line"/>
      <point x="480.95832" y="518.85501" type="line" smooth="yes"/>
      <point x="485.3457695751642" y="518.9150954687789"/>
      <point x="489.54052036460416" y="517.0554587741127"/>
      <point x="492.4421273298762" y="513.763954398109" type="curve" smooth="yes"/>
      <point x="495.34373429514824" y="510.4724500221053"/>
      <point x="496.66259814977366" y="506.0775915540065"/>
      <point x="496.05273" y="501.73231999999996" type="curve" smooth="yes"/>
      <point x="483.704" y="413.74845" type="line" smooth="yes"/>
      <point x="482.3078887940426" y="403.8012501826704"/>
      <point x="473.7789025121912" y="396.4142586438395"/>
      <point x="463.73428" y="396.45259" type="curve" smooth="yes"/>
      <point x="17.512842" y="398.15556" type="line" smooth="yes"/>
      <point x="13.084675348722982" y="398.1724600425439"/>
      <point x="8.878688325982665" y="400.0973054869138"/>
      <point x="5.971381525352541" y="403.43744211135436" type="curve" smooth="yes"/>
      <point x="3.064074724722417" y="406.77757873579503"/>
      <point x="1.73762598835998" y="411.2088190328195"/>
      <point x="2.3315329999999506" y="415.59701000000007" type="curve" smooth="yes"/>
      <point x="13.092405000000001" y="495.10547" type="line" smooth="yes"/>
      <point x="14.443796948298967" y="505.09042791088956"/>
      <point x="22.900177201494103" y="512.5821175828701"/>
      <point x="32.97522600000002" y="512.72009" type="curve"/>
    </contour>
  </outline>
</glyph>
<glyph name="question" format="2">
	<unicode hex="003F"/>
	<advance height="1000" width="323"/>
	<outline>
		<contour>
			<point x="252.88153" y="82.46714" type="line"/>
			<point x="252.8815305194" y="37.8688256972"/>
			<point x="218.8796318179" y="1.7147464597"/>
			<point x="176.93616" y="1.71474" type="curve" smooth="yes"/>
			<point x="134.9926842769" y="1.7147405872"/>
			<point x="100.9907794806" y="37.8688215448"/>
			<point x="100.99078" y="82.46714" type="curve" smooth="yes"/>
			<point x="100.9907794806" y="127.0654584552"/>
			<point x="134.9926842769" y="163.2195394128"/>
			<point x="176.93616" y="163.21954" type="curve" smooth="yes"/>
			<point x="218.8796318179" y="163.2195335403"/>
			<point x="252.8815305194" y="127.0654543028"/>
			<point x="252.88153" y="82.46714" type="curve"/>
		</contour>
		<contour>
			<point x="100.90319" y="491.03468" type="line"/>
			<point x="12" y="443.05908" type="line"/>
			<point x="2.2076333" y="480.98584"/>
			<point x="2.0642686" y="521.36282"/>
			<point x="11.587062" y="559.35816" type="curve" smooth="yes"/>
			<point x="21.787486" y="600.0572"/>
			<point x="43.571408" y="638.47639"/>
			<point x="76.253375" y="664.78893" type="curve" smooth="yes"/>
			<point x="97.065879" y="681.54526"/>
			<point x="122.05146" y="693.16224"/>
			<point x="148.35696" y="697.84789" type="curve" smooth="yes"/>
			<point x="174.66247" y="702.533538"/>
			<point x="202.23604" y="700.230787"/>
			<point x="227.2509" y="690.83975" type="curve" smooth="yes"/>
			<point x="262.94794" y="677.43843"/>
			<point x="292.90539" y="649.33579"/>
			<point x="308.39082" y="614.49219" type="curve" smooth="yes"/>
			<point x="323.87624" y="579.6486"/>
			<point x="324.64275" y="538.5031"/>
			<point x="310.29653" y="503.1752" type="curve" smooth="yes"/>
			<point x="298.55363" y="474.25804"/>
			<point x="277.70618" y="450.18124"/>
			<point x="258.44914" y="425.61981" type="curve" smooth="yes"/>
			<point x="239.19209" y="401.05838"/>
			<point x="220.72587" y="374.37513"/>
			<point x="215.20684" y="343.65644" type="curve" smooth="yes"/>
			<point x="211.42085" y="322.58379"/>
			<point x="214.03258" y="300.6969"/>
			<point x="220.39615" y="280.25441" type="curve" smooth="yes"/>
			<point x="226.2722" y="261.37802"/>
			<point x="235.33149" y="243.49683"/>
			<point x="247.07608" y="227.59366" type="curve"/>
			<point x="119.81436" y="213.19896" type="line"/>
			<point x="104.3693" y="241.77826"/>
			<point x="100.34462" y="276.33073"/>
			<point x="108.80747" y="307.69483" type="curve" smooth="yes"/>
			<point x="116.23357" y="335.21663"/>
			<point x="132.59568" y="359.48868"/>
			<point x="150.79487" y="381.4292" type="curve" smooth="yes"/>
			<point x="168.99406" y="403.36971"/>
			<point x="189.29442" y="423.56274"/>
			<point x="206.48063" y="446.30545" type="curve" smooth="yes"/>
			<point x="216.47498" y="459.53109"/>
			<point x="225.42935" y="473.67426"/>
			<point x="231.55766" y="489.07713" type="curve" smooth="yes"/>
			<point x="237.68596" y="504.48"/>
			<point x="240.91752" y="521.22909"/>
			<point x="239.29226" y="537.72645" type="curve" smooth="yes"/>
			<point x="236.95949" y="561.40551"/>
			<point x="224.12923" y="583.9842"/>
			<point x="204.60161" y="597.57874" type="curve" smooth="yes"/>
			<point x="185.07398" y="611.17329"/>
			<point x="159.12706" y="615.33358"/>
			<point x="136.51995" y="607.91347" type="curve" smooth="yes"/>
			<point x="113.86206" y="600.47669"/>
			<point x="95.318151" y="581.5326"/>
			<point x="88.366753" y="558.72113" type="curve" smooth="yes"/>
			<point x="81.415355" y="535.90965"/>
			<point x="86.243167" y="509.84343"/>
			<point x="100.90319" y="491.03468" type="curve"/>
		</contour>
	</outline>
</glyph>
<glyph name="at" format="2">
	<unicode hex="0040"/>
	<advance height="1000" width="732"/>
	<outline>
		<contour>
			<point x="382.01142" y="421.70072" type="line"/>
			<point x="409.75743" y="405.87667"/>
			<point x="432.0709" y="379.58718"/>
			<point x="440.01386" y="348.64933" type="curve" smooth="yes"/>
			<point x="443.98534" y="333.1804"/>
			<point x="444.3484" y="316.74476"/>
			<point x="440.63582" y="301.21167" type="curve" smooth="yes"/>
			<point x="436.92323" y="285.67857"/>
			<point x="429.09721" y="271.09055"/>
			<point x="417.89474" y="259.70789" type="curve" smooth="yes"/>
			<point x="406.73642" y="248.37009"/>
			<point x="392.34121" y="240.32874"/>
			<point x="376.93094" y="236.38187" type="curve" smooth="yes"/>
			<point x="361.52068" y="232.43501"/>
			<point x="345.13867" y="232.54898"/>
			<point x="329.68394" y="236.31797" type="curve" smooth="yes"/>
			<point x="298.77448" y="243.85593"/>
			<point x="272.36409" y="266.00721"/>
			<point x="256.83619" y="293.7759" type="curve" smooth="yes"/>
			<point x="246.31127" y="312.59772"/>
			<point x="240.43304" y="334.21336"/>
			<point x="241.44667" y="355.75419" type="curve" smooth="yes"/>
			<point x="242.56676" y="379.5574"/>
			<point x="252.63738" y="403.35927"/>
			<point x="270.88933" y="418.67964" type="curve" smooth="yes"/>
			<point x="285.99993" y="431.36321"/>
			<point x="305.96205" y="437.65729"/>
			<point x="325.69025" y="437.62032" type="curve" smooth="yes"/>
			<point x="345.41845" y="437.58332"/>
			<point x="364.87432" y="431.47433"/>
			<point x="382.01142" y="421.70073" type="curve"/>
		</contour>
		<contour>
			<point x="563.3457" y="517.07742" type="line"/>
			<point x="446.06538" y="523.27927" type="line"/>
			<point x="469.07401" y="413.92146" type="line"/>
			<point x="459.81665" y="445.54674"/>
			<point x="439.45366" y="473.80189"/>
			<point x="412.38063" y="492.58774" type="curve" smooth="yes"/>
			<point x="385.3076" y="511.37359"/>
			<point x="351.71262" y="520.5596"/>
			<point x="318.84755" y="518.16287" type="curve" smooth="yes"/>
			<point x="294.48616" y="516.38629"/>
			<point x="270.68828" y="508.39143"/>
			<point x="249.80437" y="495.72274" type="curve" smooth="yes"/>
			<point x="228.92046" y="483.05405"/>
			<point x="210.93961" y="465.77276"/>
			<point x="196.84035" y="445.82672" type="curve" smooth="yes"/>
			<point x="167.27083" y="403.9951"/>
			<point x="155.35046" y="349.80557"/>
			<point x="165.92856" y="299.68227" type="curve" smooth="yes"/>
			<point x="176.50666" y="249.55897"/>
			<point x="209.78339" y="204.42231"/>
			<point x="255.15481" y="180.63838" type="curve" smooth="yes"/>
			<point x="287.39455" y="163.73814"/>
			<point x="325.17836" y="157.63636"/>
			<point x="361.09901" y="163.52923" type="curve" smooth="yes"/>
			<point x="397.01966" y="169.4221"/>
			<point x="430.87345" y="187.27622"/>
			<point x="456.02359" y="213.59141" type="curve"/>
			<point x="455.0691" y="194.41193"/>
			<point x="455.55503" y="175.16093"/>
			<point x="457.47594" y="156.05403" type="curve" smooth="yes"/>
			<point x="459.27869" y="138.12242"/>
			<point x="462.38469" y="120.17339"/>
			<point x="468.9884" y="103.40486" type="curve" smooth="yes"/>
			<point x="475.59488" y="86.62929"/>
			<point x="485.92622" y="70.97325"/>
			<point x="500.4332" y="60.26751" type="curve" smooth="yes"/>
			<point x="514.79824" y="49.66652"/>
			<point x="532.65957" y="44.39478"/>
			<point x="550.4884" y="43.46312" type="curve" smooth="yes"/>
			<point x="571.90264" y="42.3441"/>
			<point x="593.51661" y="47.30516"/>
			<point x="612.61438" y="57.05693" type="curve" smooth="yes"/>
			<point x="641.83929" y="71.97986"/>
			<point x="664.53999" y="97.50174"/>
			<point x="681.49657" y="125.59558" type="curve" smooth="yes"/>
			<point x="718.71564" y="187.26054"/>
			<point x="730.28603" y="261.71169"/>
			<point x="726.69624" y="333.64875" type="curve" smooth="yes"/>
			<point x="722.61189" y="415.49652"/>
			<point x="699.1058" y="497.52491"/>
			<point x="651.46492" y="564.20389" type="curve" smooth="yes"/>
			<point x="624.16515" y="602.41311"/>
			<point x="589.03433" y="635.30651"/>
			<point x="547.93612" y="658.02565" type="curve" smooth="yes"/>
			<point x="504.57174" y="681.99754"/>
			<point x="455.53112" y="694.23688"/>
			<point x="406.31824" y="700" type="curve" smooth="yes"/>
			<point x="331.98895" y="708.704405"/>
			<point x="254.0773" y="702.51145"/>
			<point x="187.14385" y="669.03723" type="curve" smooth="yes"/>
			<point x="131.68019" y="641.29919"/>
			<point x="85.963928" y="595.64094"/>
			<point x="54.761125" y="542.04988" type="curve" smooth="yes"/>
			<point x="11.478629" y="467.71185"/>
			<point x="-4.049892" y="378.56306"/>
			<point x="6.21822" y="293.15765" type="curve" smooth="yes"/>
			<point x="12.402929" y="241.7161"/>
			<point x="27.783146" y="191.11738"/>
			<point x="53.76788" y="146.29242" type="curve" smooth="yes"/>
			<point x="79.752615" y="101.46745"/>
			<point x="116.54159" y="62.55764"/>
			<point x="161.31421" y="36.48281" type="curve" smooth="yes"/>
			<point x="198.81177" y="14.64485"/>
			<point x="241.62667" y="2.01326"/>
			<point x="284.97307" y="0" type="curve"/>
			<point x="305.83711" y="121.63362" type="line"/>
			<point x="268.81561" y="115.53313"/>
			<point x="229.84799" y="121.92255"/>
			<point x="196.71323" y="139.52639" type="curve" smooth="yes"/>
			<point x="154.45072" y="161.97962"/>
			<point x="122.81505" y="201.81762"/>
			<point x="105.38402" y="246.38697" type="curve" smooth="yes"/>
			<point x="87.952992" y="290.95632"/>
			<point x="83.985424" y="339.99633"/>
			<point x="88.462881" y="387.64316" type="curve" smooth="yes"/>
			<point x="91.958058" y="424.83707"/>
			<point x="100.65466" y="461.98863"/>
			<point x="118.42253" y="494.85055" type="curve" smooth="yes"/>
			<point x="146.72098" y="547.18894"/>
			<point x="196.91102" y="585.69411"/>
			<point x="252.45963" y="607.01221" type="curve" smooth="yes"/>
			<point x="314.18454" y="630.70061"/>
			<point x="383.98044" y="634.22354"/>
			<point x="446.89106" y="613.89231" type="curve" smooth="yes"/>
			<point x="504.42135" y="595.29988"/>
			<point x="555.10633" y="557.16812"/>
			<point x="590.65732" y="508.26474" type="curve" smooth="yes"/>
			<point x="626.20831" y="459.36137"/>
			<point x="646.74262" y="400.04178"/>
			<point x="651.18568" y="339.74524" type="curve" smooth="yes"/>
			<point x="654.47233" y="295.14233"/>
			<point x="649.1364" y="250.0184"/>
			<point x="636.6011" y="207.08719" type="curve" smooth="yes"/>
			<point x="633.44844" y="196.28988"/>
			<point x="629.80469" y="185.53577"/>
			<point x="624.1208" y="175.82935" type="curve" smooth="yes"/>
			<point x="618.43691" y="166.12293"/>
			<point x="610.55583" y="157.44756"/>
			<point x="600.53348" y="152.34133" type="curve" smooth="yes"/>
			<point x="590.6436" y="147.30259"/>
			<point x="578.85955" y="146.00992"/>
			<point x="568.16938" y="148.9964" type="curve" smooth="yes"/>
			<point x="557.47922" y="151.98288"/>
			<point x="548.01436" y="159.26553"/>
			<point x="542.57643" y="168.94167" type="curve" smooth="yes"/>
			<point x="538.78731" y="175.68396"/>
			<point x="536.96429" y="183.38277"/>
			<point x="536.21384" y="191.08035" type="curve" smooth="yes"/>
			<point x="535.46339" y="198.77793"/>
			<point x="535.7427" y="206.53326"/>
			<point x="535.90986" y="214.26553" type="curve" smooth="yes"/>
			<point x="537.03876" y="266.48543"/>
			<point x="533.01705" y="318.78329"/>
			<point x="536.00406" y="370.92991" type="curve" smooth="yes"/>
			<point x="538.84604" y="420.54462"/>
			<point x="548.05915" y="469.79087"/>
			<point x="563.34569" y="517.07742" type="curve"/>
		</contour>
	</outline>
</glyph>
<glyph name="A" format="2">
	<unicode hex="0041"/>
	<advance height="1000" width="572"/>
	<outline>
		<contour>
			<point x="408.35845" y="395.46933" type="line"/>
			<point x="437.81805" y="292.5594" type="line"/>
			<point x="387.87363" y="317.12465"/>
			<point x="332.82644" y="331.25543"/>
			<point x="277.22516" y="333.78408" type="curve" smooth="yes"/>
			<point x="229.09235" y="335.97308"/>
			<point x="180.57828" y="329.49544"/>
			<point x="134.70593" y="314.75479" type="curve"/>
			<point x="143.89039" y="412.40201" type="line"/>
			<point x="188.73926" y="409.99487"/>
			<point x="233.5755" y="407.35247"/>
			<point x="278.39664" y="404.47495" type="curve" smooth="yes"/>
			<point x="321.7321" y="401.69281"/>
			<point x="365.05344" y="398.69089"/>
			<point x="408.35845" y="395.46933" type="curve"/>
		</contour>
		<contour>
			<point x="107.93252" y="0" type="curve"/>
			<point x="0" y="0" type="line"/>
			<point x="29.759131" y="95.84941"/>
			<point x="57.279986" y="192.39375"/>
			<point x="82.532572" y="289.5278" type="curve" smooth="yes"/>
			<point x="126.3561" y="458.09497"/>
			<point x="163.34589" y="628.43862"/>
			<point x="193.3806" y="800" type="curve"/>
			<point x="339.78123" y="800" type="line"/>
			<point x="365.00584" y="658.82299"/>
			<point x="397.7906" y="518.99709"/>
			<point x="437.94815" y="381.32138" type="curve" smooth="yes"/>
			<point x="475.6379" y="252.10626"/>
			<point x="519.82124" y="124.78545"/>
			<point x="570.27572" y="0" type="curve"/>
			<point x="448.20559" y="0" type="line"/>
			<point x="430.0737" y="162.19501"/>
			<point x="396.50262" y="322.66053"/>
			<point x="348.0939" y="478.52131" type="curve" smooth="yes"/>
			<point x="323.28576" y="558.39567"/>
			<point x="294.58971" y="637.06236"/>
			<point x="262.14133" y="714.149706" type="curve"/>
			<point x="223.51231" y="607.8234"/>
			<point x="191.57938" y="499.06487"/>
			<point x="166.59454" y="388.73245" type="curve" smooth="yes"/>
			<point x="137.62656" y="260.81057"/>
			<point x="118.00321" y="130.7736"/>
		</contour>
	</outline>
</glyph>
<glyph name="B" format="2">
	<unicode hex="0042"/>
	<advance height="1000" width="543"/>
	<outline>
		<contour>
			<point x="116.44326" y="325.95661" type="line"/>
			<point x="122.57839" y="100.92226" type="line"/>
			<point x="149.73823" y="98.44695"/>
			<point x="177.04279" y="97.56047"/>
			<point x="204.306" y="98.26886" type="curve" smooth="yes"/>
			<point x="259.797" y="99.71071"/>
			<point x="315.07279" y="107.77454"/>
			<point x="368.84464" y="121.5556" type="curve" smooth="yes"/>
			<point x="392.91219" y="127.72381"/>
			<point x="417.11391" y="135.23486"/>
			<point x="437.61153" y="149.27557" type="curve" smooth="yes"/>
			<point x="447.86034" y="156.29592"/>
			<point x="457.08391" y="164.92906"/>
			<point x="464.14177" y="175.15208" type="curve" smooth="yes"/>
			<point x="471.19962" y="185.3751"/>
			<point x="476.04628" y="197.22372"/>
			<point x="477.4207" y="209.57015" type="curve" smooth="yes"/>
			<point x="479.02186" y="223.95339"/>
			<point x="475.85032" y="238.69277"/>
			<point x="469.32511" y="251.61031" type="curve" smooth="yes"/>
			<point x="462.79989" y="264.52785"/>
			<point x="453.01655" y="275.6625"/>
			<point x="441.62973" y="284.59455" type="curve" smooth="yes"/>
			<point x="418.8561" y="302.45866"/>
			<point x="390.3635" y="311.34358"/>
			<point x="362.06525" y="317.42417" type="curve" smooth="yes"/>
			<point x="308.75239" y="328.87978"/>
			<point x="253.89191" y="331.62513"/>
			<point x="199.37298" y="330.53977" type="curve" smooth="yes"/>
			<point x="171.68729" y="329.98861"/>
			<point x="144.02108" y="328.45962"/>
			<point x="116.44326" y="325.95661" type="curve"/>
		</contour>
		<contour>
			<point x="119.6566" y="701.016689" type="line"/>
			<point x="121.01451" y="433.83063" type="line"/>
			<point x="155.72002" y="429.64826"/>
			<point x="190.95539" y="429.88271"/>
			<point x="225.60217" y="434.52654" type="curve" smooth="yes"/>
			<point x="265.67734" y="439.89795"/>
			<point x="306.03158" y="451.72074"/>
			<point x="337.69849" y="476.86191" type="curve" smooth="yes"/>
			<point x="353.53195" y="489.43249"/>
			<point x="366.94112" y="505.2504"/>
			<point x="375.68308" y="523.47939" type="curve" smooth="yes"/>
			<point x="384.42503" y="541.70838"/>
			<point x="388.3755" y="562.38403"/>
			<point x="385.79653" y="582.43563" type="curve" smooth="yes"/>
			<point x="381.81259" y="613.41091"/>
			<point x="362.448" y="641.04257"/>
			<point x="337.47521" y="659.79622" type="curve" smooth="yes"/>
			<point x="312.50241" y="678.54987"/>
			<point x="282.30479" y="689.21284"/>
			<point x="251.78517" y="695.83798" type="curve" smooth="yes"/>
			<point x="208.49209" y="705.235953"/>
			<point x="163.55244" y="706.997339"/>
			<point x="119.6566" y="701.016689" type="curve"/>
		</contour>
		<contour>
			<point x="11.281921" y="0.49915" type="line"/>
			<point x="17.368717" y="40.05297"/>
			<point x="22.441709" y="79.7628"/>
			<point x="26.494237" y="119.5765" type="curve" smooth="yes"/>
			<point x="45.571297" y="306.9974"/>
			<point x="41.94779" y="496.50572"/>
			<point x="19.488017" y="683.5514" type="curve" smooth="yes"/>
			<point x="14.814035" y="722.476465"/>
			<point x="9.32736" y="761.303942"/>
			<point x="3.032772" y="800" type="curve"/>
			<point x="64.980433" y="805.0551306"/>
			<point x="127.33988" y="805.0551306"/>
			<point x="189.28754" y="800" type="curve" smooth="yes"/>
			<point x="239.32245" y="795.9169888"/>
			<point x="290.20304" y="788.190256"/>
			<point x="334.68267" y="764.915253" type="curve" smooth="yes"/>
			<point x="380.66222" y="740.85538"/>
			<point x="417.75601" y="700.473605"/>
			<point x="438.4977" y="652.90493" type="curve" smooth="yes"/>
			<point x="458.53184" y="606.95892"/>
			<point x="463.12399" y="553.21923"/>
			<point x="445.03167" y="506.47449" type="curve" smooth="yes"/>
			<point x="429.31743" y="465.87394"/>
			<point x="396.65862" y="432.14059"/>
			<point x="356.58786" y="415.12071" type="curve"/>
			<point x="401.07207" y="404.65453"/>
			<point x="442.41253" y="381.17439"/>
			<point x="474.1858" y="348.3286" type="curve" smooth="yes"/>
			<point x="508.00379" y="313.36907"/>
			<point x="531.02061" y="267.05791"/>
			<point x="533.75806" y="218.49525" type="curve" smooth="yes"/>
			<point x="536.97306" y="161.46076"/>
			<point x="511.1782" y="103.92994"/>
			<point x="467.6804" y="66.90007" type="curve" smooth="yes"/>
			<point x="439.45112" y="42.86836"/>
			<point x="404.73247" y="27.3491"/>
			<point x="368.90664" y="17.81363" type="curve" smooth="yes"/>
			<point x="333.08081" y="8.27817"/>
			<point x="295.99277" y="4.47536"/>
			<point x="259.01548" y="1.81164" type="curve" smooth="yes"/>
			<point x="176.58895" y="-4.12609"/>
			<point x="93.766735" y="-4.56488"/>
			<point x="11.281921" y="0.49915" type="curve"/>
		</contour>
	</outline>
</glyph>
<glyph name="C" format="2">
  <advance height="1000" width="518"/>
  <unicode hex="0043"/>
  <outline>
    <contour>
      <point x="465.45382" y="554.3234199999999" type="line"/>
      <point x="509.18799" y="618.63388" type="line" smooth="yes"/>
      <point x="514.18661" y="625.98429"/>
      <point x="516.29906" y="638.89432"/>
      <point x="513.24164" y="647.239" type="curve" smooth="yes"/>
      <point x="498.0121" y="688.80518"/>
      <point x="470.70621" y="725.921142"/>
      <point x="435.39868" y="752.649615" type="curve" smooth="yes"/>
      <point x="395.81269" y="782.616953"/>
      <point x="346.38908" y="799.35972027"/>
      <point x="296.74008" y="799.62167305" type="curve" smooth="yes"/>
      <point x="251.41649" y="799.86080454"/>
      <point x="206.35626" y="786.554266"/>
      <point x="167.41857" y="763.356411" type="curve" smooth="yes"/>
      <point x="128.48087" y="740.158556"/>
      <point x="95.620724" y="707.267933"/>
      <point x="70.813115" y="669.3355300000001" type="curve" smooth="yes"/>
      <point x="23.829451" y="597.49454"/>
      <point x="6.4458421" y="509.90529"/>
      <point x="3.3091941" y="424.12211" type="curve" smooth="yes"/>
      <point x="0.07111779" y="335.565"/>
      <point x="11.658913" y="244.51041999999995"/>
      <point x="52.568865" y="165.90238" type="curve" smooth="yes"/>
      <point x="75.469195" y="121.89963999999998"/>
      <point x="107.51805" y="82.32812000000001"/>
      <point x="147.57341" y="53.06664000000001" type="curve" smooth="yes"/>
      <point x="187.62876" y="23.805150000000026"/>
      <point x="235.82636" y="5.143429999999967"/>
      <point x="285.36769" y="2.6289600000000064" type="curve" smooth="yes"/>
      <point x="345.94624999999996" y="-0.445699999999988"/>
      <point x="407.15918999999997" y="21.187689999999975"/>
      <point x="453.33619999999996" y="60.51832999999999" type="curve" smooth="yes"/>
      <point x="473.35025999999993" y="77.56502999999998"/>
      <point x="490.61936999999995" y="97.81714"/>
      <point x="504.35407" y="120.23203999999998" type="curve" smooth="yes"/>
      <point x="512.85914" y="134.11222999999995"/>
      <point x="511.00084999999996" y="157.27580999999998"/>
      <point x="502.07239" y="170.89897999999994" type="curve" smooth="yes"/>
      <point x="475.4057" y="211.58734000000004" type="line" smooth="yes"/>
      <point x="461.24971000000005" y="233.18673"/>
      <point x="448.28793" y="229.40299000000005"/>
      <point x="439.37774" y="205.24081" type="curve" smooth="yes"/>
      <point x="429.70458" y="179.00964"/>
      <point x="414.06882" y="154.96024"/>
      <point x="393.7585" y="135.73604" type="curve" smooth="yes"/>
      <point x="363.9938" y="107.56304999999998"/>
      <point x="323.73187" y="89.78708000000006"/>
      <point x="282.75259000000005" y="90.38198999999997" type="curve" smooth="yes"/>
      <point x="243.88545" y="90.94623999999999"/>
      <point x="206.21822" y="107.86974999999995"/>
      <point x="177.01276" y="133.52153999999996" type="curve" smooth="yes"/>
      <point x="147.8073" y="159.17332"/>
      <point x="126.64884" y="193.09632"/>
      <point x="112.2685" y="229.20974" type="curve" smooth="yes"/>
      <point x="89.412337" y="286.60853"/>
      <point x="83.111788" y="349.50577"/>
      <point x="85.475004" y="411.24263" type="curve" smooth="yes"/>
      <point x="88.37086" y="486.89424"/>
      <point x="105.49591" y="565.23588"/>
      <point x="153.71029" y="623.6047599999999" type="curve" smooth="yes"/>
      <point x="171.45990999999998" y="645.09265"/>
      <point x="193.21876999999998" y="663.45784"/>
      <point x="218.12104" y="675.97403" type="curve" smooth="yes"/>
      <point x="243.02331999999998" y="688.49023"/>
      <point x="271.11859" y="695.02609"/>
      <point x="298.9329" y="693.25332" type="curve" smooth="yes"/>
      <point x="341.52793" y="690.53849"/>
      <point x="381.8537" y="668.02534"/>
      <point x="409.05549" y="635.13508" type="curve" smooth="yes"/>
      <point x="427.13446000000005" y="613.27542"/>
      <point x="439.66033000000004" y="586.90566"/>
      <point x="445.4476" y="559.14468" type="curve" smooth="yes"/>
      <point x="448.74539000000004" y="543.3254400000001"/>
      <point x="456.35588" y="540.9450400000001"/>
      <point x="465.45382" y="554.32342" type="curve"/>
    </contour>
  </outline>
</glyph>
<glyph name="D" format="2">
	<unicode hex="0044"/>
	<advance height="1000" width="563"/>
	<outline>
		<contour>
			<point x="169.72911" y="780.267799" type="line"/>
			<point x="185.45024" y="653.10131"/>
			<point x="192.08822" y="524.81251"/>
			<point x="189.57093" y="396.70258" type="curve" smooth="yes"/>
			<point x="187.49389" y="290.99789"/>
			<point x="179.18838" y="185.41593"/>
			<point x="164.71182" y="80.68664" type="curve"/>
			<point x="218.35985" y="73.37875"/>
			<point x="274.14416" y="82.59553"/>
			<point x="322.59036" y="106.77158" type="curve" smooth="yes"/>
			<point x="394.94308" y="142.87768"/>
			<point x="448.86345" y="211.64425"/>
			<point x="472.68514" y="288.9171" type="curve" smooth="yes"/>
			<point x="491.0198" y="348.39111"/>
			<point x="492.39074" y="412.54549"/>
			<point x="480.07054" y="473.54983" type="curve" smooth="yes"/>
			<point x="467.71276" y="534.74026"/>
			<point x="440.58325" y="594.62272"/>
			<point x="394.16062" y="636.35907" type="curve" smooth="yes"/>
			<point x="344.44192" y="681.05876"/>
			<point x="274.8143" y="701.572036"/>
			<point x="208.31012" y="694.70143" type="curve" smooth="yes"/>
			<point x="147.46629" y="688.4156"/>
			<point x="89.367523" y="659.49461"/>
			<point x="47.059968" y="615.40638" type="curve" smooth="yes"/>
			<point x="34.508112" y="602.32624"/>
			<point x="22.399783" y="604.57558"/>
			<point x="18.058348" y="622.18979" type="curve" smooth="yes"/>
			<point x="-0.41150599" y="697.12626" type="line" smooth="yes"/>
			<point x="-3.2240658" y="708.537463"/>
			<point x="2.6739679" y="722.688261"/>
			<point x="13.056136" y="728.193841" type="curve" smooth="yes"/>
			<point x="83.3459" y="765.467936"/>
			<point x="163.34402" y="784.341395"/>
			<point x="242.89006" y="782.180286" type="curve" smooth="yes"/>
			<point x="290.22092" y="780.8944"/>
			<point x="337.6197" y="772.207188"/>
			<point x="381.20867" y="753.717559" type="curve" smooth="yes"/>
			<point x="424.79763" y="735.227931"/>
			<point x="464.49469" y="706.705142"/>
			<point x="493.57005" y="669.33554" type="curve" smooth="yes"/>
			<point x="520.8504" y="634.273"/>
			<point x="538.2693" y="592.20862"/>
			<point x="547.99081" y="548.86013" type="curve" smooth="yes"/>
			<point x="557.71231" y="505.51164"/>
			<point x="559.97283" y="460.78735"/>
			<point x="559.03795" y="416.37198" type="curve" smooth="yes"/>
			<point x="557.47082" y="341.91918"/>
			<point x="546.73693" y="266.74391"/>
			<point x="517.48628" y="198.25979" type="curve" smooth="yes"/>
			<point x="488.23564" y="129.77566"/>
			<point x="439.25235" y="68.16491"/>
			<point x="373.75673" y="32.72483" type="curve" smooth="yes"/>
			<point x="343.136" y="16.15576"/>
			<point x="309.5549" y="5.54895"/>
			<point x="275.42806" y="-1.34467" type="curve" smooth="yes"/>
			<point x="217.08545" y="-13.12988"/>
			<point x="156.60072" y="-14.18451"/>
			<point x="97.870837" y="-4.53458" type="curve" smooth="yes"/>
			<point x="84.629134" y="-2.35883"/>
			<point x="76.464941" y="10.59745"/>
			<point x="79.282677" y="23.71884" type="curve" smooth="yes"/>
			<point x="105.80868" y="147.24275"/>
			<point x="117.67524" y="273.91059"/>
			<point x="114.5269" y="400.21207" type="curve" smooth="yes"/>
			<point x="111.31281" y="529.1513"/>
			<point x="92.449647" y="657.69205"/>
			<point x="58.503739" y="782.12342" type="curve" smooth="yes"/>
			<point x="55.805987" y="792.0122401"/>
			<point x="61.824446" y="800"/>
			<point x="72.074706" y="800" type="curve" smooth="yes"/>
			<point x="147.32391" y="800" type="line" smooth="yes"/>
			<point x="158.30979" y="800"/>
			<point x="168.38123" y="791.1706502"/>
			<point x="169.72911" y="780.267799" type="curve"/>
		</contour>
	</outline>
</glyph>
<glyph name="E" format="2">
	<unicode hex="0045"/>
	<advance height="1000" width="486"/>
	<outline>
		<contour>
			<point x="28.912458" y="800" type="curve" smooth="yes"/>
			<point x="451.03442" y="800" type="line" smooth="yes"/>
			<point x="458.1792204" y="799.9999998334"/>
			<point x="465.0303607354" y="797.1569321996"/>
			<point x="470.0759083787" y="792.0982147993" type="curve" smooth="yes"/>
			<point x="475.121456022" y="787.0394973991"/>
			<point x="477.9466546665" y="780.1809691251"/>
			<point x="477.92803" y="773.036193" type="curve" smooth="yes"/>
			<point x="477.69726" y="684.5089" type="line" smooth="yes"/>
			<point x="477.64816" y="665.65921"/>
			<point x="464.68189" y="658.57526"/>
			<point x="447.98667" y="667.31711" type="curve" smooth="yes"/>
			<point x="423.83313" y="679.96425"/>
			<point x="398.55711" y="690.46833"/>
			<point x="372.54914" y="698.64993" type="curve" smooth="yes"/>
			<point x="328.65046" y="712.459591"/>
			<point x="282.74333" y="719.629996"/>
			<point x="236.74068" y="720.877775" type="curve" smooth="yes"/>
			<point x="197.10273" y="721.952918"/>
			<point x="157.34756" y="718.649166"/>
			<point x="118.43081" y="711.045936" type="curve"/>
			<point x="118.07979" y="451.5843" type="line"/>
			<point x="139.60377" y="450.28799"/>
			<point x="161.20141" y="450.2158"/>
			<point x="182.73358" y="451.36817" type="curve" smooth="yes"/>
			<point x="229.82399" y="453.88839"/>
			<point x="276.59377" y="462.30223"/>
			<point x="321.6201" y="476.31683" type="curve" smooth="yes"/>
			<point x="336.80238" y="481.04237"/>
			<point x="348.7004" y="472.67747"/>
			<point x="348.47366" y="456.77668" type="curve" smooth="yes"/>
			<point x="346.76297" y="336.80659" type="line" smooth="yes"/>
			<point x="346.537" y="320.95906"/>
			<point x="334.83669" y="313.84981"/>
			<point x="320.1462" y="319.78971" type="curve" smooth="yes"/>
			<point x="277.60686" y="336.98989"/>
			<point x="232.19428" y="347.08601"/>
			<point x="186.36711" y="349.4429" type="curve" smooth="yes"/>
			<point x="164.70805" y="350.55683"/>
			<point x="142.96128" y="349.96099"/>
			<point x="121.39571" y="347.66276" type="curve"/>
			<point x="119.50521" y="107.32601" type="line"/>
			<point x="156.83467" y="93.05081"/>
			<point x="196.77397" y="85.63253"/>
			<point x="236.73975" y="85.551" type="curve" smooth="yes"/>
			<point x="268.18971" y="85.4868"/>
			<point x="299.5411" y="89.92559"/>
			<point x="330.18147" y="97.01585" type="curve" smooth="yes"/>
			<point x="370.08926" y="106.25062"/>
			<point x="408.94527" y="120.01377"/>
			<point x="445.78258" y="137.9268" type="curve" smooth="yes"/>
			<point x="463.65658" y="146.61846"/>
			<point x="477.64892" y="138.61093"/>
			<point x="477.69904" y="118.73213" type="curve" smooth="yes"/>
			<point x="477.91845" y="31.70959" type="line" smooth="yes"/>
			<point x="477.9396148687" y="23.3149867722"/>
			<point x="474.6197045356" y="15.256950869"/>
			<point x="468.6912923003" y="9.3135730692" type="curve" smooth="yes"/>
			<point x="462.7628800649" y="3.3701952693"/>
			<point x="454.7132399087" y="0.0299796188"/>
			<point x="446.31861" y="0.02998" type="curve" smooth="yes"/>
			<point x="28.483528" y="0.02998" type="line" smooth="yes"/>
			<point x="12.772471" y="0.02998"/>
			<point x="2.4106631" y="12.54368"/>
			<point x="5.1121133" y="28.02063" type="curve" smooth="yes"/>
			<point x="26.66964" y="151.52641"/>
			<point x="37.470136" y="276.90874"/>
			<point x="37.338738" y="402.28198" type="curve" smooth="yes"/>
			<point x="37.209074" y="526.00092"/>
			<point x="26.434795" y="649.70647"/>
			<point x="5.1858359" y="771.586803" type="curve" smooth="yes"/>
			<point x="2.4467626" y="787.29765"/>
			<point x="12.96451" y="800"/>
		</contour>
	</outline>
</glyph>
<glyph name="F" format="2">
	<unicode hex="0046"/>
	<advance height="1000" width="408"/>
	<outline>
		<contour>
			<point x="410.6115" y="798.54117" type="line"/>
			<point x="406.98667" y="641.59968" type="line"/>
			<point x="392.64603" y="660.17037"/>
			<point x="373.52661" y="675.01883"/>
			<point x="351.98385" y="684.3158" type="curve" smooth="yes"/>
			<point x="330.1209" y="693.75095"/>
			<point x="306.24373" y="697.41713"/>
			<point x="282.57224" y="700" type="curve" smooth="yes"/>
			<point x="221.41115" y="706.673475"/>
			<point x="159.52419" y="706.673475"/>
			<point x="98.363096" y="700" type="curve"/>
			<point x="96.554167" y="662.50801"/>
			<point x="95.480096" y="624.98057"/>
			<point x="95.141708" y="587.4465" type="curve" smooth="yes"/>
			<point x="94.775778" y="546.85738"/>
			<point x="95.270183" y="506.26052"/>
			<point x="96.62448" y="465.69235" type="curve"/>
			<point x="394.62448" y="475.69235" type="line"/>
			<point x="394.62448" y="335.69235" type="line"/>
			<point x="363.10724" y="366.1671"/>
			<point x="323.58666" y="388.29087"/>
			<point x="281.13123" y="399.2263" type="curve" smooth="yes"/>
			<point x="222.96152" y="414.20932"/>
			<point x="159.51744" y="407.73246"/>
			<point x="105.57531" y="381.3042" type="curve"/>
			<point x="91.892599" y="280.51077"/>
			<point x="92.16619" y="177.83254"/>
			<point x="106.38584" y="77.11346" type="curve" smooth="yes"/>
			<point x="110.0214" y="51.36245"/>
			<point x="114.5632" y="25.73939"/>
			<point x="120" y="0.30765" type="curve"/>
			<point x="10" y="0" type="line"/>
			<point x="21.787981" y="188.39048"/>
			<point x="23.517967" y="377.40991"/>
			<point x="15.18013" y="565.98459" type="curve" smooth="yes"/>
			<point x="11.785758" y="642.75422"/>
			<point x="6.7241241" y="719.450123"/>
			<point x="0" y="796" type="curve"/>
		</contour>
	</outline>
</glyph>
<glyph name="G" format="2">
  <advance height="1024" width="582"/>
  <unicode hex="0047"/>
  <anchor x="325.55582" y="798.6267717" name="top"/>
  <outline>
    <contour>
      <point x="431.53851" y="393.41532" type="line"/>
      <point x="440.23834999999997" y="355.58703"/>
      <point x="441.48837" y="316.06049"/>
      <point x="435.19615999999996" y="277.75808000000006" type="curve" smooth="yes"/>
      <point x="428.67719999999997" y="238.07540000000006"/>
      <point x="413.71434" y="199.15772000000004"/>
      <point x="387.84869999999995" y="168.36518" type="curve" smooth="yes"/>
      <point x="361.98306999999994" y="137.57263999999998"/>
      <point x="324.55247999999995" y="115.54722000000004"/>
      <point x="284.43754999999993" y="112.71807999999999" type="curve" smooth="yes"/>
      <point x="258.43472999999994" y="110.88420999999994"/>
      <point x="232.12861999999993" y="117.07629999999995"/>
      <point x="208.9111699999999" y="128.92786999999998" type="curve" smooth="yes"/>
      <point x="185.69372" y="140.77944000000002"/>
      <point x="165.50613" y="158.15342999999996"/>
      <point x="149.04675" y="178.36725" type="curve" smooth="yes"/>
      <point x="122.25184" y="211.27418"/>
      <point x="105.2847" y="251.59999000000005"/>
      <point x="97.383181" y="293.29411" type="curve" smooth="yes"/>
      <point x="89.481663" y="334.98823"/>
      <point x="90.413564" y="378.05203"/>
      <point x="96.965747" y="419.97938" type="curve" smooth="yes"/>
      <point x="110.89836" y="509.134"/>
      <point x="152.45306" y="596.39361"/>
      <point x="223.33335" y="652.23847" type="curve" smooth="yes"/>
      <point x="237.39246" y="663.3153"/>
      <point x="252.59122" y="673.14622"/>
      <point x="269.23273" y="679.73524" type="curve" smooth="yes"/>
      <point x="285.87423" y="686.32426"/>
      <point x="304.05459" y="689.58093"/>
      <point x="321.81569" y="687.36773" type="curve" smooth="yes"/>
      <point x="337.41783000000004" y="685.42356"/>
      <point x="352.3854" y="679.28128"/>
      <point x="365.31013" y="670.32819" type="curve" smooth="yes"/>
      <point x="378.23485" y="661.37509"/>
      <point x="389.14681" y="649.66137"/>
      <point x="397.82432" y="636.55003" type="curve" smooth="yes"/>
      <point x="414.12841" y="611.9152799999999"/>
      <point x="422.41366" y="582.11555"/>
      <point x="421.47953" y="552.60776" type="curve" smooth="yes"/>
      <point x="421.18732" y="543.37735"/>
      <point x="426.69112" y="539.23386"/>
      <point x="434.99998" y="543.27749" type="curve" smooth="yes"/>
      <point x="523.10236" y="586.1538" type="line" smooth="yes"/>
      <point x="531.41122" y="590.1974299999999"/>
      <point x="536.8706099999999" y="600.8634"/>
      <point x="534.75961" y="609.85848" type="curve" smooth="yes"/>
      <point x="528.43129" y="636.82375"/>
      <point x="518.54409" y="662.95393"/>
      <point x="505.41405999999995" y="687.34266" type="curve" smooth="yes"/>
      <point x="491.38991" y="713.392187"/>
      <point x="473.56063" y="737.576995"/>
      <point x="451.45238" y="757.236093" type="curve" smooth="yes"/>
      <point x="429.34414" y="776.895191"/>
      <point x="402.84936" y="791.9357226"/>
      <point x="374.10992" y="798.957052" type="curve" smooth="yes"/>
      <point x="333.8025" y="808.8045541"/>
      <point x="290.72219" y="802.481852"/>
      <point x="252.21342" y="787.030746" type="curve" smooth="yes"/>
      <point x="185.21941" y="760.1503299999999"/>
      <point x="131.31485" y="706.927388"/>
      <point x="92.20609" y="646.254" type="curve" smooth="yes"/>
      <point x="43.181325" y="570.1969"/>
      <point x="15.140412" y="481.0328"/>
      <point x="9.947244" y="390.69377" type="curve" smooth="yes"/>
      <point x="5.262337" y="309.19631"/>
      <point x="19.332842" y="225.79850999999996"/>
      <point x="56.870143" y="153.30895999999996" type="curve" smooth="yes"/>
      <point x="80.474279" y="107.72620999999992"/>
      <point x="113.51643" y="66.51203999999996"/>
      <point x="155.48799" y="36.95988" type="curve" smooth="yes"/>
      <point x="197.45954999999998" y="7.40772000000004"/>
      <point x="248.63475" y="-9.999869999999987"/>
      <point x="299.92746999999997" y="-8.0" type="curve" smooth="yes"/>
      <point x="364.92719999999997" y="-5.46569999999997"/>
      <point x="427.48767999999995" y="29.13504999999998"/>
      <point x="465.88631999999996" y="81.64153999999996" type="curve" smooth="yes"/>
      <point x="506.30625999999995" y="136.91197999999997"/>
      <point x="519.52806" y="207.5870299999999"/>
      <point x="522.3314899999999" y="276.0029199999999" type="curve" smooth="yes"/>
      <point x="524.0930799999999" y="318.9934599999999"/>
      <point x="522.1849799999999" y="362.1337699999999"/>
      <point x="516.6347299999999" y="404.8008999999999" type="curve"/>
    </contour>
    <contour>
      <point x="565.28817" y="455.69282" type="line"/>
      <point x="502.97446" y="464.58263999999997"/>
      <point x="439.59025" y="465.95700999999997"/>
      <point x="376.95114" y="459.75739" type="curve" smooth="yes"/>
      <point x="349.56187" y="457.04658"/>
      <point x="322.3154" y="452.89402"/>
      <point x="295.36179000000004" y="447.32423" type="curve" smooth="yes"/>
      <point x="286.31259000000006" y="445.45427"/>
      <point x="277.71187000000003" y="436.38697"/>
      <point x="276.10588000000007" y="427.28704" type="curve" smooth="yes"/>
      <point x="264.48098000000005" y="361.41739" type="line" smooth="yes"/>
      <point x="262.87499" y="352.31746"/>
      <point x="268.96200000000005" y="346.18192"/>
      <point x="278.1151100000001" y="347.44834000000003" type="curve" smooth="yes"/>
      <point x="302.7213500000001" y="350.85284"/>
      <point x="327.5242100000001" y="352.83636"/>
      <point x="352.3588500000001" y="353.38357" type="curve" smooth="yes"/>
      <point x="424.7855300000001" y="354.97942"/>
      <point x="497.4645700000001" y="344.24708000000004"/>
      <point x="566.3530600000001" y="321.83619000000004" type="curve" smooth="yes"/>
      <point x="575.1400700000002" y="318.97759"/>
      <point x="582.1741400000002" y="323.94372000000004"/>
      <point x="582.1492100000002" y="333.18425" type="curve" smooth="yes"/>
      <point x="581.8706" y="436.42137" type="line" smooth="yes"/>
      <point x="581.8457" y="445.6619"/>
      <point x="574.43594" y="454.38778"/>
      <point x="565.2881699999999" y="455.69282000000004" type="curve"/>
    </contour>
  </outline>
</glyph>
<glyph name="H" format="2">
  <advance height="1000" width="433"/>
  <unicode hex="0048"/>
  <outline>
    <contour>
      <point x="317.36883" y="675.02753" type="line"/>
      <point x="314.96077" y="703.807658"/>
      <point x="312.47634" y="732.581397"/>
      <point x="309.91558" y="761.34834" type="curve" smooth="yes"/>
      <point x="307.95843" y="783.334374"/>
      <point x="324.2159" y="800.97262163"/>
      <point x="346.28776" y="800.7498557" type="curve" smooth="yes"/>
      <point x="391.89205" y="800.28958246" type="line" smooth="yes"/>
      <point x="407.73825999999997" y="800.12965048"/>
      <point x="418.84295" y="787.271763"/>
      <point x="416.8325" y="771.552835" type="curve" smooth="yes"/>
      <point x="412.44975999999997" y="737.285828"/>
      <point x="408.5516" y="702.956843"/>
      <point x="405.13964999999996" y="668.5796" type="curve" smooth="yes"/>
      <point x="387.69462" y="492.81151"/>
      <point x="382.99008999999995" y="315.48359000000005"/>
      <point x="397.83444999999995" y="139.47678000000008" type="curve" smooth="yes"/>
      <point x="401.15453999999994" y="100.11113000000012"/>
      <point x="405.45010999999994" y="60.8277700000001"/>
      <point x="410.71566999999993" y="21.674850000000106" type="curve" smooth="yes"/>
      <point x="412.32658" y="9.69667000000004"/>
      <point x="403.93398" y="0.0"/>
      <point x="391.84792" y="0.0" type="curve" smooth="yes"/>
      <point x="330.82788999999997" y="0.0" type="line" smooth="yes"/>
      <point x="319.20255999999995" y="0.0"/>
      <point x="310.59414" y="9.38882000000001"/>
      <point x="311.57725" y="20.972510000000057" type="curve" smooth="yes"/>
      <point x="314.72706" y="58.08563000000004"/>
      <point x="317.70026" y="95.21373000000006"/>
      <point x="320.49673" y="132.3551500000001" type="curve" smooth="yes"/>
      <point x="327.12025" y="220.3257900000001"/>
      <point x="332.75496000000004" y="308.4550200000001"/>
      <point x="332.427" y="396.6740500000001" type="curve" smooth="yes"/>
      <point x="332.08147" y="489.6192200000001"/>
      <point x="325.11861000000005" y="582.4053700000001"/>
      <point x="317.36883" y="675.0275300000001" type="curve"/>
    </contour>
    <contour>
      <point x="407.56736" y="351.07315" type="line"/>
      <point x="350.26337" y="360.86372"/>
      <point x="291.74462" y="363.54064"/>
      <point x="233.78782" y="358.99" type="curve" smooth="yes"/>
      <point x="162.02053" y="353.35498"/>
      <point x="91.141694" y="336.60294"/>
      <point x="24.421065" y="309.57831" type="curve" smooth="yes"/>
      <point x="9.2919065" y="303.45037"/>
      <point x="-2.6416236" y="311.14002"/>
      <point x="-2.5296947" y="327.46393" type="curve" smooth="yes"/>
      <point x="-2.0060933" y="403.8269" type="line" smooth="yes"/>
      <point x="-1.9294063" y="415.01105"/>
      <point x="7.1250839" y="422.90882000000005"/>
      <point x="18.246679" y="421.72701" type="curve" smooth="yes"/>
      <point x="87.820856" y="414.33394"/>
      <point x="158.19576" y="414.48673"/>
      <point x="227.73572" y="422.19879000000003" type="curve" smooth="yes"/>
      <point x="287.31730999999996" y="428.80645000000004"/>
      <point x="346.28208" y="440.95877"/>
      <point x="403.62559" y="458.43203000000005" type="curve" smooth="yes"/>
      <point x="420.02655" y="463.42960000000005"/>
      <point x="433.17325999999997" y="454.0561200000001"/>
      <point x="433.17325999999997" y="436.90992000000006" type="curve" smooth="yes"/>
      <point x="433.17325999999997" y="372.27273" type="line" smooth="yes"/>
      <point x="433.17325999999997" y="357.87706000000003"/>
      <point x="421.75658999999996" y="348.64887000000004"/>
      <point x="407.56735999999995" y="351.07315" type="curve"/>
    </contour>
    <contour>
      <point x="129.13543" y="150.02567999999997" type="curve" smooth="yes"/>
      <point x="132.72255" y="110.90918999999997"/>
      <point x="136.61846000000003" y="71.82101"/>
      <point x="140.82268000000002" y="32.76603" type="curve" smooth="yes"/>
      <point x="142.75026000000003" y="14.85978"/>
      <point x="129.78399000000002" y="0.30930000000000746"/>
      <point x="111.77435000000003" y="0.25711999999998625" type="curve" smooth="yes"/>
      <point x="56.421435000000024" y="0.09673999999995431" type="line" smooth="yes"/>
      <point x="37.98094500000002" y="0.04333999999994376"/>
      <point x="24.414594000000022" y="14.885130000000004"/>
      <point x="25.994411000000024" y="33.25786999999991" type="curve" smooth="yes"/>
      <point x="28.176811000000026" y="58.63842999999986"/>
      <point x="30.181206000000024" y="84.03429999999992"/>
      <point x="32.00739100000003" y="109.44296999999995" type="curve" smooth="yes"/>
      <point x="43.860332" y="274.35915"/>
      <point x="48.1927" y="440.14867"/>
      <point x="35.33262" y="604.98937" type="curve" smooth="yes"/>
      <point x="30.891056" y="661.92141"/>
      <point x="24.401711" y="718.693646"/>
      <point x="15.882117" y="775.159567" type="curve" smooth="yes"/>
      <point x="13.810513" y="788.889683"/>
      <point x="23.25649" y="800.0"/>
      <point x="37.142073" y="800.0" type="curve" smooth="yes"/>
      <point x="114.86482000000001" y="800.0" type="line" smooth="yes"/>
      <point x="124.80478000000001" y="800.0"/>
      <point x="131.65444000000002" y="792.0329641"/>
      <point x="130.26571" y="782.190531" type="curve" smooth="yes"/>
      <point x="123.84652000000001" y="736.69527"/>
      <point x="119.04034000000001" y="690.97243"/>
      <point x="115.85978000000001" y="645.13675" type="curve" smooth="yes"/>
      <point x="104.41854000000001" y="480.25497"/>
      <point x="114.04217000000001" y="314.61334"/>
    </contour>
  </outline>
</glyph>
<glyph name="I" format="2">
	<unicode hex="0049"/>
	<advance height="1000" width="130"/>
	<outline>
		<contour>
			<point x="6.62448" y="799.69235" type="line"/>
			<point x="10.926642" y="766.027199"/>
			<point x="14.6378" y="732.286523"/>
			<point x="17.755667" y="698.49111" type="curve" smooth="yes"/>
			<point x="36.664336" y="493.53486"/>
			<point x="33.691229" y="286.85384"/>
			<point x="14.954374" y="81.88181" type="curve" smooth="yes"/>
			<point x="12.456879" y="54.56044"/>
			<point x="9.6800543" y="27.2646"/>
			<point x="6.62448" y="0" type="curve"/>
			<point x="116.62448" y="0" type="line"/>
			<point x="113.90795" y="26.51641"/>
			<point x="111.39933" y="53.05412"/>
			<point x="109.09894" y="79.60987" type="curve" smooth="yes"/>
			<point x="91.142344" y="286.90113"/>
			<point x="85.901804" y="495.70927"/>
			<point x="103.67912" y="703.015987" type="curve" smooth="yes"/>
			<point x="106.3348" y="733.984721"/>
			<point x="109.50289" y="764.909514"/>
			<point x="113.18164" y="795.77344" type="curve"/>
		</contour>
	</outline>
</glyph>
<glyph name="J" format="2">
	<unicode hex="004A"/>
	<advance height="1024" width="349"/>
	<outline>
		<contour>
			<point x="97.495386" y="740.183547" type="curve" smooth="yes"/>
			<point x="76.761509" y="732.735954"/>
			<point x="55.35452" y="727.164603"/>
			<point x="33.622102" y="723.551183" type="curve" smooth="yes"/>
			<point x="24.036794" y="721.957447"/>
			<point x="16.698104" y="713.220827"/>
			<point x="17.309984" y="703.522275" type="curve" smooth="yes"/>
			<point x="23.055491" y="612.45363" type="line" smooth="yes"/>
			<point x="23.667371" y="602.75508"/>
			<point x="31.673357" y="597.28122"/>
			<point x="40.815757" y="600.57421" type="curve" smooth="yes"/>
			<point x="71.886869" y="611.76568"/>
			<point x="101.89201" y="625.91654"/>
			<point x="130.28674" y="642.78113" type="curve" smooth="yes"/>
			<point x="158.18371" y="659.35007"/>
			<point x="184.52665" y="678.53422"/>
			<point x="208.85751" y="700" type="curve"/>
			<point x="219.29418" y="582.06574"/>
			<point x="226.80108" y="463.87223"/>
			<point x="231.36895" y="345.56522" type="curve" smooth="yes"/>
			<point x="233.56425" y="288.70734"/>
			<point x="235.03933" y="231.2742"/>
			<point x="224.23902" y="175.40837" type="curve" smooth="yes"/>
			<point x="219.99571" y="153.45934"/>
			<point x="213.70076" y="131.49155"/>
			<point x="201.45491" y="112.78848" type="curve" smooth="yes"/>
			<point x="195.33199" y="103.43694"/>
			<point x="187.74199" y="94.98707"/>
			<point x="178.73266" y="88.37093" type="curve" smooth="yes"/>
			<point x="169.72333" y="81.75479"/>
			<point x="159.2697" y="77.00468"/>
			<point x="148.24727" y="75.14795" type="curve" smooth="yes"/>
			<point x="133.53337" y="72.66939"/>
			<point x="118.28738" y="75.40504"/>
			<point x="104.40634" y="80.87852" type="curve" smooth="yes"/>
			<point x="90.525309" y="86.352"/>
			<point x="77.850849" y="94.46957"/>
			<point x="65.639045" y="103.0436" type="curve" smooth="yes"/>
			<point x="55.227264" y="110.35381"/>
			<point x="45.076195" y="118.03532"/>
			<point x="35.211265" y="126.06822" type="curve" smooth="yes"/>
			<point x="27.676057" y="132.20405"/>
			<point x="19.483918" y="129.85642"/>
			<point x="16.686218" y="120.55001" type="curve" smooth="yes"/>
			<point x="-6.3897355" y="43.78905" type="line" smooth="yes"/>
			<point x="-9.1874358" y="34.48264"/>
			<point x="-4.6618588" y="22.92287"/>
			<point x="4.0894844" y="18.70328" type="curve" smooth="yes"/>
			<point x="30.220053" y="6.10405"/>
			<point x="58.702682" y="-1.61825"/>
			<point x="87.627184" y="-3.86966" type="curve" smooth="yes"/>
			<point x="113.68877" y="-5.89823"/>
			<point x="140.17358" y="-3.49721"/>
			<point x="165.18955" y="4.08715" type="curve" smooth="yes"/>
			<point x="217.60753" y="19.97927"/>
			<point x="262.35208" y="59.4066"/>
			<point x="284.91956" y="109.31565" type="curve" smooth="yes"/>
			<point x="299.14339" y="140.77232"/>
			<point x="304.71164" y="175.39178"/>
			<point x="308.62448" y="209.69235" type="curve" smooth="yes"/>
			<point x="329.91806" y="396.35542"/>
			<point x="306.23321" y="585.5553"/>
			<point x="321.15087" y="772.83579" type="curve" smooth="yes"/>
			<point x="321.66151" y="779.246447"/>
			<point x="322.21731" y="785.653507"/>
			<point x="322.81822" y="792.0563334" type="curve" smooth="yes"/>
			<point x="323.23007" y="796.4447183"/>
			<point x="320.01563" y="799.89127039"/>
			<point x="315.60999" y="799.75714561" type="curve" smooth="yes"/>
			<point x="203.61938" y="796.3477121" type="line" smooth="yes"/>
			<point x="201.15138" y="796.2725771"/>
			<point x="197.57431" y="794.9779889"/>
			<point x="195.60919" y="793.4830446" type="curve" smooth="yes"/>
			<point x="165.87228" y="770.861022"/>
			<point x="132.65968" y="752.814536"/>
		</contour>
	</outline>
</glyph>
<glyph name="K" format="2">
	<unicode hex="004B"/>
	<advance height="2048" width="1267"/>
	<outline>
		<contour>
			<point x="1122" y="-24" type="curve" smooth="yes"/>
			<point x="1137" y="-24"/>
			<point x="1151" y="-22"/>
			<point x="1163" y="-20" type="curve" smooth="yes"/>
			<point x="1190" y="-15"/>
			<point x="1243" y="5"/>
			<point x="1243" y="36" type="curve" smooth="yes"/>
			<point x="1243" y="42"/>
			<point x="1241" y="49"/>
			<point x="1235" y="57" type="curve" smooth="yes"/>
			<point x="674" y="805" type="line"/>
			<point x="1229" y="1314" type="line" smooth="yes"/>
			<point x="1237" y="1321"/>
			<point x="1241" y="1329"/>
			<point x="1241" y="1335" type="curve" smooth="yes"/>
			<point x="1241" y="1355"/>
			<point x="1213" y="1371"/>
			<point x="1192" y="1376" type="curve" smooth="yes"/>
			<point x="1180" y="1379"/>
			<point x="1165" y="1381"/>
			<point x="1149" y="1381" type="curve" smooth="yes"/>
			<point x="1120" y="1381"/>
			<point x="1089" y="1374"/>
			<point x="1072" y="1358" type="curve" smooth="yes"/>
			<point x="302" y="653" type="line"/>
			<point x="302" y="1330" type="line" smooth="yes"/>
			<point x="302" y="1369"/>
			<point x="230" y="1381"/>
			<point x="200" y="1381" type="curve" smooth="yes"/>
			<point x="171" y="1381"/>
			<point x="99" y="1369"/>
			<point x="99" y="1330" type="curve" smooth="yes"/>
			<point x="99" y="27" type="line" smooth="yes"/>
			<point x="99" y="-12"/>
			<point x="171" y="-24"/>
			<point x="200" y="-24" type="curve" smooth="yes"/>
			<point x="230" y="-24"/>
			<point x="302" y="-12"/>
			<point x="302" y="27" type="curve" smooth="yes"/>
			<point x="302" y="465" type="line"/>
			<point x="522" y="666" type="line"/>
			<point x="1010" y="15" type="line" smooth="yes"/>
			<point x="1031" y="-13"/>
			<point x="1080" y="-24"/>
		</contour>
	</outline>
</glyph>
<glyph name="L" format="2">
	<unicode hex="004C"/>
	<advance height="1000" width="396"/>
	<outline>
		<contour>
			<point x="22.190924" y="780.264505" type="curve" smooth="yes"/>
			<point x="26.958248" y="752.303987"/>
			<point x="30.550854" y="724.143173"/>
			<point x="32.955095" y="695.88122" type="curve" smooth="yes"/>
			<point x="48.887201" y="508.59863"/>
			<point x="12.552964" y="321.01265"/>
			<point x="9.0145829" y="133.08692" type="curve" smooth="yes"/>
			<point x="8.3718462" y="98.95075"/>
			<point x="8.812986" y="64.79419"/>
			<point x="10.336461" y="30.68598" type="curve" smooth="yes"/>
			<point x="11.093788" y="13.7306"/>
			<point x="25.758964" y="0"/>
			<point x="42.731507" y="0" type="curve" smooth="yes"/>
			<point x="346.73688" y="0" type="line" smooth="yes"/>
			<point x="363.9651302573" y="-0.0000021904"/>
			<point x="378.1795792508" y="13.4845113872"/>
			<point x="379.08696" y="30.68885" type="curve" smooth="yes"/>
			<point x="382.34539" y="92.4703" type="line" smooth="yes"/>
			<point x="383.2393" y="109.41928"/>
			<point x="371.90106" y="116.50338"/>
			<point x="356.47766" y="109.42666" type="curve" smooth="yes"/>
			<point x="305.36035" y="85.97248"/>
			<point x="249.98786" y="71.79328"/>
			<point x="193.87662" y="67.91107" type="curve" smooth="yes"/>
			<point x="158.7986" y="65.4841"/>
			<point x="123.44658" y="67.03966"/>
			<point x="88.7173" y="72.53829" type="curve"/>
			<point x="86.109973" y="104.96089"/>
			<point x="84.627436" y="137.47392"/>
			<point x="84.273253" y="169.99926" type="curve" smooth="yes"/>
			<point x="83.285036" y="260.74923"/>
			<point x="91.076572" y="351.35928"/>
			<point x="100.34765" y="441.63985" type="curve" smooth="yes"/>
			<point x="109.04045" y="526.28921"/>
			<point x="119.04349" y="610.84209"/>
			<point x="124.39642" y="695.76809" type="curve" smooth="yes"/>
			<point x="126.10027" y="722.800225"/>
			<point x="127.3323" y="749.862097"/>
			<point x="128.09184" y="776.937224" type="curve" smooth="yes"/>
			<point x="128.44911" y="789.67283"/>
			<point x="118.29613" y="800"/>
			<point x="105.55546" y="800" type="curve" smooth="yes"/>
			<point x="38.679964" y="800" type="line" smooth="yes"/>
			<point x="27.603626" y="800"/>
			<point x="20.329283" y="791.1830921"/>
		</contour>
	</outline>
</glyph>
<glyph name="M" format="2">
	<unicode hex="004D"/>
	<advance height="1000" width="558"/>
	<outline>
		<contour>
			<point x="104.71825" y="-1.79669" type="line"/>
			<point x="50.680373" y="-1.81559" type="line" smooth="yes"/>
			<point x="31.408608" y="-1.82228"/>
			<point x="13.537258" y="13.6396"/>
			<point x="11.590067" y="32.81154" type="curve" smooth="yes"/>
			<point x="7.885951" y="69.28205"/>
			<point x="6.4010789" y="105.97802"/>
			<point x="7.1516436" y="142.62851" type="curve" smooth="yes"/>
			<point x="8.8781047" y="226.93257"/>
			<point x="22.383563" y="310.51338"/>
			<point x="29.15687" y="394.56264" type="curve" smooth="yes"/>
			<point x="39.511455" y="523.0516"/>
			<point x="34.05291" y="652.80591"/>
			<point x="12.967807" y="779.974538" type="curve" smooth="yes"/>
			<point x="11.132033" y="791.0464712"/>
			<point x="17.635423" y="795.8784679"/>
			<point x="27.299232" y="790.1744166" type="curve" smooth="yes"/>
			<point x="56.82804" y="772.745074"/>
			<point x="83.850795" y="751.069686"/>
			<point x="107.24426" y="725.99877" type="curve" smooth="yes"/>
			<point x="188.52764" y="638.88689"/>
			<point x="221.12098" y="517.9477"/>
			<point x="244.73027" y="401.16556" type="curve" smooth="yes"/>
			<point x="255.70677" y="346.87088"/>
			<point x="265.35618" y="292.30792"/>
			<point x="273.66698" y="237.54182" type="curve"/>
			<point x="285.39499" y="292.02995"/>
			<point x="297.96392" y="346.33708"/>
			<point x="311.36778" y="400.43735" type="curve" smooth="yes"/>
			<point x="340.0588" y="516.23918"/>
			<point x="375.24986" y="635.98972"/>
			<point x="456.95583" y="722.922862" type="curve" smooth="yes"/>
			<point x="478.89649" y="746.267188"/>
			<point x="503.86094" y="766.762543"/>
			<point x="531.00881" y="783.771154" type="curve" smooth="yes"/>
			<point x="544.55192" y="792.2561472"/>
			<point x="553.31866" y="785.515448"/>
			<point x="550.23375" y="769.830615" type="curve" smooth="yes"/>
			<point x="526.1401" y="647.32938"/>
			<point x="518.15708" y="521.66483"/>
			<point x="526.59844" y="397.10108" type="curve" smooth="yes"/>
			<point x="532.40918" y="311.35572"/>
			<point x="545.94344" y="226.23013"/>
			<point x="550.32236" y="140.39974" type="curve" smooth="yes"/>
			<point x="552.43161" y="99.0568"/>
			<point x="552.41043" y="57.60529"/>
			<point x="550.26056" y="16.26445" type="curve" smooth="yes"/>
			<point x="549.74072" y="6.26821"/>
			<point x="541.06872" y="-1.82776"/>
			<point x="531.05887" y="-1.82776" type="curve" smooth="yes"/>
			<point x="446.06239" y="-1.82776" type="line" smooth="yes"/>
			<point x="432.249" y="-1.82776"/>
			<point x="425.10031" y="8.61836"/>
			<point x="429.50745" y="21.70885" type="curve" smooth="yes"/>
			<point x="442.53595" y="60.40734"/>
			<point x="451.74476" y="100.39186"/>
			<point x="456.94039" y="140.89302" type="curve" smooth="yes"/>
			<point x="467.84616" y="225.90602"/>
			<point x="461.05903" y="312.04951"/>
			<point x="461.32503" y="397.75876" type="curve" smooth="yes"/>
			<point x="461.53261" y="464.647"/>
			<point x="466.0552" y="531.52155"/>
			<point x="474.85535" y="597.82869" type="curve"/>
			<point x="427.49285" y="539.70617"/>
			<point x="391.60206" y="472.27241"/>
			<point x="369.84201" y="400.52331" type="curve" smooth="yes"/>
			<point x="347.14265" y="325.67705"/>
			<point x="339.90782" y="246.1913"/>
			<point x="348.5764" y="168.467" type="curve" smooth="yes"/>
			<point x="350.2007" y="153.9032"/>
			<point x="340.24838" y="142.27052"/>
			<point x="325.59346" y="142.39175" type="curve" smooth="yes"/>
			<point x="233.82391" y="143.15093" type="line" smooth="yes"/>
			<point x="220.51918" y="143.26099"/>
			<point x="209.86737" y="154.13737"/>
			<point x="209.66804" y="167.44077" type="curve" smooth="yes"/>
			<point x="208.50736" y="244.9043"/>
			<point x="198.19007" y="322.22906"/>
			<point x="178.97462" y="397.28116" type="curve" smooth="yes"/>
			<point x="159.95513" y="471.5679"/>
			<point x="132.22973" y="543.62179"/>
			<point x="96.54723" y="611.49682" type="curve"/>
			<point x="95.509957" y="540.40224"/>
			<point x="93.301229" y="469.32475"/>
			<point x="89.922246" y="398.30293" type="curve" smooth="yes"/>
			<point x="85.870808" y="313.147"/>
			<point x="80.183882" y="227.15173"/>
			<point x="94.730046" y="143.14961" type="curve" smooth="yes"/>
			<point x="101.31621" y="105.11543"/>
			<point x="112.04119" y="67.80121"/>
			<point x="126.62673" y="32.06326" type="curve" smooth="yes"/>
			<point x="134.37016" y="13.09006"/>
			<point x="125.21488" y="-1.78953"/>
			<point x="104.71825" y="-1.79669" type="curve"/>
		</contour>
	</outline>
</glyph>
<glyph name="N" format="2">
  <advance height="1000" width="504"/>
  <unicode hex="004E"/>
  <outline>
    <contour>
      <point x="125.76931" y="615.62076" type="line"/>
      <point x="122.42169" y="536.17614"/>
      <point x="115.82751" y="456.89943"/>
      <point x="112.08018" y="377.47266" type="curve" smooth="yes"/>
      <point x="108.31017" y="297.56522"/>
      <point x="107.45305" y="217.07400000000007"/>
      <point x="119.67669" y="138.01709000000005" type="curve" smooth="yes"/>
      <point x="125.05162" y="103.25452000000007"/>
      <point x="132.94880999999998" y="68.88261000000011"/>
      <point x="143.27642" y="35.25732000000005" type="curve" smooth="yes"/>
      <point x="149.62167" y="14.59802000000002"/>
      <point x="138.24315" y="-1.8279199999999491"/>
      <point x="116.62877" y="-1.8279199999999491" type="curve" smooth="yes"/>
      <point x="70.317532" y="-1.8279199999999491" type="line" smooth="yes"/>
      <point x="56.03456" y="-1.8279199999999491"/>
      <point x="43.276831" y="9.691370000000006"/>
      <point x="42.068381" y="23.922980000000052" type="curve" smooth="yes"/>
      <point x="39.10258" y="58.85047999999995"/>
      <point x="37.236269" y="93.87134000000003"/>
      <point x="36.473682" y="128.91624000000002" type="curve" smooth="yes"/>
      <point x="32.854414" y="295.2406"/>
      <point x="54.082751" y="461.26264"/>
      <point x="52.860081" y="627.62188" type="curve" smooth="yes"/>
      <point x="52.484137" y="678.77363"/>
      <point x="49.983521" y="729.909715"/>
      <point x="45.367751" y="780.854166" type="curve" smooth="yes"/>
      <point x="44.409245" y="791.4332498"/>
      <point x="52.143764" y="800.0"/>
      <point x="62.766229" y="800.0" type="curve" smooth="yes"/>
      <point x="128.10347000000002" y="800.0" type="line" smooth="yes"/>
      <point x="136.89728000000002" y="800.0"/>
      <point x="148.07539000000003" y="794.1313647"/>
      <point x="152.87171" y="786.76097" type="curve" smooth="yes"/>
      <point x="171.48414" y="758.159689"/>
      <point x="187.86876" y="728.108711"/>
      <point x="201.82349" y="696.96828" type="curve" smooth="yes"/>
      <point x="256.45349999999996" y="575.05967"/>
      <point x="272.83934" y="439.32943"/>
      <point x="321.20199" y="314.80152" type="curve" smooth="yes"/>
      <point x="343.10763000000003" y="258.39717999999993"/>
      <point x="371.52546" y="204.52498000000003"/>
      <point x="405.71015" y="154.59789" type="curve"/>
      <point x="407.50305" y="230.04499999999996"/>
      <point x="407.94658" y="305.52416"/>
      <point x="407.04046" y="380.98713" type="curve" smooth="yes"/>
      <point x="405.74916" y="488.52773"/>
      <point x="401.67337" y="596.4594999999999"/>
      <point x="382.89608" y="702.355966" type="curve" smooth="yes"/>
      <point x="378.41091" y="727.650529"/>
      <point x="373.09147" y="752.797143"/>
      <point x="366.9498" y="777.741306" type="curve" smooth="yes"/>
      <point x="364.16528" y="789.05049"/>
      <point x="371.1653" y="798.172077"/>
      <point x="382.81239" y="798.172077" type="curve" smooth="yes"/>
      <point x="446.35617" y="798.172077" type="line" smooth="yes"/>
      <point x="466.1924" y="798.172077"/>
      <point x="483.65426" y="782.148801"/>
      <point x="484.88144" y="762.350947" type="curve" smooth="yes"/>
      <point x="486.17775" y="741.437882"/>
      <point x="487.07925" y="720.500345"/>
      <point x="487.58513" y="699.55325" type="curve" smooth="yes"/>
      <point x="491.66616999999997" y="530.56836"/>
      <point x="470.00613" y="361.63301"/>
      <point x="476.42009" y="192.72058000000004" type="curve" smooth="yes"/>
      <point x="478.5126" y="137.61419999999998"/>
      <point x="483.5958" y="82.62160000000006"/>
      <point x="491.63666" y="28.064910000000054" type="curve" smooth="yes"/>
      <point x="494.11688" y="11.236790000000042"/>
      <point x="482.60378000000003" y="-0.9430999999999585"/>
      <point x="466.30428" y="3.853560000000016" type="curve" smooth="yes"/>
      <point x="454.00056" y="7.474330000000009"/>
      <point x="442.07026" y="12.364810000000034"/>
      <point x="430.77579000000003" y="18.441869999999994" type="curve" smooth="yes"/>
      <point x="380.2618" y="45.62123999999994"/>
      <point x="345.2294" y="94.46870000000001"/>
      <point x="316.75792" y="144.26585" type="curve" smooth="yes"/>
      <point x="252.93282" y="255.89712999999995"/>
      <point x="213.29071" y="379.52784"/>
      <point x="178.12917" y="503.21637" type="curve" smooth="yes"/>
      <point x="164.28648" y="551.9111"/>
      <point x="150.71027" y="601.60051"/>
      <point x="123.60848" y="644.35901" type="curve" smooth="yes"/>
      <point x="110.45955" y="665.1040800000001"/>
      <point x="94.264118" y="683.91467"/>
      <point x="75.703021" y="700.0" type="curve"/>
      <point x="128.25945" y="762.155292" type="line"/>
      <point x="128.65661" y="713.299872"/>
      <point x="127.82620999999999" y="664.43448"/>
      <point x="125.76930999999999" y="615.62076" type="curve"/>
    </contour>
  </outline>
</glyph>
<glyph name="O" format="2">
	<unicode hex="004F"/>
	<advance height="1000" width="598"/>
	<outline>
		<contour>
			<point x="519.88424" y="400.65657" type="curve" smooth="yes"/>
			<point x="519.49375" y="331.53231"/>
			<point x="503.74692" y="260.75065"/>
			<point x="463.68681" y="204.41679" type="curve" smooth="yes"/>
			<point x="443.65675" y="176.24987"/>
			<point x="417.70669" y="152.09405"/>
			<point x="387.35625" y="135.55835" type="curve" smooth="yes"/>
			<point x="357.0058" y="119.02265"/>
			<point x="322.21461" y="110.27585"/>
			<point x="287.70097" y="112.11643" type="curve" smooth="yes"/>
			<point x="255.12996" y="113.85341"/>
			<point x="223.29914" y="124.9734"/>
			<point x="195.90133" y="142.6722" type="curve" smooth="yes"/>
			<point x="168.50352" y="160.37101"/>
			<point x="145.49028" y="184.51952"/>
			<point x="127.85153" y="211.95603" type="curve" smooth="yes"/>
			<point x="92.574014" y="266.82904"/>
			<point x="79.25292" y="333.51664"/>
			<point x="79.070856" y="398.75097" type="curve" smooth="yes"/>
			<point x="78.881829" y="466.48015"/>
			<point x="92.903878" y="535.89559"/>
			<point x="130.40177" y="592.29759" type="curve" smooth="yes"/>
			<point x="149.15071" y="620.49859"/>
			<point x="173.63614" y="645.0717"/>
			<point x="202.63176" y="662.56666" type="curve" smooth="yes"/>
			<point x="231.62737" y="680.06161"/>
			<point x="265.1811" y="690.32645"/>
			<point x="299.04553" y="690.46557" type="curve" smooth="yes"/>
			<point x="332.8669" y="690.60451"/>
			<point x="366.46498" y="680.64023"/>
			<point x="395.56403" y="663.4022" type="curve" smooth="yes"/>
			<point x="424.66309" y="646.16417"/>
			<point x="449.30733" y="621.80341"/>
			<point x="468.20655" y="593.75481" type="curve" smooth="yes"/>
			<point x="506.00499" y="537.6576"/>
			<point x="520.26636" y="468.29881"/>
		</contour>
		<contour>
			<point x="298.89621" y="800" type="curve" smooth="yes"/>
			<point x="252.61565" y="799.8040096"/>
			<point x="206.80474" y="785.35523"/>
			<point x="167.4943" y="760.929462" type="curve" smooth="yes"/>
			<point x="128.18387" y="736.503694"/>
			<point x="95.291262" y="702.330518"/>
			<point x="70.339325" y="663.35194" type="curve" smooth="yes"/>
			<point x="20.435451" y="585.3948"/>
			<point x="2.9227815" y="490.40034"/>
			<point x="3.144359" y="397.83866" type="curve" smooth="yes"/>
			<point x="3.3578904" y="308.63816"/>
			<point x="19.984468" y="217.31262"/>
			<point x="66.934032" y="141.46729" type="curve" smooth="yes"/>
			<point x="90.408814" y="103.54463"/>
			<point x="121.32834" y="69.98013"/>
			<point x="158.4821" y="45.30642" type="curve" smooth="yes"/>
			<point x="195.63586" y="20.63271"/>
			<point x="239.106" y="5.04513"/>
			<point x="283.64367" y="2.68077" type="curve" smooth="yes"/>
			<point x="330.77641" y="0.17865"/>
			<point x="378.26367" y="12.5617"/>
			<point x="419.40779" y="35.68997" type="curve" smooth="yes"/>
			<point x="460.55192" y="58.81824"/>
			<point x="495.42495" y="92.43668"/>
			<point x="522.10096" y="131.37441" type="curve" smooth="yes"/>
			<point x="575.45298" y="209.24985"/>
			<point x="595.25312" y="306.06917"/>
			<point x="595.80975" y="400.46575" type="curve" smooth="yes"/>
			<point x="596.35486" y="492.90766"/>
			<point x="578.52822" y="587.8366"/>
			<point x="528.20252" y="665.38097" type="curve" smooth="yes"/>
			<point x="503.03968" y="704.153158"/>
			<point x="469.9189" y="738.034576"/>
			<point x="430.45759" y="762.102329" type="curve" smooth="yes"/>
			<point x="390.99629" y="786.170081"/>
			<point x="345.11756" y="800.19573966"/>
		</contour>
	</outline>
</glyph>
<glyph name="P" format="2">
	<unicode hex="0050"/>
	<advance height="1000" width="460"/>
	<outline>
		<contour>
			<point x="140.87259" y="394.31298" type="line"/>
			<point x="170.20188" y="382.84431"/>
			<point x="202.45791" y="378.95318"/>
			<point x="233.67313" y="383.1182" type="curve" smooth="yes"/>
			<point x="264.88836" y="387.28323"/>
			<point x="294.99573" y="399.49547"/>
			<point x="320.29198" y="418.2528" type="curve" smooth="yes"/>
			<point x="343.3894" y="435.37968"/>
			<point x="362.50859" y="458.01224"/>
			<point x="374.72563" y="484.04231" type="curve" smooth="yes"/>
			<point x="386.94266" y="510.07239"/>
			<point x="392.14009" y="539.48569"/>
			<point x="388.69676" y="568.03327" type="curve" smooth="yes"/>
			<point x="384.6422" y="601.64829"/>
			<point x="368.56554" y="633.52161"/>
			<point x="344.67828" y="657.51761" type="curve" smooth="yes"/>
			<point x="320.79101" y="681.5136"/>
			<point x="289.32915" y="697.63654"/>
			<point x="256.08607" y="704.063598" type="curve" smooth="yes"/>
			<point x="210.43808" y="712.888963"/>
			<point x="161.48042" y="703.173499"/>
			<point x="122.66153" y="677.586" type="curve" smooth="yes"/>
			<point x="91.490875" y="657.03983"/>
			<point x="67.148039" y="626.4514"/>
			<point x="53.647794" y="591.67482" type="curve" smooth="yes"/>
			<point x="48.164114" y="577.54888"/>
			<point x="41.182241" y="576.83117"/>
			<point x="35.574881" y="590.92502" type="curve" smooth="yes"/>
			<point x="9.3863272" y="656.74879" type="line" smooth="yes"/>
			<point x="3.3897148" y="671.82101"/>
			<point x="7.1431712" y="694.02271"/>
			<point x="18.983326" y="705.101495" type="curve" smooth="yes"/>
			<point x="73.052014" y="755.693339"/>
			<point x="145.20482" y="786.849581"/>
			<point x="219.2114" y="790.7240056" type="curve" smooth="yes"/>
			<point x="272.07651" y="793.4916226"/>
			<point x="326.93685" y="782.115775"/>
			<point x="369.90569" y="751.195574" type="curve" smooth="yes"/>
			<point x="398.69394" y="730.479668"/>
			<point x="421.30696" y="701.522295"/>
			<point x="435.42184" y="668.9849" type="curve" smooth="yes"/>
			<point x="449.53672" y="636.4475"/>
			<point x="455.23021" y="600.43412"/>
			<point x="452.92414" y="565.04211" type="curve" smooth="yes"/>
			<point x="449.58123" y="513.73746"/>
			<point x="429.54315" y="464.16904"/>
			<point x="399.25855" y="422.62165" type="curve" smooth="yes"/>
			<point x="368.97396" y="381.07427"/>
			<point x="328.73854" y="347.32573"/>
			<point x="284.37771" y="321.33613" type="curve" smooth="yes"/>
			<point x="241.98436" y="296.49921"/>
			<point x="195.60071" y="278.48996"/>
			<point x="147.55453" y="268.21216" type="curve"/>
		</contour>
		<contour>
			<point x="179.1269" y="140.5503" type="curve" smooth="yes"/>
			<point x="183.71624" y="104.34265"/>
			<point x="191.5879" y="68.55255"/>
			<point x="202.59749" y="33.75558" type="curve" smooth="yes"/>
			<point x="208.55412" y="14.92903"/>
			<point x="198.37361" y="0"/>
			<point x="178.62433" y="0" type="curve" smooth="yes"/>
			<point x="125.90719" y="0" type="line" smooth="yes"/>
			<point x="107.22022" y="0"/>
			<point x="92.630142" y="15.13857"/>
			<point x="93.414442" y="33.80906" type="curve" smooth="yes"/>
			<point x="94.815934" y="67.17194"/>
			<point x="96.442675" y="100.52536"/>
			<point x="98.294525" y="133.86627" type="curve" smooth="yes"/>
			<point x="107.23252" y="294.78691"/>
			<point x="121.35843" y="457.06864"/>
			<point x="97.223244" y="616.41993" type="curve" smooth="yes"/>
			<point x="88.538258" y="673.76209"/>
			<point x="74.92016" y="730.356003"/>
			<point x="56.574751" y="785.374037" type="curve" smooth="yes"/>
			<point x="53.87434" y="793.4725911"/>
			<point x="58.493986" y="800"/>
			<point x="67.030977" y="800" type="curve" smooth="yes"/>
			<point x="135.90298" y="800" type="line" smooth="yes"/>
			<point x="150.14319" y="800"/>
			<point x="163.72691" y="788.636705"/>
			<point x="165.98604" y="774.576991" type="curve" smooth="yes"/>
			<point x="182.47549" y="671.9544"/>
			<point x="188.80545" y="567.70072"/>
			<point x="184.83671" y="463.83722" type="curve" smooth="yes"/>
			<point x="180.71517" y="355.97465"/>
			<point x="165.55387" y="247.63482"/>
		</contour>
	</outline>
</glyph>
<glyph name="Q" format="2">
	<unicode hex="0051"/>
	<advance height="1000" width="603"/>
	<outline>
		<contour>
			<point x="432.80711" y="98.84086" type="curve" smooth="yes"/>
			<point x="477.82237" y="42.82548"/>
			<point x="511.58004" y="-23.13138"/>
			<point x="531.23784" y="-93.47638" type="curve"/>
			<point x="608.2759" y="-1.48878" type="line"/>
			<point x="568.51335" y="39.49953"/>
			<point x="530.74327" y="82.62182"/>
			<point x="495.16206" y="127.65384" type="curve" smooth="yes"/>
			<point x="443.90355" y="192.52727"/>
			<point x="397.1925" y="261.36706"/>
			<point x="355.5322" y="333.43147" type="curve"/>
			<point x="295.47687" y="218.3251" type="line"/>
			<point x="347.51465" y="187.47835"/>
			<point x="394.25993" y="146.80761"/>
		</contour>
		<contour>
			<point x="528.31854" y="400.08634" type="curve" smooth="yes"/>
			<point x="527.989" y="328.95588"/>
			<point x="509.23791" y="256.51629"/>
			<point x="467.42065" y="200.5797" type="curve" smooth="yes"/>
			<point x="446.51201" y="172.6114"/>
			<point x="420.03625" y="149.08632"/>
			<point x="389.74966" y="133.20772" type="curve" smooth="yes"/>
			<point x="359.46307" y="117.32914"/>
			<point x="325.35389" y="109.22343"/>
			<point x="291.5556" y="111.1342" type="curve" smooth="yes"/>
			<point x="259.77299" y="112.93101"/>
			<point x="228.60857" y="123.54767"/>
			<point x="201.29053" y="140.71047" type="curve" smooth="yes"/>
			<point x="173.9725" y="157.87326"/>
			<point x="150.47975" y="181.48566"/>
			<point x="132.03737" y="208.74375" type="curve" smooth="yes"/>
			<point x="95.15256" y="263.25994"/>
			<point x="79.06106" y="331.28939"/>
			<point x="78.81041" y="398.17802" type="curve" smooth="yes"/>
			<point x="78.54978" y="467.72918"/>
			<point x="95.47298" y="538.6844"/>
			<point x="134.6838" y="594.7189" type="curve" smooth="yes"/>
			<point x="154.2892" y="622.73615"/>
			<point x="179.29479" y="646.72288"/>
			<point x="208.225" y="663.61245" type="curve" smooth="yes"/>
			<point x="237.15521" y="680.50201"/>
			<point x="270.02863" y="690.18041"/>
			<point x="303.12393" y="690.30917" type="curve" smooth="yes"/>
			<point x="336.17658" y="690.43775"/>
			<point x="369.0777" y="681.03914"/>
			<point x="398.08871" y="664.39666" type="curve" smooth="yes"/>
			<point x="427.09973" y="647.75417"/>
			<point x="452.23679" y="623.98067"/>
			<point x="471.9768" y="596.12384" type="curve" smooth="yes"/>
			<point x="511.45683" y="540.41018"/>
			<point x="528.64036" y="469.54756"/>
		</contour>
		<contour>
			<point x="302.97166" y="800" type="curve" smooth="yes"/>
			<point x="257.78144" y="799.81654675"/>
			<point x="212.93438" y="786.162255"/>
			<point x="173.72744" y="762.54904" type="curve" smooth="yes"/>
			<point x="134.5205" y="738.935815"/>
			<point x="100.91516" y="705.540042"/>
			<point x="74.7904" y="666.79401" type="curve" smooth="yes"/>
			<point x="22.540877" y="589.30195"/>
			<point x="1.070006" y="492.23375"/>
			<point x="1.386314" y="397.26441" type="curve" smooth="yes"/>
			<point x="1.690685" y="305.8792"/>
			<point x="22.10203" y="212.74188"/>
			<point x="71.25475" y="137.35083" type="curve" smooth="yes"/>
			<point x="95.83112" y="99.6553"/>
			<point x="127.40797" y="66.80285"/>
			<point x="164.43884" y="42.84928" type="curve" smooth="yes"/>
			<point x="201.46973" y="18.89572"/>
			<point x="243.99568" y="3.99056"/>
			<point x="287.41828" y="1.54227" type="curve" smooth="yes"/>
			<point x="333.53352" y="-1.05784"/>
			<point x="380.05513" y="10.45496"/>
			<point x="421.09829" y="32.7005" type="curve" smooth="yes"/>
			<point x="462.14146" y="54.94605"/>
			<point x="497.73511" y="87.72857"/>
			<point x="525.61358" y="126.41538" type="curve" smooth="yes"/>
			<point x="581.37049" y="203.78901"/>
			<point x="605.26346" y="302.84395"/>
			<point x="605.74162" y="399.89524" type="curve" smooth="yes"/>
			<point x="606.20893" y="494.74273"/>
			<point x="584.39618" y="591.7044"/>
			<point x="531.7659" y="668.76238" type="curve" smooth="yes"/>
			<point x="505.45078" y="707.291353"/>
			<point x="471.65338" y="740.393095"/>
			<point x="432.32541" y="763.659792" type="curve" smooth="yes"/>
			<point x="392.99744" y="786.926478"/>
			<point x="348.10423" y="800.18322065"/>
		</contour>
	</outline>
</glyph>
<glyph name="R" format="2">
  <advance height="1000" width="517"/>
  <unicode hex="0052"/>
  <outline>
    <contour>
      <point x="202.39245" y="317.24045" type="line"/>
      <point x="254.66688" y="364.90389" type="line"/>
      <point x="292.52202" y="344.77633"/>
      <point x="325.58121" y="315.69944"/>
      <point x="350.37654" y="280.72342000000003" type="curve" smooth="yes"/>
      <point x="395.05091999999996" y="217.70622000000003"/>
      <point x="411.77398" y="138.42447000000004"/>
      <point x="455.17071" y="74.52071000000001" type="curve" smooth="yes"/>
      <point x="469.35856" y="53.62842999999998"/>
      <point x="486.29925" y="34.61186999999995"/>
      <point x="505.3913" y="18.081890000000044" type="curve" smooth="yes"/>
      <point x="517.65927" y="7.460220000000049"/>
      <point x="515.39004" y="0.0"/>
      <point x="499.15583" y="0.0" type="curve" smooth="yes"/>
      <point x="426.94516999999996" y="0.0" type="line" smooth="yes"/>
      <point x="417.25377" y="0.0"/>
      <point x="404.04625" y="5.761380000000031"/>
      <point x="397.88104999999996" y="13.237460000000056" type="curve" smooth="yes"/>
      <point x="375.23254999999995" y="40.7016000000001"/>
      <point x="356.98299" y="71.79253000000006"/>
      <point x="344.08773999999994" y="104.97463000000005" type="curve" smooth="yes"/>
      <point x="332.88508999999993" y="133.8013400000001"/>
      <point x="325.73671999999993" y="164.02552000000003"/>
      <point x="315.91258999999997" y="193.35068" type="curve" smooth="yes"/>
      <point x="306.08845999999994" y="222.67583000000002"/>
      <point x="293.23148" y="251.6499"/>
      <point x="272.47294" y="274.57502999999997" type="curve" smooth="yes"/>
      <point x="253.85971999999998" y="295.13093"/>
      <point x="229.19986" y="310.14399999999995"/>
      <point x="202.39245" y="317.24044999999995" type="curve"/>
    </contour>
    <contour>
      <point x="133.73347" y="391.07151" type="line"/>
      <point x="163.06276000000003" y="379.60283"/>
      <point x="195.31878" y="375.7117"/>
      <point x="226.53401000000002" y="379.87673" type="curve" smooth="yes"/>
      <point x="257.74924000000004" y="384.04176"/>
      <point x="287.8566" y="396.254"/>
      <point x="313.15286000000003" y="415.01133" type="curve" smooth="yes"/>
      <point x="336.25028000000003" y="432.13820999999996"/>
      <point x="355.36947000000004" y="454.77076"/>
      <point x="367.58651000000003" y="480.80084" type="curve" smooth="yes"/>
      <point x="379.80355000000003" y="506.83092"/>
      <point x="385.00098" y="536.24422"/>
      <point x="381.55764000000005" y="564.7918" type="curve" smooth="yes"/>
      <point x="377.50308000000007" y="598.4068199999999"/>
      <point x="361.42643000000004" y="630.28015"/>
      <point x="337.53916000000004" y="654.2761399999999" type="curve" smooth="yes"/>
      <point x="313.65189000000004" y="678.2721300000001"/>
      <point x="282.19003000000004" y="694.39507"/>
      <point x="248.94695000000004" y="700.822127" type="curve" smooth="yes"/>
      <point x="203.29895000000005" y="709.647489"/>
      <point x="154.34130000000005" y="699.93202"/>
      <point x="115.52241000000004" y="674.34452" type="curve" smooth="yes"/>
      <point x="86.38378900000004" y="655.13777"/>
      <point x="63.211785000000035" y="627.15541"/>
      <point x="49.28606700000003" y="595.17965" type="curve" smooth="yes"/>
      <point x="41.63292900000003" y="577.60677"/>
      <point x="32.83554500000003" y="576.62489"/>
      <point x="25.738561000000033" y="594.4628399999999" type="curve" smooth="yes"/>
      <point x="1.2988359" y="655.89101" type="line" smooth="yes"/>
      <point x="-4.1740071" y="669.64675"/>
      <point x="-0.74423581" y="689.89849"/>
      <point x="9.9782358" y="700.0994900000001" type="curve" smooth="yes"/>
      <point x="64.246632" y="751.728622"/>
      <point x="137.21103" y="783.563373"/>
      <point x="212.07228" y="787.482539" type="curve" smooth="yes"/>
      <point x="264.93739" y="790.2501548"/>
      <point x="319.79773" y="778.874304"/>
      <point x="362.76657" y="747.954099" type="curve" smooth="yes"/>
      <point x="391.55482" y="727.238191"/>
      <point x="414.16783" y="698.28082"/>
      <point x="428.28271" y="665.74342" type="curve" smooth="yes"/>
      <point x="442.39759000000004" y="633.20603"/>
      <point x="448.09109" y="597.19264"/>
      <point x="445.78502000000003" y="561.80064" type="curve" smooth="yes"/>
      <point x="442.44212000000005" y="510.49599"/>
      <point x="422.40403000000003" y="460.92757"/>
      <point x="392.11943" y="419.38018" type="curve" smooth="yes"/>
      <point x="361.83483" y="377.8328"/>
      <point x="321.59941000000003" y="344.08426"/>
      <point x="277.23859000000004" y="318.09466" type="curve" smooth="yes"/>
      <point x="234.84524000000005" y="293.25773999999996"/>
      <point x="188.46159000000006" y="275.24848999999995"/>
      <point x="140.41541000000004" y="264.97069" type="curve"/>
    </contour>
    <contour>
      <point x="171.98778000000001" y="137.30882999999994" type="line"/>
      <point x="176.75217" y="99.72015999999996"/>
      <point x="185.05403" y="62.581500000000005"/>
      <point x="196.73183" y="26.536839999999984" type="curve" smooth="yes"/>
      <point x="202.10726" y="9.945029999999974"/>
      <point x="193.10423" y="-3.2414700000000494"/>
      <point x="175.66139" y="-3.2414700000000494" type="curve" smooth="yes"/>
      <point x="131.73758" y="-3.2414700000000494" type="line" smooth="yes"/>
      <point x="105.88775000000001" y="-3.2414700000000494"/>
      <point x="85.700906" y="17.70011999999997"/>
      <point x="86.830983" y="43.52519999999993" type="curve" smooth="yes"/>
      <point x="88.1018" y="72.56653999999992"/>
      <point x="89.543304" y="101.6004099999999"/>
      <point x="91.15540200000001" y="130.62479999999994" type="curve" smooth="yes"/>
      <point x="100.09339" y="291.54544"/>
      <point x="114.21931" y="453.82717"/>
      <point x="90.084121" y="613.17846" type="curve" smooth="yes"/>
      <point x="81.550064" y="669.52413"/>
      <point x="68.252862" y="725.147316"/>
      <point x="50.387772" y="779.262814" type="curve" smooth="yes"/>
      <point x="47.188087" y="788.955044"/>
      <point x="52.70857" y="796.7585293"/>
      <point x="62.91544" y="796.7585293" type="curve" smooth="yes"/>
      <point x="154.54805" y="796.7585293" type="line"/>
      <point x="174.2191" y="685.95708"/>
      <point x="181.9945" y="573.04773"/>
      <point x="177.69759" y="460.59575" type="curve" smooth="yes"/>
      <point x="173.57604999999998" y="352.73318"/>
      <point x="158.41475" y="244.39335000000005"/>
      <point x="171.98778" y="137.30882999999994" type="curve"/>
    </contour>
  </outline>
</glyph>
<glyph name="S" format="2">
	<unicode hex="0053"/>
	<advance height="1000" width="536"/>
	<outline>
		<contour>
			<point x="122.17851" y="390.2555" type="line"/>
			<point x="160.74043" y="405.6039"/>
			<point x="202.3772" y="413.78917"/>
			<point x="243.84195" y="411.98079" type="curve" smooth="yes"/>
			<point x="285.30669" y="410.17242"/>
			<point x="326.5613" y="398.1708"/>
			<point x="361.39491" y="375.60501" type="curve" smooth="yes"/>
			<point x="383.84254" y="361.06306"/>
			<point x="403.57595" y="342.15377"/>
			<point x="418.18691" y="319.751" type="curve" smooth="yes"/>
			<point x="432.79788" y="297.34823"/>
			<point x="442.19837" y="271.42326"/>
			<point x="444.30001" y="244.75967" type="curve" smooth="yes"/>
			<point x="447.23526" y="207.52014"/>
			<point x="435.41342" y="169.19345"/>
			<point x="411.4666" y="140.5238" type="curve" smooth="yes"/>
			<point x="387.51978" y="111.85416"/>
			<point x="351.61718" y="93.32456"/>
			<point x="314.32783" y="91.1103" type="curve" smooth="yes"/>
			<point x="280.73878" y="89.11577"/>
			<point x="247.20736" y="99.98507"/>
			<point x="218.55833" y="117.63261" type="curve" smooth="yes"/>
			<point x="189.9093" y="135.28015"/>
			<point x="165.77109" y="159.43469"/>
			<point x="144.33134" y="185.36805" type="curve" smooth="yes"/>
			<point x="122.68503" y="211.55127"/>
			<point x="103.51137" y="239.77679"/>
			<point x="87.133961" y="269.54067" type="curve" smooth="yes"/>
			<point x="79.610903" y="283.21287"/>
			<point x="69.175424" y="283.01559"/>
			<point x="63.023463" y="268.67215" type="curve" smooth="yes"/>
			<point x="19.958116" y="168.26425" type="line" smooth="yes"/>
			<point x="13.806155" y="153.92081"/>
			<point x="18.399023" y="134.02439"/>
			<point x="30.524371" y="124.19885" type="curve" smooth="yes"/>
			<point x="47.92753" y="110.09653"/>
			<point x="65.796924" y="96.56958"/>
			<point x="84.09392" y="83.64807" type="curve" smooth="yes"/>
			<point x="117.42493" y="60.10941"/>
			<point x="152.392" y="38.47039"/>
			<point x="190.26603" y="23.28543" type="curve" smooth="yes"/>
			<point x="228.14006" y="8.10047"/>
			<point x="269.1652" y="-0.48147"/>
			<point x="309.84441" y="2.71654" type="curve" smooth="yes"/>
			<point x="368.47084" y="7.32547"/>
			<point x="424.15644" y="36.94811"/>
			<point x="463.15355" y="80.96546" type="curve" smooth="yes"/>
			<point x="502.15065" y="124.9828"/>
			<point x="524.65989" y="182.64085"/>
			<point x="529.01745" y="241.2865" type="curve" smooth="yes"/>
			<point x="532.41909" y="287.06703"/>
			<point x="524.96116" y="333.87146"/>
			<point x="505.58299" y="375.48774" type="curve" smooth="yes"/>
			<point x="486.20481" y="417.10402"/>
			<point x="454.71746" y="453.31938"/>
			<point x="415.1163" y="476.53955" type="curve" smooth="yes"/>
			<point x="368.24609" y="504.02193"/>
			<point x="312.22989" y="512.44835"/>
			<point x="257.93133" y="510.50831" type="curve" smooth="yes"/>
			<point x="214.65383" y="508.96204"/>
			<point x="171.60477" y="501.1592"/>
			<point x="130.53772" y="487.41763" type="curve"/>
			<point x="149.10432" y="546.39524"/>
			<point x="187.93316" y="598.78648"/>
			<point x="238.95825" y="633.70806" type="curve" smooth="yes"/>
			<point x="275.02372" y="658.39127"/>
			<point x="317.36613" y="674.49646"/>
			<point x="360.99219" y="677.09375" type="curve" smooth="yes"/>
			<point x="400.48566" y="679.445"/>
			<point x="440.53925" y="670.46097"/>
			<point x="475.41033" y="651.81124" type="curve" smooth="yes"/>
			<point x="489.16246" y="644.45634"/>
			<point x="497.06284" y="649.30347"/>
			<point x="494.22025" y="664.6495" type="curve" smooth="yes"/>
			<point x="474.29588" y="772.213549" type="line" smooth="yes"/>
			<point x="471.45329" y="787.559582"/>
			<point x="456.50882" y="799.24282973"/>
			<point x="441.01375" y="797.391627" type="curve" smooth="yes"/>
			<point x="408.99619" y="793.5664751"/>
			<point x="377.32446" y="786.844902"/>
			<point x="346.51703" y="777.322787" type="curve" smooth="yes"/>
			<point x="271.2666" y="754.064005"/>
			<point x="201.52938" y="714.104106"/>
			<point x="141.50878" y="663.10288" type="curve" smooth="yes"/>
			<point x="94.088635" y="622.80862"/>
			<point x="52.574062" y="575.58162"/>
			<point x="18.645469" y="523.419" type="curve" smooth="yes"/>
			<point x="10.136447" y="510.33703"/>
			<point x="8.4898978" y="487.66135"/>
			<point x="14.318671" y="473.18356" type="curve" smooth="yes"/>
			<point x="50.09678" y="384.31614" type="line" smooth="yes"/>
			<point x="55.925553" y="369.83835"/>
			<point x="71.158533" y="365.19645"/>
			<point x="84.845293" y="372.68724" type="curve" smooth="yes"/>
			<point x="96.917478" y="379.29438"/>
			<point x="109.39211" y="385.16626"/>
			<point x="122.17851" y="390.2555" type="curve"/>
		</contour>
	</outline>
</glyph>
<glyph name="T" format="2">
	<unicode hex="0054"/>
	<advance height="1000" width="509"/>
	<outline>
		<contour>
			<point x="514.97339" y="763.948391" type="line"/>
			<point x="513.55529" y="670.2547" type="line" smooth="yes"/>
			<point x="513.20278" y="646.96475"/>
			<point x="506.83644" y="646.54884"/>
			<point x="492.50699" y="664.78554" type="curve" smooth="yes"/>
			<point x="478.27892" y="682.89321"/>
			<point x="459.4288" y="697.39599"/>
			<point x="438.08654" y="706.074065" type="curve" smooth="yes"/>
			<point x="421.66733" y="712.750353"/>
			<point x="404.06155" y="716.070359"/>
			<point x="386.43868" y="717.967065" type="curve" smooth="yes"/>
			<point x="375.27791" y="719.168271"/>
			<point x="363.96855" y="719.811604"/>
			<point x="352.85103" y="718.26029" type="curve" smooth="yes"/>
			<point x="341.73352" y="716.708976"/>
			<point x="330.7463" y="712.847847"/>
			<point x="322.00045" y="705.811095" type="curve" smooth="yes"/>
			<point x="310.08096" y="696.22088"/>
			<point x="303.23177" y="681.46039"/>
			<point x="300.25851" y="666.45351" type="curve" smooth="yes"/>
			<point x="297.28526" y="651.44664"/>
			<point x="297.80882" y="635.99734"/>
			<point x="298.25547" y="620.70528" type="curve" smooth="yes"/>
			<point x="300.64709" y="538.82345"/>
			<point x="300.48483" y="456.88615"/>
			<point x="299.42368" y="374.97627" type="curve" smooth="yes"/>
			<point x="298.40089" y="296.02758"/>
			<point x="296.575" y="216.5971"/>
			<point x="308.8796" y="138.60646" type="curve" smooth="yes"/>
			<point x="314.49762" y="102.99757"/>
			<point x="323.05374" y="67.85328"/>
			<point x="334.42015" y="33.64292" type="curve" smooth="yes"/>
			<point x="340.65218" y="14.88587"/>
			<point x="330.5996" y="0"/>
			<point x="310.8319" y="0" type="curve" smooth="yes"/>
			<point x="226.94216" y="0" type="line" smooth="yes"/>
			<point x="210.19817" y="0"/>
			<point x="199.39418" y="13.28956"/>
			<point x="202.46949" y="29.74846" type="curve" smooth="yes"/>
			<point x="209.30702" y="66.34267"/>
			<point x="214.89219" y="103.17088"/>
			<point x="219.21111" y="140.14702" type="curve" smooth="yes"/>
			<point x="228.11528" y="216.37939"/>
			<point x="231.62998" y="293.14584"/>
			<point x="233.41687" y="369.87566" type="curve" smooth="yes"/>
			<point x="235.37896" y="454.12867"/>
			<point x="235.26471" y="538.44749"/>
			<point x="231.91582" y="622.65678" type="curve" smooth="yes"/>
			<point x="231.28024" y="638.63866"/>
			<point x="230.50345" y="654.77675"/>
			<point x="226.22035" y="670.18711" type="curve" smooth="yes"/>
			<point x="221.93725" y="685.59748"/>
			<point x="213.79648" y="700.426697"/>
			<point x="200.91797" y="709.911858" type="curve" smooth="yes"/>
			<point x="192.31685" y="716.246674"/>
			<point x="181.94971" y="719.939095"/>
			<point x="171.38317" y="721.506647" type="curve" smooth="yes"/>
			<point x="160.81662" y="723.0742"/>
			<point x="150.02928" y="722.586133"/>
			<point x="139.44815" y="721.120205" type="curve" smooth="yes"/>
			<point x="113.54936" y="717.532139"/>
			<point x="88.498669" y="708.035654"/>
			<point x="66.669834" y="693.64386" type="curve" smooth="yes"/>
			<point x="53.851323" y="685.19259"/>
			<point x="42.148752" y="675.05874"/>
			<point x="31.918303" y="663.61047" type="curve" smooth="yes"/>
			<point x="20.207714" y="650.50586"/>
			<point x="12.327998" y="652.33854"/>
			<point x="11.601397" y="669.92177" type="curve" smooth="yes"/>
			<point x="7.6932234" y="764.496742" type="line" smooth="yes"/>
			<point x="7.3265645899" y="773.3696208905"/>
			<point x="10.5849930758" y="782.0099289654"/>
			<point x="16.7193536839" y="788.4311467951" type="curve" smooth="yes"/>
			<point x="22.853714292" y="794.8523646249"/>
			<point x="31.3361939362" y="798.5019973342"/>
			<point x="40.21656" y="798.5409468" type="curve" smooth="yes"/>
			<point x="478.84739" y="800.4647911" type="line" smooth="yes"/>
			<point x="488.5094785879" y="800.5071686013"/>
			<point x="497.7824072579" y="796.6608263204"/>
			<point x="504.5777851208" y="789.7920133637" type="curve" smooth="yes"/>
			<point x="511.3731629837" y="782.923200407"/>
			<point x="515.1196154604" y="773.6094659841"/>
			<point x="514.97339" y="763.948391" type="curve"/>
		</contour>
	</outline>
</glyph>
<glyph name="U" format="2">
	<unicode hex="0055"/>
	<advance height="1000" width="544"/>
	<outline>
		<contour>
			<point x="6.32935" y="800" type="curve"/>
			<point x="153.96569" y="800" type="line"/>
			<point x="133.92459" y="739.035482"/>
			<point x="119.40258" y="676.25785"/>
			<point x="110.63521" y="612.68544" type="curve" smooth="yes"/>
			<point x="97.611801" y="518.25234"/>
			<point x="97.351775" y="421.81802"/>
			<point x="113.20028" y="327.81778" type="curve" smooth="yes"/>
			<point x="121.7946" y="276.84338"/>
			<point x="135.74318" y="225.28456"/>
			<point x="166.51063" y="183.74404" type="curve" smooth="yes"/>
			<point x="181.89435" y="162.97377"/>
			<point x="201.41298" y="145.04055"/>
			<point x="224.29747" y="133.02542" type="curve" smooth="yes"/>
			<point x="247.18195" y="121.0103"/>
			<point x="273.50576" y="115.09618"/>
			<point x="299.19812" y="117.91853" type="curve" smooth="yes"/>
			<point x="318.63069" y="120.05323"/>
			<point x="337.39567" y="127.11494"/>
			<point x="353.94204" y="137.52644" type="curve" smooth="yes"/>
			<point x="370.4884" y="147.93794"/>
			<point x="384.85014" y="161.64648"/>
			<point x="396.79853" y="177.1196" type="curve" smooth="yes"/>
			<point x="420.69532" y="208.06584"/>
			<point x="434.73975" y="245.51468"/>
			<point x="444.64905" y="283.33706" type="curve" smooth="yes"/>
			<point x="479.17338" y="415.11152"/>
			<point x="466.61164" y="555.95161"/>
			<point x="428.28446" y="686.67064" type="curve" smooth="yes"/>
			<point x="416.99617" y="725.170577"/>
			<point x="403.51811" y="763.028348"/>
			<point x="387.93711" y="800" type="curve"/>
			<point x="536.98587" y="800" type="line"/>
			<point x="540.07629" y="719.075613"/>
			<point x="541.95685" y="638.10502"/>
			<point x="542.62671" y="557.12442" type="curve" smooth="yes"/>
			<point x="543.71014" y="426.14662"/>
			<point x="540.98402" y="291.70897"/>
			<point x="492.77712" y="169.92041" type="curve" smooth="yes"/>
			<point x="477.67202" y="131.75932"/>
			<point x="457.96585" y="94.93534"/>
			<point x="430.3316" y="64.59096" type="curve" smooth="yes"/>
			<point x="402.69734" y="34.24659"/>
			<point x="366.61558" y="10.62998"/>
			<point x="326.38533" y="2.50839" type="curve" smooth="yes"/>
			<point x="280.69523" y="-6.71542"/>
			<point x="232.19665" y="4.7538"/>
			<point x="192.33716" y="28.91752" type="curve" smooth="yes"/>
			<point x="152.47767" y="53.08125"/>
			<point x="120.79262" y="89.18865"/>
			<point x="96.876371" y="129.19712" type="curve" smooth="yes"/>
			<point x="30.899401" y="239.56716"/>
			<point x="23.469797" y="374.04906"/>
			<point x="18.113212" y="502.52401" type="curve" smooth="yes"/>
			<point x="13.979275" y="601.67437"/>
			<point x="10.05131" y="700.83332"/>
		</contour>
	</outline>
</glyph>
<glyph name="V" format="2">
  <advance height="1000" width="557"/>
  <unicode hex="0056"/>
  <outline>
    <contour>
      <point x="49.973382" y="800.0" type="curve" smooth="yes"/>
      <point x="141.69638" y="800.0" type="line" smooth="yes"/>
      <point x="152.3989" y="800.0"/>
      <point x="158.22894" y="791.8011381"/>
      <point x="155.08253000000002" y="781.572051" type="curve" smooth="yes"/>
      <point x="140.36535" y="733.725984"/>
      <point x="131.56956000000002" y="684.0594"/>
      <point x="128.98425000000003" y="634.06719" type="curve" smooth="yes"/>
      <point x="124.95165000000003" y="556.08861"/>
      <point x="135.99087000000003" y="477.90599999999995"/>
      <point x="154.50503000000003" y="402.04990999999995" type="curve" smooth="yes"/>
      <point x="179.52216000000004" y="299.54988999999995"/>
      <point x="218.26978000000003" y="200.41162999999995"/>
      <point x="269.36522" y="108.10134999999991" type="curve" smooth="yes"/>
      <point x="273.84969" y="99.99960999999996"/>
      <point x="281.55877000000004" y="99.86211999999989"/>
      <point x="286.27114" y="107.83335999999986" type="curve" smooth="yes"/>
      <point x="344.64427" y="206.57472999999982"/>
      <point x="381.92674999999997" y="317.7356599999998"/>
      <point x="394.79409" y="431.72224999999986" type="curve" smooth="yes"/>
      <point x="403.41925" y="508.12906999999984"/>
      <point x="401.20511" y="585.2893799999998"/>
      <point x="403.90689" y="662.1339999999999" type="curve" smooth="yes"/>
      <point x="405.24179" y="700.1017179999999"/>
      <point x="407.77972" y="738.0271199999999"/>
      <point x="411.51507" y="775.8342169999999" type="curve" smooth="yes"/>
      <point x="412.8346" y="789.189827"/>
      <point x="424.94722" y="800.0"/>
      <point x="438.36796" y="800.0" type="curve" smooth="yes"/>
      <point x="509.81086999999997" y="800.0" type="line" smooth="yes"/>
      <point x="536.307" y="800.0"/>
      <point x="547.14752" y="781.288917"/>
      <point x="536.2424" y="757.149362" type="curve" smooth="yes"/>
      <point x="520.81725" y="723.004286"/>
      <point x="508.70873" y="687.36026"/>
      <point x="500.17202" y="650.87779" type="curve" smooth="yes"/>
      <point x="482.41198" y="574.97853"/>
      <point x="480.1959" y="496.43907"/>
      <point x="470.9544" y="419.03938" type="curve" smooth="yes"/>
      <point x="454.4979" y="281.2125"/>
      <point x="415.3932" y="146.12041"/>
      <point x="355.74174" y="20.78866000000005" type="curve" smooth="yes"/>
      <point x="350.25323" y="9.256930000000011"/>
      <point x="335.26084" y="0.0"/>
      <point x="322.48941" y="0.0" type="curve" smooth="yes"/>
      <point x="225.19499" y="0.0" type="line" smooth="yes"/>
      <point x="212.42357" y="0.0"/>
      <point x="198.2941" y="9.64022"/>
      <point x="193.72617" y="21.56677000000002" type="curve" smooth="yes"/>
      <point x="149.47914" y="137.09275000000002"/>
      <point x="111.51614" y="255.02535"/>
      <point x="80.06343" y="374.66977" type="curve" smooth="yes"/>
      <point x="57.497755" y="460.50839"/>
      <point x="38.230973" y="547.5487"/>
      <point x="30.791158" y="635.99149" type="curve" smooth="yes"/>
      <point x="26.744771" y="684.094"/>
      <point x="26.216052" y="732.491881"/>
      <point x="29.205618" y="780.671542" type="curve" smooth="yes"/>
      <point x="29.868428" y="791.3533443"/>
      <point x="39.270865" y="800.0"/>
    </contour>
  </outline>
</glyph>
<glyph name="W" format="2">
  <advance height="1000" width="644"/>
  <unicode hex="0057"/>
  <outline>
    <contour>
      <point x="145.78539" y="800.0" type="curve" smooth="yes"/>
      <point x="72.446248" y="800.0" type="line" smooth="yes"/>
      <point x="57.66728" y="800.0"/>
      <point x="43.945794" y="788.146331"/>
      <point x="41.8781" y="773.512736" type="curve" smooth="yes"/>
      <point x="32.257045" y="705.422073"/>
      <point x="23.91538" y="637.1506400000001"/>
      <point x="16.859111" y="568.7466" type="curve" smooth="yes"/>
      <point x="4.7136622" y="451.00765"/>
      <point x="-3.5482492" y="331.30039"/>
      <point x="17.985336" y="214.91192" type="curve" smooth="yes"/>
      <point x="30.522791" y="147.14729999999997"/>
      <point x="53.14427" y="81.26043000000004"/>
      <point x="84.832946" y="20.065309999999954" type="curve" smooth="yes"/>
      <point x="90.621216" y="8.887370000000033"/>
      <point x="105.84799" y="0.0"/>
      <point x="118.43625" y="0.0" type="curve" smooth="yes"/>
      <point x="161.63608" y="0.0" type="line" smooth="yes"/>
      <point x="174.22433999999998" y="0.0"/>
      <point x="185.38667999999998" y="10.161860000000047"/>
      <point x="186.92904" y="22.654919999999947" type="curve" smooth="yes"/>
      <point x="197.30381" y="106.6901499999999"/>
      <point x="219.77716999999998" y="189.22723999999994"/>
      <point x="253.47973" y="266.9056599999999" type="curve" smooth="yes"/>
      <point x="268.88283" y="302.4070599999999"/>
      <point x="286.61494" y="336.8977699999999"/>
      <point x="306.52425" y="370.0824699999999" type="curve"/>
      <point x="329.81073" y="333.7903799999999"/>
      <point x="350.16341" y="295.6164199999999"/>
      <point x="367.31851" y="256.05534999999986" type="curve" smooth="yes"/>
      <point x="399.44762000000003" y="181.9629699999998"/>
      <point x="420.2778" y="102.98689999999988"/>
      <point x="428.92146" y="22.69392999999991" type="curve" smooth="yes"/>
      <point x="430.26877" y="10.17840000000001"/>
      <point x="441.24153" y="0.0"/>
      <point x="453.82979" y="0.0" type="curve" smooth="yes"/>
      <point x="524.83615" y="0.0" type="line" smooth="yes"/>
      <point x="537.42441" y="0.0"/>
      <point x="552.87937" y="8.755750000000035"/>
      <point x="558.8936" y="19.81353999999999" type="curve" smooth="yes"/>
      <point x="585.12055" y="68.03453999999999"/>
      <point x="604.80419" y="119.81315999999993"/>
      <point x="617.19753" y="173.28873999999996" type="curve" smooth="yes"/>
      <point x="637.63437" y="261.47088999999994"/>
      <point x="638.1539700000001" y="353.10123"/>
      <point x="632.4907400000001" y="443.44327" type="curve" smooth="yes"/>
      <point x="625.51616" y="554.70441"/>
      <point x="609.30518" y="665.3848"/>
      <point x="584.08907" y="773.974811" type="curve" smooth="yes"/>
      <point x="580.74616" y="788.370632"/>
      <point x="565.8826" y="800.0"/>
      <point x="551.10363" y="800.0" type="curve" smooth="yes"/>
      <point x="476.49073999999996" y="800.0" type="line" smooth="yes"/>
      <point x="461.71176999999994" y="800.0"/>
      <point x="455.58748999999995" y="789.543966"/>
      <point x="462.34432999999996" y="776.400741" type="curve" smooth="yes"/>
      <point x="515.2475599999999" y="673.4947999999999"/>
      <point x="546.8355399999999" y="559.66348"/>
      <point x="554.37681" y="444.19404" type="curve" smooth="yes"/>
      <point x="562.07037" y="326.39279999999997"/>
      <point x="544.7674099999999" y="207.01891999999998"/>
      <point x="503.94318" y="96.25020999999992" type="curve"/>
      <point x="481.78571" y="171.05770999999993"/>
      <point x="457.54516" y="245.24820999999997"/>
      <point x="431.25908" y="318.7067599999999" type="curve" smooth="yes"/>
      <point x="407.79528" y="384.2782199999999"/>
      <point x="382.70167" y="449.26645999999994"/>
      <point x="356.00937" y="513.5913199999999" type="curve" smooth="yes"/>
      <point x="352.42406" y="522.2314199999998"/>
      <point x="341.90400999999997" y="529.3576699999999"/>
      <point x="332.55102999999997" y="529.5244099999999" type="curve" smooth="yes"/>
      <point x="275.40894999999995" y="530.5431199999998" type="line" smooth="yes"/>
      <point x="266.05596999999995" y="530.7098599999999"/>
      <point x="256.3343899999999" y="523.5697199999998"/>
      <point x="253.63154999999995" y="514.6142499999999" type="curve" smooth="yes"/>
      <point x="239.62517999999994" y="468.2061699999999"/>
      <point x="224.35202999999996" y="422.18041999999986"/>
      <point x="207.83461999999994" y="376.60560999999984" type="curve" smooth="yes"/>
      <point x="180.24899999999994" y="300.4914299999998"/>
      <point x="149.19159999999994" y="225.63560999999982"/>
      <point x="114.79129999999995" y="152.34880999999984" type="curve"/>
      <point x="82.91708" y="296.98313"/>
      <point x="81.229731" y="448.19808"/>
      <point x="109.86858" y="593.50764" type="curve" smooth="yes"/>
      <point x="122.07633" y="655.44807"/>
      <point x="139.73436" y="716.312812"/>
      <point x="162.56087" y="775.173407" type="curve" smooth="yes"/>
      <point x="167.90436" y="788.952153"/>
      <point x="160.56436" y="800.0"/>
    </contour>
  </outline>
</glyph>
<glyph name="X" format="2">
	<unicode hex="0058"/>
	<advance height="2048" width="1292"/>
	<outline>
		<contour>
			<point x="109" y="-24" type="curve" smooth="yes"/>
			<point x="138" y="-24"/>
			<point x="170" y="-17"/>
			<point x="186" y="2" type="curve" smooth="yes"/>
			<point x="631" y="549" type="line"/>
			<point x="1053" y="10" type="line" smooth="yes"/>
			<point x="1073" y="-16"/>
			<point x="1118" y="-24"/>
			<point x="1157" y="-24" type="curve" smooth="yes"/>
			<point x="1171" y="-24"/>
			<point x="1184" y="-23"/>
			<point x="1195" y="-21" type="curve" smooth="yes"/>
			<point x="1220" y="-16"/>
			<point x="1266" y="3"/>
			<point x="1266" y="30" type="curve" smooth="yes"/>
			<point x="1266" y="37"/>
			<point x="1264" y="44"/>
			<point x="1258" y="51" type="curve" smooth="yes"/>
			<point x="751" y="697" type="line"/>
			<point x="1260" y="1322" type="line" smooth="yes"/>
			<point x="1265" y="1328"/>
			<point x="1267" y="1334"/>
			<point x="1267" y="1339" type="curve" smooth="yes"/>
			<point x="1267" y="1360"/>
			<point x="1233" y="1374"/>
			<point x="1214" y="1378" type="curve" smooth="yes"/>
			<point x="1205" y="1380"/>
			<point x="1194" y="1381"/>
			<point x="1183" y="1381" type="curve" smooth="yes"/>
			<point x="1154" y="1381"/>
			<point x="1121" y="1374"/>
			<point x="1106" y="1355" type="curve" smooth="yes"/>
			<point x="662" y="810" type="line"/>
			<point x="242" y="1346" type="line" smooth="yes"/>
			<point x="222" y="1371"/>
			<point x="178" y="1380"/>
			<point x="140" y="1380" type="curve" smooth="yes"/>
			<point x="125" y="1380"/>
			<point x="112" y="1379"/>
			<point x="100" y="1377" type="curve" smooth="yes"/>
			<point x="75" y="1373"/>
			<point x="29" y="1354"/>
			<point x="29" y="1326" type="curve" smooth="yes"/>
			<point x="29" y="1320"/>
			<point x="31" y="1313"/>
			<point x="37" y="1305" type="curve" smooth="yes"/>
			<point x="542" y="662" type="line"/>
			<point x="32" y="35" type="line" smooth="yes"/>
			<point x="27" y="29"/>
			<point x="25" y="23"/>
			<point x="25" y="18" type="curve" smooth="yes"/>
			<point x="25" y="-3"/>
			<point x="59" y="-17"/>
			<point x="79" y="-21" type="curve" smooth="yes"/>
			<point x="88" y="-23"/>
			<point x="98" y="-24"/>
		</contour>
	</outline>
</glyph>
